<svg xmlns="http://www.w3.org/2000/svg" width="16" height="16" viewBox="0 0 16 16">
  <path id="face-smile-upside-down" d="M8,0a8,8,0,1,0,8,8A8.009,8.009,0,0,0,8,0ZM8,14.667A6.667,6.667,0,1,1,14.667,8,6.674,6.674,0,0,1,8,14.667ZM11.777,5.5a.667.667,0,0,1-.888.995A5.006,5.006,0,0,0,8,5.333,5.005,5.005,0,0,0,5.109,6.5a.666.666,0,0,1-.887-1A6.3,6.3,0,0,1,8,4a6.3,6.3,0,0,1,3.777,1.5Zm-.444,4.164a1,1,0,1,1-1-1A1,1,0,0,1,11.333,9.667Zm-4.667,0a1,1,0,1,1-1-1A1,1,0,0,1,6.667,9.667Z" transform="translate(16 16) rotate(180)" fill="#2f3758"/>
</svg>
