<?xml version="1.0" encoding="UTF-8"?><svg id="Calque_2" xmlns="http://www.w3.org/2000/svg" viewBox="0 0 426.7 512.1"><g id="Layer_1"><path d="m383,118.2l-74.5-74.5C280.4,15.6,242.8,0,202.9,0h-96.2C47.8,0,0,47.8,0,106.7v298.7c0,58.9,47.8,106.7,106.7,106.7h213.3c58.9,0,106.7-47.8,106.7-106.7v-181.6c0-39.9-15.5-77.5-43.7-105.6Zm-30.1,30.1c6.8,6.8,12.6,14.3,17.3,22.4h-92.6c-11.7,0-21.3-9.6-21.3-21.3V56.7c8.1,4.7,15.6,10.5,22.4,17.3l74.5,74.5-.3-.2Zm31.2,257c0,35.2-28.8,64-64,64H106.8c-35.2,0-64-28.8-64-64V106.7c0-35.2,28.8-64,64-64h96.2c3.4,0,7,0,10.5.4v106.2c0,35.2,28.8,64,64,64h106.2c.4,3.4.4,6.8.4,10.5v181.5h0Z"/><path d="m194.73,386.43v20.9c0,2.78-.27,5-.82,6.66-.55,1.66-1.55,3.16-3.01,4.5-1.46,1.34-3.34,2.63-5.62,3.87-6.59,3.57-12.94,6.17-19.04,7.81-6.1,1.64-12.74,2.45-19.93,2.45-8.38,0-16.02-1.29-22.91-3.87-6.89-2.58-12.77-6.32-17.63-11.23-4.86-4.91-8.59-10.86-11.19-17.85s-3.9-14.8-3.9-23.43,1.26-16.24,3.79-23.28c2.53-7.04,6.25-13.01,11.16-17.92,4.91-4.91,10.88-8.66,17.92-11.27,7.04-2.6,15.02-3.91,23.95-3.91,7.34,0,13.83.98,19.49,2.94,5.65,1.96,10.24,4.43,13.76,7.4,3.52,2.97,6.17,6.12,7.96,9.45,1.78,3.32,2.68,6.27,2.68,8.85,0,2.78-1.03,5.14-3.09,7.1-2.06,1.96-4.53,2.94-7.4,2.94-1.59,0-3.11-.37-4.57-1.12-1.46-.74-2.69-1.79-3.68-3.12-2.73-4.26-5.03-7.49-6.92-9.67-1.88-2.18-4.43-4.02-7.62-5.5-3.2-1.49-7.28-2.23-12.23-2.23s-9.67.88-13.68,2.64c-4.02,1.76-7.45,4.31-10.3,7.66-2.85,3.35-5.03,7.45-6.54,12.31-1.51,4.86-2.27,10.24-2.27,16.14,0,12.79,2.94,22.63,8.81,29.53,5.88,6.89,14.07,10.34,24.58,10.34,5.11,0,9.9-.67,14.39-2.01,4.49-1.34,9.04-3.25,13.65-5.73v-17.7h-17.11c-4.12,0-7.23-.62-9.33-1.86-2.11-1.24-3.16-3.35-3.16-6.32,0-2.43.88-4.44,2.64-6.02,1.76-1.59,4.15-2.38,7.18-2.38h25.06c3.07,0,5.68.27,7.81.82,2.13.55,3.85,1.76,5.17,3.64,1.31,1.88,1.97,4.71,1.97,8.48Z"/><path d="m216.67,419.16v-85.9c0-4.46,1.02-7.81,3.05-10.04,2.03-2.23,4.66-3.35,7.88-3.35s6.01,1.1,8.07,3.31c2.06,2.21,3.09,5.57,3.09,10.08v85.9c0,4.51-1.03,7.88-3.09,10.12-2.06,2.23-4.75,3.35-8.07,3.35s-5.79-1.13-7.85-3.38c-2.06-2.26-3.09-5.62-3.09-10.08Z"/><path d="m328.6,338.76h-43.51v27.89h36.37c3.37,0,5.89.76,7.55,2.27,1.66,1.51,2.49,3.53,2.49,6.06s-.84,4.54-2.53,6.02c-1.69,1.49-4.19,2.23-7.51,2.23h-36.37v35.92c0,4.56-1.03,7.95-3.09,10.15-2.06,2.21-4.7,3.31-7.92,3.31s-5.94-1.12-7.99-3.35c-2.06-2.23-3.09-5.6-3.09-10.12v-83.89c0-3.17.47-5.76,1.41-7.77.94-2.01,2.42-3.47,4.43-4.39,2.01-.92,4.57-1.38,7.7-1.38h52.06c3.52,0,6.14.78,7.85,2.34,1.71,1.56,2.57,3.61,2.57,6.14s-.85,4.65-2.57,6.21c-1.71,1.56-4.33,2.34-7.85,2.34Z"/></g></svg>