<svg xmlns="http://www.w3.org/2000/svg" viewBox="0 0 200 200"><defs><style>.cls-1{fill:#2f3758;}</style></defs><g id="Calque_2" data-name="Calque 2"><g id="Calque_1-2" data-name="Calque 1"><g id="Logo"><path class="cls-1" d="M184,45.32a100.65,100.65,0,0,0-27.39-28.17A47,47,0,0,0,184,45.32"/><path class="cls-1" d="M43.3,100a56.7,56.7,0,1,0,113.4,0,57.33,57.33,0,0,0-1.12-11.2,99.55,99.55,0,0,1-12.66-7.66,46.87,46.87,0,1,1-23.9-24,100.15,100.15,0,0,1-7.61-12.7A56.74,56.74,0,0,0,43.3,100"/><path class="cls-1" d="M164.61,56.69c13,9,29.94,10.34,29.94,10.34l-3.92-9.7c-42.2-9.77-45.88-47.15-45.88-47.15C143.27,9,134.07,5.57,134.07,5.57c0,4.83,2.25,12.81,2.25,12.81,6.88,25.77,28.29,38.31,28.29,38.31"/><path class="cls-1" d="M189,100.06a88,88,0,0,1-.47,9.08s0,.07,0,.11c-.14,1.42-.33,2.81-.53,4.21a.15.15,0,0,0,0,.07s0,0,0,0a88.79,88.79,0,0,1-1.8,8.76l-.18.64c-.3,1.15-.62,2.28-1,3.4-.16.52-.34,1-.5,1.53-.26.81-.54,1.6-.82,2.38s-.57,1.54-.87,2.3c-.2.51-.4,1-.61,1.53-.4.95-.81,1.9-1.24,2.84l0,.06c-.13.28-.25.57-.39.85-.47,1-1,2-1.48,3-.13.25-.25.51-.38.75-.53,1-1.08,2-1.64,3l-.46.81c-.55.92-1.13,1.82-1.71,2.72-.19.32-.39.64-.6.95-.54.83-1.11,1.63-1.68,2.44-.27.38-.54.77-.81,1.14-.53.71-1.06,1.41-1.6,2.09-.36.47-.72.94-1.09,1.39s-1,1.15-1.45,1.73-.92,1.09-1.4,1.61-.85.93-1.28,1.4l-1.45,1.52-.36.37q-.51.51-1,1l-1.4,1.34c-.29.27-.57.55-.87.81l-.72.65c-.42.37-.85.74-1.29,1.1s-.92.82-1.4,1.2l-.46.38c-.37.3-.74.58-1.11.87-.65.5-1.29,1-1.95,1.5l-.29.21c-.28.21-.58.41-.86.61-.8.58-1.6,1.14-2.41,1.68l-.29.2-.54.35c-.92.59-1.85,1.18-2.79,1.75-.15.08-.3.18-.45.27l-.18.09c-1,.59-2,1.16-3,1.71-.24.14-.49.27-.74.39-1,.52-2,1-3,1.48-.39.2-.78.37-1.18.55-.85.4-1.71.78-2.57,1.15l-1.82.74c-.67.27-1.33.52-2,.77-.89.33-1.79.64-2.7.94l-1.22.4c-1.23.4-2.48.76-3.75,1.1l-.27.08c-2.88.76-5.84,1.39-8.84,1.87-1.39.22-2.76.4-4.12.56-.17,0-.33,0-.48.06-.89.09-1.76.15-2.63.22-.71.05-1.41.12-2.11.15l-1,0c-1.24.06-2.48.1-3.72.1a88.07,88.07,0,0,1-9-.45c-1.51-.15-3-.34-4.52-.57-3-.46-5.87-1-8.71-1.78l-.87-.23c-1.07-.29-2.12-.59-3.18-.92l-1.73-.56c-.74-.24-1.47-.49-2.19-.74s-1.65-.63-2.46-.95L66,182.24c-1-.42-2-.85-3-1.3a1.66,1.66,0,0,1-.24-.11l-.56-.25c-1-.49-2.06-1-3.08-1.53l-.69-.35c-1-.54-2-1.1-3-1.68l-.74-.42c-.94-.56-1.87-1.15-2.78-1.74l-.91-.57c-.83-.55-1.66-1.12-2.48-1.7l-1.11-.79c-.71-.53-1.42-1.08-2.11-1.62L44,169.12c-.6-.49-1.18-1-1.75-1.48s-1.07-.92-1.6-1.38-.94-.86-1.4-1.3l-1.57-1.48a2.83,2.83,0,0,0-.3-.3c-.35-.35-.68-.7-1-1L35,160.7l-.76-.81-.66-.73c-.38-.43-.75-.87-1.13-1.31l-1.18-1.38c-.12-.15-.24-.32-.37-.47L30,154.88c-.5-.64-1-1.28-1.48-1.93l-.22-.29-.61-.87c-.58-.8-1.14-1.61-1.69-2.42-.05-.09-.12-.17-.17-.26l-.35-.54c-.61-.94-1.2-1.87-1.78-2.82l-.24-.41-.1-.17c-.6-1-1.18-2-1.74-3.09-.12-.21-.24-.44-.36-.67-.52-1-1-2-1.52-3-.17-.35-.33-.72-.49-1.07-.42-.89-.82-1.78-1.2-2.68l-.69-1.71c-.29-.7-.56-1.41-.82-2.12s-.61-1.69-.89-2.55c-.16-.45-.31-.91-.46-1.37-.37-1.18-.72-2.36-1-3.56,0-.16-.1-.32-.14-.48-.75-2.88-1.38-5.8-1.86-8.79-.21-1.32-.38-2.63-.53-3.94,0-.23-.07-.47-.09-.71-.08-.79-.13-1.57-.19-2.36s-.15-1.58-.18-2.37c0-.24,0-.48,0-.7-.07-1.32-.11-2.65-.11-4,0-2.28.12-4.54.28-6.78s.41-4.44.75-6.68a88.12,88.12,0,0,1,1.81-8.81,3.9,3.9,0,0,1,.12-.46c.31-1.22.66-2.41,1-3.59.14-.46.3-.92.45-1.37.28-.86.57-1.71.87-2.56s.54-1.41.81-2.12.45-1.15.68-1.72c.38-.9.77-1.79,1.18-2.68.16-.36.32-.73.49-1.08.44-1,.91-1.9,1.39-2.83.14-.27.28-.54.42-.79a1,1,0,0,1,0-.1c.5-1,1-1.89,1.57-2.82.18-.31.35-.62.54-.92.52-.89,1.07-1.76,1.61-2.62L25.75,51c.51-.78,1.06-1.54,1.59-2.31.31-.42.6-.86.91-1.28.49-.66,1-1.31,1.49-2s.79-1,1.19-1.51.9-1.08,1.34-1.61.93-1.08,1.41-1.61c0-.06.1-.12.14-.17.37-.41.76-.82,1.13-1.22s.93-1,1.4-1.47l.6-.62.82-.8c.44-.44.9-.87,1.36-1.29s.74-.71,1.12-1l.49-.44c.4-.37.83-.72,1.23-1.08.57-.48,1.13-1,1.7-1.44l.22-.17c.34-.28.7-.55,1-.83.74-.58,1.48-1.17,2.25-1.74l0,0,.79-.56c.91-.65,1.82-1.3,2.76-1.93l.45-.28c1-.69,2.1-1.36,3.17-2l.14-.08.07-.05c1.13-.66,2.28-1.32,3.44-1.94l.35-.18c1.11-.59,2.22-1.15,3.35-1.68l.74-.36c1-.46,2-.9,3-1.33l1.37-.55,2.45-1,2.2-.76,1.72-.57c1-.33,2.12-.64,3.18-.93l.86-.25C80.09,13.22,83,12.6,86,12.13l1.3-.18h0A89.48,89.48,0,0,1,100,11l1.31,0h0a86.44,86.44,0,0,1,11.16.88c3,24.92,15,39.29,15,39.29,18.88,27.59,45.75,35.45,60.75,37.67A90,90,0,0,1,189,100.06Zm10.48-10.34h0c.13-1.66-1.88-11.47-1.88-11.47-73.95-7.93-74.33-75.51-74.33-75.51-1.59-.45-4.76-1-7.35-1.42v0l-.79-.14c-.85-.13-1.69-.21-2.54-.32L111.82.7h0A100.16,100.16,0,0,0,79.92,2l-1,.22c-1.25.26-2.48.54-3.71.85l-1,.27L74,3.43l-1.46.41c-.63.19-1.25.35-1.87.54l-1.11.35-1,.34-1.67.55c-.25.1-.51.18-.76.27L65,6.31c-.58.21-1.14.45-1.71.68l-1.4.55-.19.08-1.13.47c-.79.34-1.57.71-2.35,1.06l-2,.91c-.95.47-1.88,1-2.82,1.45l-.41.21h0l-1,.53C51,12.82,50,13.41,48.93,14l-.15.09c-.29.18-.59.34-.87.52-1,.62-2,1.27-3,1.94l-.2.14-.77.5c-1,.67-1.92,1.34-2.87,2l-.37.27L40,20c-.89.66-1.75,1.34-2.61,2l-.6.48-.6.49c-.76.63-1.52,1.29-2.27,1.94-.28.26-.58.51-.86.76l-.55.51c-.64.59-1.27,1.19-1.9,1.79L29.49,29.1c-.18.17-.36.35-.53.54-.51.51-1,1-1.51,1.56s-.9.95-1.35,1.43l-.53.6-1.14,1.31c-.51.59-1,1.16-1.53,1.76l-.35.45c-.09.1-.16.21-.24.3-.26.33-.52.65-.77,1-.55.69-1.1,1.38-1.63,2.09l-.21.28c-.15.2-.29.42-.44.62l-.49.68c-.56.78-1.12,1.55-1.65,2.34l-.2.29-.47.73c-.11.17-.22.35-.34.52-.53.82-1.06,1.65-1.59,2.5-.1.17-.19.35-.3.53s-.21.37-.32.54-.2.35-.31.52c-.49.84-1,1.69-1.45,2.54-.19.36-.37.72-.55,1.08l-.38.73c-.42.81-.85,1.61-1.25,2.44-.18.37-.35.76-.52,1.13s-.32.7-.47,1c0,0,0,0,0,.06-.33.71-.66,1.4-1,2.11-.17.39-.32.78-.48,1.17s-.33.86-.51,1.28-.44,1.12-.66,1.69c0,.1-.09.21-.13.33-.13.38-.26.76-.41,1.14l-.57,1.7c-.31.93-.63,1.87-.91,2.8-.24.77-.45,1.54-.65,2.31S3.24,74.73,3,75.49c-.26,1-.49,2.05-.71,3.09-.12.53-.24,1-.34,1.57-.27,1.32-.51,2.65-.71,4-.05.25-.1.5-.13.76C.89,86.51.7,88.11.53,89.74a.06.06,0,0,0,0,0Q.08,94.19,0,98.71c0,.53,0,1.08,0,1.61s0,1.09,0,1.62a98.64,98.64,0,0,0,2,18.18,2,2,0,0,0,.08.33c.3,1.46.63,2.91,1,4.36.08.33.19.65.27,1v0c.11.4.23.8.34,1.2.23.79.44,1.6.68,2.38l.36,1.1c.07.26.17.51.25.75l.49,1.46c.14.4.27.81.41,1.21s.29.76.43,1.15.39,1,.59,1.49l.48,1.22c.09.2.15.4.24.6.15.38.32.75.47,1.12.31.72.64,1.43,1,2.14.12.27.24.54.36.79l.14.32c.18.36.34.71.51,1.07.43.89.89,1.75,1.35,2.62,0,.1.09.2.15.3l.16.31c.18.34.34.66.53,1,.52,1,1.08,1.92,1.63,2.86l.23.39.51.87c.59.95,1.2,1.88,1.82,2.81a4.5,4.5,0,0,0,.27.43c.17.26.34.52.51.76.61.92,1.25,1.8,1.89,2.67.14.2.27.39.41.57l.49.68c.63.81,1.26,1.62,1.89,2.41l.63.79.5.6c.58.71,1.18,1.4,1.79,2.08.3.36.61.7.91,1l.51.56c.54.58,1.07,1.15,1.62,1.72s.83.86,1.25,1.29l.54.53,1.39,1.35c.54.5,1.06,1,1.61,1.5.15.15.32.28.48.43l.16.14c.35.32.71.63,1.08,1,.65.56,1.29,1.13,2,1.67a1.46,1.46,0,0,0,.19.16l.63.51.7.56c1.08.85,2.16,1.68,3.28,2.49l.39.28q1.8,1.29,3.64,2.51c.08,0,.15.1.22.14.9.58,1.79,1.17,2.71,1.73l.18.1,1,.57.21.13c.92.54,1.83,1.07,2.76,1.58l.73.37.43.23.42.21c.89.46,1.76.92,2.67,1.36l1.15.54.79.35c.8.37,1.59.74,2.41,1.08.38.18.79.33,1.18.49l1.08.42,1.27.5c.31.12.62.26.92.36s.78.28,1.16.41l1.49.52c1,.33,2,.66,3,1,.7.22,1.4.4,2.1.59s1.65.47,2.48.69,1.9.44,2.86.65c.59.13,1.19.28,1.79.4,1.25.24,2.49.46,3.75.66.33.06.67.13,1,.17,1.52.24,3,.43,4.58.59l.29,0c1.6.16,3.2.27,4.82.36l.43,0c1,.06,2.09.07,3.15.09l2.14,0,1.28,0A99.81,99.81,0,0,0,120,198l.6-.14c1.36-.29,2.71-.59,4.06-.94l1.08-.29.06,0c.36-.09.73-.2,1.09-.31.78-.21,1.56-.42,2.33-.65l1.2-.39.76-.26c.44-.15.88-.28,1.32-.45s.82-.25,1.21-.4.83-.3,1.24-.45l1.5-.59,1.13-.45.56-.22,1.21-.51c.72-.31,1.43-.63,2.14-1q.38-.15.75-.33l.25-.11,1.15-.55c.89-.43,1.78-.89,2.65-1.34l.28-.15.2-.1,1.06-.57c1-.53,1.94-1.09,2.91-1.66L151,186c.32-.19.64-.37,1-.57,1-.6,2-1.22,2.91-1.85a1.82,1.82,0,0,0,.23-.15c.29-.18.57-.37.84-.56.95-.63,1.88-1.29,2.8-2l.36-.26c.25-.18.5-.36.74-.55.87-.64,1.72-1.3,2.56-2l.56-.45c.22-.18.45-.36.66-.55.77-.63,1.52-1.27,2.26-1.92.28-.23.54-.47.8-.7l.61-.55c.64-.59,1.29-1.19,1.92-1.8l1-1c.19-.19.39-.38.57-.58.54-.52,1.06-1.07,1.58-1.6l1.24-1.31c.18-.22.37-.43.57-.64.41-.45.81-.92,1.22-1.39s1-1.07,1.41-1.63c.18-.21.36-.45.53-.67,0,0,0,0,.06-.06l.9-1.12c.5-.63,1-1.27,1.51-1.92l.39-.55.26-.35c.21-.28.42-.56.61-.85.53-.7,1-1.41,1.53-2.14.13-.19.25-.39.38-.57l.3-.46c.15-.23.3-.45.44-.68.51-.76,1-1.52,1.49-2.3.15-.26.3-.54.47-.79l.16-.29c.14-.23.27-.46.4-.69.46-.77.92-1.54,1.36-2.34l.59-1.12.44-.85c.4-.74.79-1.48,1.16-2.24.2-.39.37-.79.56-1.19s.34-.76.52-1.15c.31-.65.62-1.3.92-2l.5-1.23c.19-.45.37-.91.55-1.37l.46-1.15c.09-.24.19-.45.28-.69.15-.39.28-.79.43-1.2.21-.59.41-1.18.61-1.77.31-.9.61-1.79.9-2.7s.46-1.55.67-2.32.43-1.48.61-2.23c.27-1,.5-2,.72-3,.13-.53.26-1.06.38-1.59.26-1.28.49-2.57.71-3.85,0-.29.1-.58.15-.88.24-1.53.45-3.07.62-4.62a1.64,1.64,0,0,1,0-.22,100.3,100.3,0,0,0,.06-21.15"/><path class="cls-1" d="M166.72,94.83c.13,1.7.22,3.43.22,5.18A66.94,66.94,0,1,1,100,33.06c2.11,0,4.19.12,6.24.3a98.13,98.13,0,0,1-3-10.84c-1.06,0-2.12-.09-3.19-.09A77.57,77.57,0,1,0,177.56,100c0-.67,0-1.32-.05-2a99.4,99.4,0,0,1-10.79-3.2"/></g></g></g></svg>