<svg id="newsfeed" xmlns="http://www.w3.org/2000/svg" width="14.358" height="21.254" viewBox="0 0 14.358 21.254">
  <path id="Tracé_9707" data-name="Tracé 9707" d="M12.889,22.67h10.58a1.891,1.891,0,0,0,1.889-1.889V3.306a1.891,1.891,0,0,0-1.889-1.889H12.889A1.891,1.891,0,0,0,11,3.306V20.781a1.891,1.891,0,0,0,1.889,1.889Zm10.58-.756H12.889a1.134,1.134,0,0,1-1.134-1.134v-3.4H24.6v3.4A1.134,1.134,0,0,1,23.469,21.915Zm-11.713-5.29V7.557H24.6v9.068ZM12.889,2.172h10.58A1.134,1.134,0,0,1,24.6,3.306V6.8H11.756v-3.5A1.134,1.134,0,0,1,12.889,2.172Z" transform="translate(-11 -1.416)" fill="#4ad3b0"/>
  <path id="Tracé_9708" data-name="Tracé 9708" d="M17.134,11.267A1.134,1.134,0,1,0,16,10.134,1.134,1.134,0,0,0,17.134,11.267Zm0-1.511a.378.378,0,1,1-.378.378A.378.378,0,0,1,17.134,9.756Z" transform="translate(-14.111 -7.016)" fill="#4ad3b0"/>
  <path id="Tracé_9709" data-name="Tracé 9709" d="M17.134,49a1.134,1.134,0,1,0,1.134,1.134A1.134,1.134,0,0,0,17.134,49Zm0,1.511a.378.378,0,1,1,.378-.378A.378.378,0,0,1,17.134,50.511Z" transform="translate(-14.111 -31.902)" fill="#4ad3b0"/>
  <path id="Tracé_9710" data-name="Tracé 9710" d="M26.293,29.141l-2.55-2.869a.78.78,0,0,0-1.129,0L20.14,29.056l-.961-.959a.756.756,0,0,0-1.069,0l-1.778,1.776a1.126,1.126,0,0,0-.332.8v.634a.756.756,0,0,0,.756.756h9.068a.756.756,0,0,0,.756-.756V29.894A1.134,1.134,0,0,0,26.293,29.141Zm-.469,2.168H16.756v-.634a.38.38,0,0,1,.111-.267l1.778-1.778.961.961a.814.814,0,0,0,.556.221.76.76,0,0,0,.543-.254l2.474-2.783,2.549,2.868a.378.378,0,0,1,.1.251Z" transform="translate(-14.111 -17.612)" fill="#4ad3b0"/>
  <path id="Tracé_9711" data-name="Tracé 9711" d="M17.322,25.645A1.322,1.322,0,1,0,16,24.322a1.322,1.322,0,0,0,1.322,1.322Zm0-1.889a.567.567,0,1,1-.567.567A.567.567,0,0,1,17.322,23.756Z" transform="translate(-14.111 -15.726)" fill="#4ad3b0"/>
  <path id="Tracé_9712" data-name="Tracé 9712" d="M25.378,9.756H28.4A.378.378,0,1,0,28.4,9H25.378a.378.378,0,0,0,0,.756Z" transform="translate(-19.71 -7.016)" fill="#4ad3b0"/>
  <path id="Tracé_9713" data-name="Tracé 9713" d="M25.378,13.756h1.889a.378.378,0,0,0,0-.756H25.378a.378.378,0,1,0,0,.756Z" transform="translate(-19.71 -9.505)" fill="#4ad3b0"/>
  <path id="Tracé_9714" data-name="Tracé 9714" d="M28.4,49H25.378a.378.378,0,1,0,0,.756H28.4a.378.378,0,1,0,0-.756Z" transform="translate(-19.71 -31.902)" fill="#4ad3b0"/>
  <path id="Tracé_9715" data-name="Tracé 9715" d="M27.267,53H25.378a.378.378,0,1,0,0,.756h1.889a.378.378,0,0,0,0-.756Z" transform="translate(-19.71 -34.391)" fill="#4ad3b0"/>
</svg>
