<?xml version="1.0" encoding="UTF-8"?><svg id="Calque_2" xmlns="http://www.w3.org/2000/svg" viewBox="0 0 426.7 512.1"><g id="Layer_1"><path d="m383,118.2l-74.5-74.5C280.4,15.6,242.8,0,202.9,0h-96.2C47.8,0,0,47.8,0,106.7v298.7c0,58.9,47.8,106.7,106.7,106.7h213.3c58.9,0,106.7-47.8,106.7-106.7v-181.6c0-39.9-15.5-77.5-43.7-105.6Zm-30.1,30.1c6.8,6.8,12.6,14.3,17.3,22.4h-92.6c-11.7,0-21.3-9.6-21.3-21.3V56.7c8.1,4.7,15.6,10.5,22.4,17.3l74.5,74.5-.3-.2Zm31.2,257c0,35.2-28.8,64-64,64H106.8c-35.2,0-64-28.8-64-64V106.7c0-35.2,28.8-64,64-64h96.2c3.4,0,7,0,10.5.4v106.2c0,35.2,28.8,64,64,64h106.2c.4,3.4.4,6.8.4,10.5v181.5h0Z"/><path d="m114.45,388.29h-20.23v30.86c0,4.41-1.04,7.76-3.12,10.04-2.08,2.28-4.71,3.42-7.88,3.42s-6-1.13-8.03-3.38c-2.03-2.26-3.05-5.57-3.05-9.93v-84.04c0-4.86,1.12-8.33,3.35-10.41,2.23-2.08,5.78-3.12,10.64-3.12h28.34c8.38,0,14.82.65,19.34,1.93,4.46,1.24,8.32,3.3,11.56,6.17,3.25,2.88,5.71,6.4,7.4,10.56,1.69,4.17,2.53,8.85,2.53,14.06,0,11.11-3.42,19.52-10.26,25.25s-17.03,8.59-30.57,8.59Zm-5.35-49.98h-14.87v33.32h14.87c5.21,0,9.56-.54,13.05-1.64,3.5-1.09,6.16-2.88,8-5.35,1.83-2.48,2.75-5.73,2.75-9.74,0-4.81-1.41-8.73-4.24-11.75-3.17-3.22-9.69-4.83-19.56-4.83Z"/><path d="m187.41,321.73h28.78c7.49,0,13.91.7,19.26,2.08,5.35,1.39,10.21,3.99,14.58,7.81,11.35,9.72,17.03,24.49,17.03,44.33,0,6.54-.57,12.52-1.71,17.92-1.14,5.4-2.9,10.28-5.28,14.61-2.38,4.34-5.43,8.22-9.15,11.64-2.93,2.63-6.12,4.74-9.59,6.32-3.47,1.59-7.2,2.7-11.19,3.35-3.99.64-8.49.97-13.5.97h-28.78c-4.02,0-7.04-.61-9.07-1.82-2.03-1.21-3.36-2.92-3.98-5.13-.62-2.21-.93-5.07-.93-8.59v-79.95c0-4.76,1.07-8.21,3.2-10.34s5.58-3.2,10.34-3.2Zm8.55,17.48v74h16.73c3.67,0,6.54-.1,8.63-.3,2.08-.2,4.24-.69,6.47-1.49,2.23-.79,4.17-1.91,5.8-3.35,7.39-6.25,11.08-17.01,11.08-32.28,0-10.76-1.62-18.82-4.87-24.17-3.25-5.35-7.25-8.76-12.01-10.23-4.76-1.46-10.51-2.19-17.25-2.19h-14.58Z"/><path d="m351.62,338.76h-43.51v27.89h36.37c3.37,0,5.89.76,7.55,2.27,1.66,1.51,2.49,3.53,2.49,6.06s-.84,4.54-2.53,6.02c-1.69,1.49-4.19,2.23-7.51,2.23h-36.37v35.92c0,4.56-1.03,7.95-3.09,10.15-2.06,2.21-4.7,3.31-7.92,3.31s-5.94-1.12-7.99-3.35c-2.06-2.23-3.09-5.6-3.09-10.12v-83.89c0-3.17.47-5.76,1.41-7.77.94-2.01,2.42-3.47,4.43-4.39,2.01-.92,4.57-1.38,7.7-1.38h52.06c3.52,0,6.14.78,7.85,2.34,1.71,1.56,2.57,3.61,2.57,6.14s-.86,4.65-2.57,6.21c-1.71,1.56-4.33,2.34-7.85,2.34Z"/></g></svg>