<svg xmlns="http://www.w3.org/2000/svg" width="20" height="14.194" viewBox="0 0 20 14.194"><defs><style>.a{fill:#2f3758;}</style></defs><g transform="translate(0 0)"><path class="a" d="M42.891,58.7a2.3,2.3,0,1,1,2.32-2.3A2.312,2.312,0,0,1,42.891,58.7Zm0-3.952A1.654,1.654,0,1,0,44.565,56.4,1.666,1.666,0,0,0,42.891,54.751Zm0,0" transform="translate(-38.935 -51.924)"/><path class="a" d="M4.889,187.678H.843A.841.841,0,0,1,0,186.84v-1.055a3.964,3.964,0,0,1,6.317-3.143.323.323,0,0,1-.383.519,3.319,3.319,0,0,0-5.289,2.624v1.055a.2.2,0,0,0,.2.193H4.89a.323.323,0,1,1,0,.645Zm0,0" transform="translate(0 -174.534)"/><path class="a" d="M338.608,181.627h-4.046a.323.323,0,0,1,0-.645h4.047a.2.2,0,0,0,.2-.192v-1.055a3.3,3.3,0,0,0-3.311-3.272,3.341,3.341,0,0,0-2.1.74.323.323,0,1,1-.406-.5,3.988,3.988,0,0,1,2.5-.883,3.941,3.941,0,0,1,3.956,3.918v1.055a.841.841,0,0,1-.843.838Zm0,0" transform="translate(-319.451 -168.727)"/><path class="a" d="M342.672,54.75a2.3,2.3,0,1,1,2.32-2.3A2.312,2.312,0,0,1,342.672,54.75Zm0-3.952a1.654,1.654,0,1,0,1.675,1.654A1.666,1.666,0,0,0,342.672,50.8Zm0,0" transform="translate(-326.628 -48.131)"/><path class="a" d="M123.073,163.742h-8.756a1.052,1.052,0,0,1-1.055-1.047V161.21a5.433,5.433,0,0,1,10.866,0v1.484a1.052,1.052,0,0,1-1.055,1.047Zm-4.378-7.265a4.766,4.766,0,0,0-4.788,4.734v1.484a.406.406,0,0,0,.41.4h8.756a.406.406,0,0,0,.41-.4v-1.484a4.766,4.766,0,0,0-4.788-4.734Zm0,0" transform="translate(-108.695 -149.548)"/><path class="a" d="M174.263,5.906a2.971,2.971,0,0,1-2.981-2.953,2.982,2.982,0,0,1,5.963,0,2.971,2.971,0,0,1-2.982,2.953Zm0-5.261a2.325,2.325,0,0,0-2.336,2.308,2.336,2.336,0,0,0,4.673,0A2.325,2.325,0,0,0,174.263.645Zm0,0" transform="translate(-164.375)"/></g></svg>