<svg width="20px" height="20px" viewBox="0 0 20 20" version="1.1" xmlns="http://www.w3.org/2000/svg" xmlns:xlink="http://www.w3.org/1999/xlink">
    <g stroke="none" stroke-width="1" fill="none" fill-rule="evenodd">
        <g transform="translate(0.000000, -1.000000)" fill="#2F3758" fill-rule="nonzero">
            <path d="M19.295,6.938 L14.055,1.689 C13.4578198,1.08491972 12.582548,0.84749782 11.7619661,1.06700301 C10.9413842,1.2865082 10.3015478,1.9292207 10.0857251,2.75077879 C9.86990241,3.57233688 10.1112475,4.44653511 10.718,5.041 L10.918,5.241 L8.078,8.081 C5.32304997,7.16111872 2.28481275,7.87827591 0.232,9.933 C-0.0673170082,10.2385821 -0.0673170082,10.7274179 0.232,11.033 L4.552,15.353 L1.352,18.553 C1.05214879,18.8583639 1.05214879,19.3476361 1.352,19.653 C1.65602615,19.9561052 2.14797385,19.9561052 2.452,19.653 L5.652,16.453 L9.972,20.773 C10.1171909,20.9168515 10.3136168,20.9970768 10.518,20.9960107 C10.7236943,20.996234 10.9213688,20.9162314 11.069,20.773 C12.1111818,19.7331726 12.8289201,18.4130343 13.135,16.973 C13.4384739,15.6287443 13.3661674,14.226899 12.926,12.921 L15.766,10.081 L15.966,10.281 C16.8906491,11.1995573 18.3833509,11.1995573 19.308,10.281 C19.7553633,9.840815 20.0075122,9.23961179 20.008,8.612 C20.0007749,7.98172703 19.744449,7.37991834 19.295,6.938 L19.295,6.938 Z M11.285,13.038 C12.073343,15.0075968 11.8018415,17.2433355 10.565,18.967 C10.543076,19.0010255 10.505476,19.0217054 10.465,19.022 C10.4228383,19.0272032 10.3806671,19.0124063 10.351,18.982 L2.013,10.644 C1.98346365,10.6134789 1.96727454,10.5724665 1.96797663,10.53 C1.9701702,10.4863721 1.99229936,10.4461708 2.028,10.421 C3.06333704,9.65258198 4.31866363,9.23811381 5.608,9.239 C6.41314212,9.23976024 7.21039001,9.3977152 7.955,9.704 C8.24731301,9.82884894 8.58627004,9.76177196 8.809,9.535 L12.555,5.791 C12.7057346,5.64216324 12.7867037,5.43665432 12.778,5.225 C12.7721654,5.02645347 12.6926767,4.83717779 12.555,4.694 L11.81,3.949 C11.49484,3.62966524 11.49484,3.11633476 11.81,2.797 C11.9618333,2.64439369 12.168228,2.55859508 12.3835,2.55859508 C12.598772,2.55859508 12.8051667,2.64439369 12.957,2.797 L18.201,8.041 C18.3824697,8.22285019 18.4674413,8.47969655 18.4302274,8.73389309 C18.3930135,8.98808964 18.2379821,9.2098 18.012,9.332 C17.6863815,9.49904807 17.2899312,9.43459449 17.034,9.173 L16.304,8.438 C15.9986361,8.13814879 15.5093639,8.13814879 15.204,8.438 L11.455,12.182 C11.231423,12.4064027 11.164402,12.7430847 11.285,13.036 L11.285,13.038 Z"></path>
        </g>
    </g>
</svg>
