<svg id="play-circle" xmlns="http://www.w3.org/2000/svg" width="24" height="24" viewBox="0 0 24 24">
  <path id="play-circle-2" data-name="play-circle" d="M16.4,10.122,11.2,7.279A2.148,2.148,0,0,0,8,9.151v5.7a2.143,2.143,0,0,0,3.192,1.878l5.212-2.854a2.148,2.148,0,0,0-.009-3.751Zm-.961,2L10.222,14.98A.148.148,0,0,1,10,14.851v-5.7a.138.138,0,0,1,.074-.128A.142.142,0,0,1,10.149,9a.169.169,0,0,1,.083.026l5.192,2.844a.15.15,0,0,1,.01.255ZM12,0A12,12,0,1,0,24,12,12.013,12.013,0,0,0,12,0Zm0,22A10,10,0,1,1,22,12,10.011,10.011,0,0,1,12,22Z" fill="#4ad3b0"/>
</svg>
