<?xml version="1.0" encoding="UTF-8"?><svg id="Calque_2" xmlns="http://www.w3.org/2000/svg" viewBox="0 0 426.7 512.1"><g id="Layer_1"><path d="m382.9,118.2l-74.5-74.5C280.3,15.6,242.7,0,202.8,0h-96.2C47.7,0,0,47.8,0,106.7v298.7c0,58.9,47.8,106.7,106.7,106.7h213.3c58.9,0,106.7-47.8,106.7-106.7v-181.6c-.1-39.9-15.6-77.5-43.8-105.6Zm-30.1,30.1c6.8,6.8,12.6,14.3,17.3,22.4h-92.6c-11.7,0-21.3-9.6-21.3-21.3V56.7c8.1,4.7,15.6,10.5,22.4,17.3l74.5,74.5-.3-.2Zm31.2,257c0,35.2-28.8,64-64,64H106.7c-35.2,0-64-28.8-64-64V106.7c0-35.2,28.8-64,64-64h96.2c3.4,0,7,0,10.5.4v106.2c0,35.2,28.8,64,64,64h106.2c.4,3.4.4,6.8.4,10.5,0,0,0,181.5,0,181.5Z"/><path d="m109.96,388.29h-20.23v30.86c0,4.41-1.04,7.76-3.12,10.04-2.08,2.28-4.71,3.42-7.88,3.42s-6-1.13-8.03-3.38c-2.03-2.26-3.05-5.57-3.05-9.93v-84.04c0-4.86,1.12-8.33,3.35-10.41,2.23-2.08,5.78-3.12,10.64-3.12h28.34c8.38,0,14.82.65,19.34,1.93,4.46,1.24,8.32,3.3,11.56,6.17,3.25,2.88,5.71,6.4,7.4,10.56,1.69,4.17,2.53,8.85,2.53,14.06,0,11.11-3.42,19.52-10.26,25.25s-17.03,8.59-30.57,8.59Zm-5.35-49.98h-14.87v33.32h14.87c5.21,0,9.56-.54,13.05-1.64,3.5-1.09,6.16-2.88,8-5.35,1.83-2.48,2.75-5.73,2.75-9.74,0-4.81-1.41-8.73-4.24-11.75-3.17-3.22-9.69-4.83-19.56-4.83Z"/><path d="m191.17,333.11l42.47,64.26v-64.85c0-4.21.9-7.37,2.71-9.48,1.81-2.11,4.25-3.16,7.33-3.16s5.68,1.05,7.51,3.16c1.83,2.11,2.75,5.27,2.75,9.48v85.75c0,9.57-3.97,14.35-11.9,14.35-1.98,0-3.77-.29-5.35-.86-1.59-.57-3.07-1.47-4.46-2.71-1.39-1.24-2.68-2.69-3.87-4.35-1.19-1.66-2.38-3.36-3.57-5.09l-41.43-63.51v63.89c0,4.17-.97,7.31-2.9,9.45-1.93,2.13-4.41,3.2-7.44,3.2s-5.63-1.08-7.51-3.24c-1.89-2.16-2.83-5.29-2.83-9.41v-84.12c0-3.57.4-6.37,1.19-8.4.94-2.23,2.5-4.05,4.69-5.47,2.18-1.41,4.54-2.12,7.06-2.12,1.98,0,3.68.32,5.09.97,1.41.65,2.65,1.51,3.72,2.6,1.07,1.09,2.16,2.5,3.27,4.24,1.12,1.74,2.27,3.54,3.46,5.43Z"/><path d="m370.84,386.43v20.9c0,2.78-.27,5-.82,6.66-.54,1.66-1.55,3.16-3.01,4.5s-3.33,2.63-5.62,3.87c-6.59,3.57-12.94,6.17-19.04,7.81-6.1,1.64-12.74,2.45-19.93,2.45-8.38,0-16.02-1.29-22.91-3.87-6.89-2.58-12.77-6.32-17.63-11.23-4.86-4.91-8.59-10.86-11.19-17.85s-3.9-14.8-3.9-23.43,1.26-16.24,3.79-23.28c2.53-7.04,6.25-13.01,11.16-17.92,4.91-4.91,10.88-8.66,17.92-11.27,7.04-2.6,15.02-3.91,23.95-3.91,7.34,0,13.83.98,19.49,2.94,5.65,1.96,10.24,4.43,13.76,7.4,3.52,2.97,6.17,6.12,7.96,9.45,1.79,3.32,2.68,6.27,2.68,8.85,0,2.78-1.03,5.14-3.09,7.1-2.06,1.96-4.52,2.94-7.4,2.94-1.59,0-3.11-.37-4.57-1.12-1.46-.74-2.69-1.79-3.68-3.12-2.73-4.26-5.03-7.49-6.92-9.67-1.88-2.18-4.43-4.02-7.62-5.5-3.2-1.49-7.28-2.23-12.23-2.23s-9.67.88-13.68,2.64c-4.02,1.76-7.45,4.31-10.3,7.66-2.85,3.35-5.03,7.45-6.54,12.31-1.51,4.86-2.27,10.24-2.27,16.14,0,12.79,2.94,22.63,8.81,29.53,5.88,6.89,14.07,10.34,24.58,10.34,5.11,0,9.9-.67,14.39-2.01,4.49-1.34,9.04-3.25,13.65-5.73v-17.7h-17.11c-4.12,0-7.23-.62-9.33-1.86-2.11-1.24-3.16-3.35-3.16-6.32,0-2.43.88-4.44,2.64-6.02,1.76-1.59,4.15-2.38,7.18-2.38h25.06c3.07,0,5.68.27,7.81.82,2.13.55,3.85,1.76,5.17,3.64,1.31,1.88,1.97,4.71,1.97,8.48Z"/></g></svg>