<svg width="163px" height="163px" viewBox="0 0 163 163" version="1.1" xmlns="http://www.w3.org/2000/svg" xmlns:xlink="http://www.w3.org/1999/xlink">
    <g stroke="none" stroke-width="1" fill="none" fill-rule="evenodd">
        <g fill-rule="nonzero">
            <g transform="translate(39.572000, 39.572000)" fill="#2F3758">
                <path d="M41.8,0.2 C18.9,0.2 0.2,18.8 0.2,41.8 C0.2,64.8 18.8,83.4 41.8,83.4 C64.8,83.4 83.4,64.8 83.4,41.8 C83.3,18.9 64.6,0.3 41.8,0.2 Z M64.4,70.5 C58,75.6 49.9,78.4 41.8,78.4 C41.7,78.4 41.7,78.4 41.7,78.4 C33.5,78.4 25.4,75.6 19,70.5 C18,69.7 17.8,68.4 18.4,67.4 C25.8,54.5 42.3,50.2 55.2,57.6 C59.2,60 62.6,63.3 65,67.4 C65.7,68.5 65.4,69.8 64.4,70.5 Z M29.5,36.9 C29.5,30.2 35,24.7 41.7,24.7 C48.4,24.7 53.9,30.2 53.9,36.9 C53.9,43.6 48.5,49.1 41.7,49.1 C35,49.1 29.5,43.6 29.5,36.9 Z M69.9,63.7 C69,63.7 68.2,63.2 67.7,62.4 C64.6,57.9 60.3,54.3 55.3,52 C54.6,51.7 54.1,51 53.9,50.3 C53.8,49.5 54,48.8 54.5,48.2 C57.5,44.7 59.1,40.3 58.8,35.8 C58.5,31.2 56.5,27 53.1,24 C49.7,21 45.3,19.4 40.7,19.7 C36.2,20 32,22 29,25.4 C23.2,31.9 23.2,41.7 29,48.3 C29.6,48.9 29.8,49.6 29.6,50.4 C29.5,51.2 29,51.8 28.3,52.1 C23.3,54.4 18.9,58.1 15.8,62.7 C15.3,63.3 14.5,63.7 13.8,63.7 C13,63.7 12.3,63.3 11.8,62.7 C6.2,54.6 4.1,44.9 5.8,35.3 C7.5,25.6 12.9,17.2 21,11.7 C29,6.1 38.7,4 48.4,5.7 C58,7.4 66.4,12.8 72,20.8 C80.7,33.2 80.8,50 72.1,62.5 C71.5,63.2 70.8,63.7 69.9,63.7 Z"></path>
            </g>
            <g fill="#4AD3B0">
                <path d="M160.2,69.2 C160.2,69.1 160.2,69.1 160.2,69.2 L147.3,67 C146.3,66.9 145.6,66.2 145.3,65.2 C143.8,58.9 141.3,53 138,47.5 C137.4,46.7 137.5,45.6 138.1,44.9 L145.5,34.4 C146.2,33.4 146.1,32.1 145.3,31.3 L131.5,17.5 C130.7,16.7 129.3,16.5 128.3,17.2 L117.9,24.7 C117.1,25.3 116.1,25.3 115.3,24.8 C109.7,21.5 103.8,19 97.6,17.5 C96.6,17.2 95.9,16.5 95.8,15.5 L93.5,2.4 C93.4,1.1 92.3,0.3 91.1,0.3 L71.5,0.3 C70.3,0.3 69.3,1.1 69.1,2.4 L67,15.4 C66.9,16.4 66.2,17.1 65.2,17.4 C58.9,18.9 53,21.4 47.5,24.7 C46.7,25.2 45.6,25.2 44.9,24.6 L34.4,17.1 C33.4,16.4 32.1,16.5 31.3,17.4 L17.4,31.2 C16.6,32 16.4,33.4 17.1,34.3 L24.6,44.8 C25.2,45.6 25.2,46.6 24.7,47.4 C21.4,53 18.9,58.9 17.4,65.1 C17.1,66.1 16.4,66.8 15.4,66.9 L2.4,69.1 C1.1,69.3 0.3,70.4 0.3,71.5 L0.3,91.1 C0.3,92.3 1.1,93.3 2.4,93.5 L15.3,95.7 C16.3,95.8 17,96.5 17.3,97.5 C18.8,103.8 21.3,109.7 24.6,115.2 C25.2,116 25.1,117.1 24.5,117.8 L17,128.2 C16.3,129.2 16.4,130.6 17.3,131.4 L31.1,145.2 C31.9,146 33.3,146.2 34.2,145.5 L44.7,138 C45.1,137.7 45.6,137.6 46.1,137.6 C46.5,137.6 47,137.7 47.4,137.9 C53,141.2 58.9,143.7 65.1,145.2 C66.1,145.5 66.8,146.2 66.9,147.2 L69,160.1 C69.2,161.4 70.3,162.2 71.4,162.2 L91,162.2 C92.2,162.2 93.2,161.4 93.4,160.1 L95.6,147.2 C95.7,146.2 96.4,145.5 97.4,145.2 C103.6,143.7 109.6,141.2 115.1,137.9 C115.9,137.4 117,137.4 117.7,138 L128.1,145.4 C129.1,146.1 130.4,146 131.3,145.2 L145.1,131.4 C145.9,130.5 146.1,129.2 145.4,128.2 L137.9,117.8 C137.3,117 137.3,115.9 137.8,115.1 C141.1,109.6 143.6,103.6 145.1,97.4 C145.4,96.4 146.1,95.7 147.1,95.6 L160,93.4 C161.2,93.2 162.1,92.2 162.1,91 L162.1,71.5 C162.3,70.3 161.5,69.3 160.2,69.2 Z M157.4,87 C157.4,88.2 156.6,89.2 155.4,89.4 L143.2,91.4 C142.2,91.5 141.4,92.4 141.2,93.3 C139.7,101.2 136.6,108.6 132.1,115.3 C131.5,116.1 131.6,117.2 132.2,118.1 L139.2,127.8 C139.8,128.8 139.8,130.1 138.9,130.9 L130.9,138.9 C130.1,139.7 128.7,139.8 127.8,139.2 L118.1,132.2 C117.3,131.6 116.1,131.6 115.2,132.1 C108.6,136.6 101.2,139.7 93.3,141.3 C92.3,141.4 91.5,142.3 91.4,143.2 L89.4,155.4 C89.2,156.6 88.2,157.4 87,157.4 L75.7,157.4 C74.5,157.4 73.5,156.6 73.3,155.4 L71.3,143.2 C71.2,142.2 70.3,141.4 69.4,141.2 C61.5,139.7 54.1,136.6 47.4,132.1 C46.6,131.6 45.5,131.6 44.6,132.2 L34.9,139.2 C33.9,139.8 32.6,139.8 31.8,138.9 L23.8,130.9 C23,130.1 22.9,128.7 23.6,127.8 L30.6,118.1 C31.2,117.3 31.2,116.2 30.6,115.2 C26.2,108.5 23.1,101.2 21.5,93.3 C21.4,92.3 20.5,91.5 19.6,91.4 L7.4,89.4 C6.2,89.2 5.4,88.2 5.4,87 L5.4,75.7 C5.4,74.5 6.2,73.5 7.4,73.3 L19.6,71.3 C20.6,71.2 21.4,70.3 21.5,69.4 C23.1,61.5 26.2,54.1 30.7,47.4 C31.3,46.6 31.2,45.5 30.6,44.6 L23.6,34.9 C22.9,33.9 23,32.6 23.8,31.8 L31.8,23.8 C32.6,23 34,22.9 34.9,23.6 L44.6,30.6 C45.4,31.2 46.5,31.2 47.5,30.6 C54.2,26.2 61.5,23.1 69.4,21.5 C70.4,21.4 71.2,20.5 71.3,19.6 L73.3,7.4 C73.4,6.2 74.5,5.4 75.7,5.4 L87,5.4 C88.2,5.4 89.2,6.2 89.4,7.4 L91.4,19.6 C91.5,20.6 92.4,21.4 93.3,21.5 C101.2,23.1 108.6,26.2 115.3,30.7 C116.1,31.3 117.2,31.3 118.1,30.6 L127.8,23.6 C128.8,22.9 130.1,23 130.9,23.8 L138.9,31.8 C139.7,32.6 139.9,34 139.2,34.9 L132.2,44.6 C131.6,45.4 131.6,46.5 132.1,47.5 C136.6,54.1 139.7,61.5 141.3,69.4 C141.4,70.4 142.3,71.2 143.2,71.3 L155.4,73.3 C156.6,73.4 157.4,74.5 157.4,75.7 L157.4,87 Z"></path>
            </g>
        </g>
    </g>
</svg>
