<svg xmlns="http://www.w3.org/2000/svg" width="54.647" height="37.57" viewBox="0 0 54.647 37.57"><defs><style>.a{fill:#2f3758;}.b{fill:#4ad3b0;}</style></defs><path class="a" d="M53.794,40.739H51.232V14.269A4.274,4.274,0,0,0,46.963,10H7.685a4.274,4.274,0,0,0-4.269,4.269v26.47H.854A.854.854,0,0,0,0,41.593V43.3A4.274,4.274,0,0,0,4.269,47.57H50.378A4.274,4.274,0,0,0,54.647,43.3V41.593A.854.854,0,0,0,53.794,40.739ZM5.123,14.269a2.562,2.562,0,0,1,2.562-2.562H46.963a2.562,2.562,0,0,1,2.562,2.562v26.47H5.123ZM32.447,42.447a.854.854,0,0,1-.854.854H23.054a.854.854,0,0,1-.854-.854ZM52.94,43.3a2.562,2.562,0,0,1-2.562,2.562H4.269A2.562,2.562,0,0,1,1.708,43.3v-.854H20.493a2.562,2.562,0,0,0,2.562,2.562h8.539a2.562,2.562,0,0,0,2.562-2.562H52.94Z" transform="translate(0 -10)"/><path class="b" d="M40.931,38.487a.854.854,0,0,0,.562-.8V30.854a.854.854,0,1,0-1.708,0V37.08a25.872,25.872,0,0,1-17.077,0V30.854a.854.854,0,0,0-1.708,0v6.831a.854.854,0,0,0,.562.8,27.628,27.628,0,0,0,19.369,0Z" transform="translate(-3.069 -12.923)"/><path class="b" d="M14.415,26.442V24.094l13.893,5.119a4.275,4.275,0,0,0,2.953,0L46.3,23.67a.854.854,0,0,0,0-1.6L31.261,16.526a4.282,4.282,0,0,0-2.953,0L13.266,22.069a.854.854,0,0,0-.558.8v3.573A2.562,2.562,0,0,0,11,28.847v1.708a.854.854,0,0,0,.854.854h3.415a.854.854,0,0,0,.854-.854V28.847A2.562,2.562,0,0,0,14.415,26.442ZM28.9,18.129a2.568,2.568,0,0,1,1.771,0l12.868,4.741L30.671,27.61a2.568,2.568,0,0,1-1.771,0L16.032,22.869ZM14.415,29.7H12.708v-.854a.854.854,0,1,1,1.708,0Z" transform="translate(-1.607 -10.915)"/></svg>