<?xml version="1.0" encoding="UTF-8"?><svg id="Calque_2" xmlns="http://www.w3.org/2000/svg" viewBox="0 0 426.7 512.1"><g id="Layer_1"><path d="m383,118.2l-74.5-74.5C280.4,15.6,242.8,0,202.9,0h-96.2C47.8,0,0,47.8,0,106.7v298.7c0,58.9,47.8,106.7,106.7,106.7h213.3c58.9,0,106.7-47.8,106.7-106.7v-181.6c0-39.9-15.5-77.5-43.7-105.6Zm-30.1,30.1c6.8,6.8,12.6,14.3,17.3,22.4h-92.6c-11.7,0-21.3-9.6-21.3-21.3V56.7c8.1,4.7,15.6,10.5,22.4,17.3l74.5,74.5-.3-.2Zm31.2,257c0,35.2-28.8,64-64,64H106.8c-35.2,0-64-28.8-64-64V106.7c0-35.2,28.8-64,64-64h96.2c3.4,0,7,0,10.5.4v106.2c0,35.2,28.8,64,64,64h106.2c.4,3.4.4,6.8.4,10.5v181.5h0Z"/><path d="m154.91,339.95h-24.1v79.21c0,4.56-1.02,7.95-3.05,10.15-2.03,2.21-4.66,3.31-7.88,3.31s-5.94-1.12-8-3.35c-2.06-2.23-3.09-5.6-3.09-10.12v-79.21h-24.1c-3.77,0-6.57-.83-8.4-2.49-1.83-1.66-2.75-3.85-2.75-6.58s.95-5.06,2.86-6.69c1.91-1.64,4.67-2.45,8.29-2.45h70.21c3.82,0,6.66.84,8.52,2.53s2.79,3.89,2.79,6.62-.94,4.92-2.83,6.58c-1.88,1.66-4.71,2.49-8.48,2.49Z"/><path d="m175.28,409.56l24.39-35.62-20.53-31.68c-1.93-3.07-3.38-5.71-4.35-7.92-.97-2.21-1.45-4.33-1.45-6.36s.93-3.95,2.79-5.61,4.13-2.49,6.81-2.49c3.07,0,5.47.91,7.18,2.71,1.71,1.81,4.08,5.17,7.1,10.08l16.36,26.48,17.48-26.48c1.44-2.23,2.66-4.14,3.68-5.73,1.02-1.59,2-2.9,2.94-3.94.94-1.04,2-1.82,3.16-2.34,1.16-.52,2.52-.78,4.05-.78,2.78,0,5.04.83,6.81,2.49,1.76,1.66,2.64,3.63,2.64,5.91,0,3.32-1.91,7.83-5.73,13.54l-21.49,32.13,23.13,35.62c2.08,3.12,3.59,5.71,4.54,7.77.94,2.06,1.41,4,1.41,5.84,0,1.74-.42,3.32-1.26,4.76-.84,1.44-2.03,2.58-3.57,3.42-1.54.84-3.27,1.26-5.21,1.26-2.08,0-3.84-.43-5.28-1.3-1.44-.87-2.6-1.95-3.5-3.24-.89-1.29-2.55-3.79-4.98-7.51l-19.19-30.19-20.38,31.09c-1.59,2.48-2.71,4.21-3.38,5.21-.67.99-1.48,1.96-2.42,2.9-.94.94-2.06,1.69-3.35,2.23-1.29.54-2.8.82-4.54.82-2.68,0-4.9-.82-6.66-2.45-1.76-1.64-2.64-4.02-2.64-7.14,0-3.67,1.81-8.16,5.43-13.46Z"/><path d="m342.1,339.95h-24.1v79.21c0,4.56-1.02,7.95-3.05,10.15-2.03,2.21-4.66,3.31-7.88,3.31s-5.94-1.12-8-3.35c-2.06-2.23-3.09-5.6-3.09-10.12v-79.21h-24.1c-3.77,0-6.57-.83-8.4-2.49-1.83-1.66-2.75-3.85-2.75-6.58s.95-5.06,2.86-6.69c1.91-1.64,4.67-2.45,8.29-2.45h70.21c3.82,0,6.66.84,8.52,2.53s2.79,3.89,2.79,6.62-.94,4.92-2.83,6.58c-1.88,1.66-4.71,2.49-8.48,2.49Z"/></g></svg>