<?xml version="1.0" encoding="UTF-8"?><svg id="Calque_2" xmlns="http://www.w3.org/2000/svg" viewBox="0 0 426.7 512.1"><g id="Layer_1"><path d="m382.9,118.2l-74.5-74.5C280.3,15.6,242.8,0,202.9,0h-96.2C47.8,0,0,47.8,0,106.7v298.7c0,58.9,47.8,106.7,106.7,106.7h213.3c58.9,0,106.7-47.8,106.7-106.7v-181.6c0-39.9-15.6-77.5-43.8-105.6Zm-30.1,30.1c6.8,6.8,12.6,14.3,17.3,22.4h-92.6c-11.7,0-21.3-9.6-21.3-21.3V56.7c8.1,4.7,15.6,10.5,22.4,17.3l74.5,74.5-.3-.2Zm31.2,257c0,35.2-28.8,64-64,64H106.7c-35.2,0-64-28.8-64-64V106.7c0-35.2,28.8-64,64-64h96.2c3.4,0,7,0,10.5.4v106.2c0,35.2,28.8,64,64,64h106.2c.4,3.4.4,6.8.4,10.5v181.5h0Z"/><path d="m78.41,409.56l24.39-35.62-20.53-31.68c-1.93-3.07-3.38-5.71-4.35-7.92-.97-2.21-1.45-4.33-1.45-6.36s.93-3.95,2.79-5.61,4.13-2.49,6.81-2.49c3.07,0,5.47.91,7.18,2.71,1.71,1.81,4.08,5.17,7.1,10.08l16.36,26.48,17.48-26.48c1.44-2.23,2.66-4.14,3.68-5.73,1.02-1.59,2-2.9,2.94-3.94.94-1.04,2-1.82,3.16-2.34,1.16-.52,2.52-.78,4.05-.78,2.78,0,5.04.83,6.81,2.49,1.76,1.66,2.64,3.63,2.64,5.91,0,3.32-1.91,7.83-5.73,13.54l-21.49,32.13,23.13,35.62c2.08,3.12,3.59,5.71,4.54,7.77.94,2.06,1.41,4,1.41,5.84,0,1.74-.42,3.32-1.26,4.76-.84,1.44-2.03,2.58-3.57,3.42-1.54.84-3.27,1.26-5.21,1.26-2.08,0-3.84-.43-5.28-1.3-1.44-.87-2.6-1.95-3.5-3.24-.89-1.29-2.55-3.79-4.98-7.51l-19.19-30.19-20.38,31.09c-1.59,2.48-2.71,4.21-3.38,5.21-.67.99-1.48,1.96-2.42,2.9-.94.94-2.06,1.69-3.35,2.23-1.29.54-2.8.82-4.54.82-2.68,0-4.9-.82-6.66-2.45-1.76-1.64-2.64-4.02-2.64-7.14,0-3.67,1.81-8.16,5.43-13.46Z"/><path d="m196.06,333.26v79.36h44.77c3.57,0,6.31.87,8.22,2.6,1.91,1.74,2.86,3.92,2.86,6.54s-.94,4.85-2.83,6.51c-1.89,1.66-4.64,2.49-8.26,2.49h-53.33c-4.81,0-8.27-1.07-10.38-3.2-2.11-2.13-3.16-5.58-3.16-10.34v-83.97c0-4.46,1-7.81,3.01-10.04,2.01-2.23,4.65-3.35,7.92-3.35s6.01,1.1,8.07,3.31c2.06,2.21,3.09,5.57,3.09,10.08Z"/><path d="m343.47,398.04c0,6.59-1.7,12.52-5.09,17.77-3.4,5.26-8.37,9.37-14.91,12.35-6.54,2.98-14.3,4.46-23.28,4.46-10.76,0-19.63-2.03-26.63-6.1-4.96-2.92-8.99-6.83-12.09-11.71-3.1-4.88-4.65-9.63-4.65-14.24,0-2.68.93-4.97,2.79-6.88,1.86-1.91,4.23-2.86,7.1-2.86,2.33,0,4.3.74,5.91,2.23,1.61,1.49,2.99,3.69,4.13,6.62,1.39,3.47,2.89,6.37,4.5,8.7,1.61,2.33,3.88,4.25,6.81,5.76,2.92,1.51,6.77,2.27,11.53,2.27,6.54,0,11.86-1.53,15.95-4.57,4.09-3.05,6.14-6.85,6.14-11.42,0-3.62-1.1-6.56-3.31-8.81-2.21-2.26-5.06-3.98-8.55-5.17-3.5-1.19-8.17-2.45-14.02-3.79-7.83-1.83-14.39-3.98-19.67-6.43-5.28-2.46-9.47-5.8-12.57-10.04-3.1-4.24-4.65-9.51-4.65-15.8s1.64-11.33,4.91-15.99c3.27-4.66,8.01-8.24,14.21-10.75,6.2-2.5,13.49-3.76,21.87-3.76,6.69,0,12.48.83,17.37,2.49,4.88,1.66,8.94,3.87,12.16,6.62,3.22,2.75,5.58,5.64,7.07,8.66,1.49,3.02,2.23,5.98,2.23,8.85,0,2.63-.93,5-2.79,7.1s-4.18,3.16-6.95,3.16c-2.53,0-4.45-.63-5.76-1.9-1.31-1.26-2.74-3.33-4.28-6.21-1.98-4.11-4.36-7.33-7.14-9.63-2.78-2.31-7.24-3.46-13.39-3.46-5.7,0-10.3,1.25-13.8,3.76-3.5,2.5-5.24,5.52-5.24,9.04,0,2.18.59,4.07,1.78,5.65s2.83,2.95,4.91,4.09c2.08,1.14,4.19,2.03,6.32,2.68,2.13.64,5.65,1.59,10.56,2.83,6.15,1.44,11.71,3.02,16.7,4.76,4.98,1.74,9.22,3.84,12.72,6.32,3.5,2.48,6.22,5.62,8.18,9.41,1.96,3.79,2.94,8.44,2.94,13.95Z"/></g></svg>