<svg id="Groupe_1791" data-name="Groupe 1791" xmlns="http://www.w3.org/2000/svg" width="40" height="40" viewBox="0 0 40 40">
  <g id="Groupe_915" data-name="Groupe 915">
    <path id="Tracé_9572" data-name="Tracé 9572" d="M20.8.8a20,20,0,1,0,20,20,19.995,19.995,0,0,0-20-20Z" transform="translate(-0.8 -0.8)" fill="#4ad3b0"/>
  </g>
  <path id="Ellipse_1406" data-name="Ellipse 1406" d="M-2.428-10A7.581,7.581,0,0,1,5.144-2.428,7.581,7.581,0,0,1-2.428,5.144,7.581,7.581,0,0,1-10-2.428,7.581,7.581,0,0,1-2.428-10Zm0,13.542a5.976,5.976,0,0,0,5.97-5.97A5.976,5.976,0,0,0-2.428-8.4,5.976,5.976,0,0,0-8.4-2.428,5.976,5.976,0,0,0-2.428,3.542Z" transform="translate(22.428 14.88)" fill="#fff"/>
  <path id="Tracé_9573" data-name="Tracé 9573" d="M117.255,283.616a.8.8,0,0,1-.8-.8,7.358,7.358,0,0,0-3.35-6.232,13.609,13.609,0,0,0-7.676-2.155c-5.31,0-11.026,2.625-11.026,8.387a.8.8,0,0,1-1.6,0c0-6.864,6.546-9.99,12.628-9.99s12.628,3.126,12.628,9.99A.8.8,0,0,1,117.255,283.616Z" transform="translate(-85.428 -251.028)" fill="#fff"/>
</svg>
