<svg width="200px" height="201px" viewBox="0 0 200 201" version="1.1" xmlns="http://www.w3.org/2000/svg" xmlns:xlink="http://www.w3.org/1999/xlink">
    <g stroke="none" stroke-width="1" fill="none" fill-rule="evenodd" opacity="0.044596">
        <g fill="#2F3758" fill-rule="nonzero">
            <path d="M184,46.32 C176.809237,35.2218361 167.501929,25.6494795 156.61,18.15 C161.188876,31.0888468 171.194792,41.379706 184,46.32"></path>
            <path d="M43.3,101 C43.3,121.256959 54.1069584,139.975162 71.6499997,150.103641 C89.1930409,160.232121 110.806959,160.232121 128.35,150.103641 C145.893042,139.975162 156.7,121.256959 156.7,101 C156.694949,97.2389668 156.319808,93.4875575 155.58,89.8 C151.175818,87.5642645 146.944132,85.0038601 142.92,82.14 C151.988924,102.800692 145.049914,126.990733 126.407979,139.702454 C107.766044,152.414175 82.7127404,150.039326 66.7913102,134.051279 C50.8698799,118.063232 48.5996574,93.0002306 61.3891043,74.4115341 C74.1785512,55.8228375 98.3973536,48.9848895 119.02,58.14 C116.173466,54.1002232 113.629851,49.8552935 111.41,45.44 C94.7184542,42.0259688 77.3762377,46.2929814 64.174448,57.0621995 C50.9726582,67.8314175 43.3087445,83.9628866 43.3,101"></path>
            <path d="M164.61,57.69 C177.61,66.69 194.55,68.03 194.55,68.03 L190.63,58.33 C148.43,48.56 144.75,11.18 144.75,11.18 C143.27,10 134.07,6.57 134.07,6.57 C134.07,11.4 136.32,19.38 136.32,19.38 C143.2,45.15 164.61,57.69 164.61,57.69"></path>
            <path d="M189,101.06 C189,104.092743 188.843024,107.123454 188.53,110.14 C188.53,110.14 188.53,110.21 188.53,110.25 C188.39,111.67 188.2,113.06 188,114.46 C187.994479,114.483007 187.994479,114.506993 188,114.53 C188,114.53 188,114.53 188,114.53 C187.547527,117.478382 186.946765,120.402089 186.2,123.29 L186.02,123.93 C185.72,125.08 185.4,126.21 185.02,127.33 C184.86,127.85 184.68,128.33 184.52,128.86 C184.26,129.67 183.98,130.46 183.7,131.24 C183.42,132.02 183.13,132.78 182.83,133.54 C182.63,134.05 182.43,134.54 182.22,135.07 C181.82,136.02 181.41,136.97 180.98,137.91 L180.98,137.97 C180.85,138.25 180.73,138.54 180.59,138.82 C180.12,139.82 179.59,140.82 179.11,141.82 C178.98,142.07 178.86,142.33 178.73,142.57 C178.2,143.57 177.65,144.57 177.09,145.57 L176.63,146.38 C176.08,147.3 175.5,148.2 174.92,149.1 C174.73,149.42 174.53,149.74 174.32,150.05 C173.78,150.88 173.21,151.68 172.64,152.49 C172.37,152.87 172.1,153.26 171.83,153.63 C171.3,154.34 170.77,155.04 170.23,155.72 C169.87,156.19 169.51,156.66 169.14,157.11 C168.77,157.56 168.14,158.26 167.69,158.84 C167.24,159.42 166.77,159.93 166.29,160.45 C165.81,160.97 165.44,161.38 165.01,161.85 L163.56,163.37 L163.2,163.74 C162.86,164.08 162.526667,164.413333 162.2,164.74 L160.8,166.08 C160.51,166.35 160.23,166.63 159.93,166.89 L159.21,167.54 C158.79,167.91 158.36,168.28 157.92,168.64 C157.48,169 157,169.46 156.52,169.84 L156.06,170.22 C155.69,170.52 155.32,170.8 154.95,171.09 C154.3,171.59 153.66,172.09 153,172.59 L152.71,172.8 C152.43,173.01 152.13,173.21 151.85,173.41 C151.05,173.99 150.25,174.55 149.44,175.09 L149.15,175.29 L148.61,175.64 C147.69,176.23 146.76,176.82 145.82,177.39 C145.67,177.47 145.52,177.57 145.37,177.66 L145.19,177.75 C144.19,178.34 143.19,178.91 142.19,179.46 C141.95,179.6 141.7,179.73 141.45,179.85 C140.45,180.37 139.45,180.85 138.45,181.33 C138.06,181.53 137.67,181.7 137.27,181.88 C136.42,182.28 135.56,182.66 134.7,183.03 L132.88,183.77 C132.21,184.04 131.55,184.29 130.88,184.54 C129.99,184.87 129.09,185.18 128.18,185.48 L126.96,185.88 C125.73,186.28 124.48,186.64 123.21,186.98 L122.94,187.06 C120.06,187.82 117.1,188.45 114.1,188.93 C112.71,189.15 111.34,189.33 109.98,189.49 C109.81,189.49 109.65,189.49 109.5,189.55 C108.61,189.64 107.74,189.7 106.87,189.77 C106.16,189.82 105.46,189.89 104.76,189.92 L103.76,189.92 C102.52,189.98 101.28,190.020066 100.04,190.020066 C97.0342866,190.023677 94.0303555,189.873481 91.04,189.57 C89.53,189.42 88.04,189.23 86.52,189 C83.52,188.54 80.65,188 77.81,187.22 L76.94,186.99 C75.87,186.7 74.82,186.4 73.76,186.07 L72.03,185.51 C71.29,185.27 70.56,185.02 69.84,184.77 C69.12,184.52 68.19,184.14 67.38,183.82 L66,183.24 C65,182.82 64,182.39 63,181.94 C62.9172065,181.909763 62.8369528,181.87298 62.76,181.83 L62.2,181.58 C61.2,181.09 60.14,180.58 59.12,180.05 L58.43,179.7 C57.43,179.16 56.43,178.6 55.43,178.02 L54.69,177.6 C53.75,177.04 52.82,176.45 51.91,175.86 L51,175.29 C50.17,174.74 49.34,174.17 48.52,173.59 L47.41,172.8 C46.7,172.27 45.99,171.72 45.3,171.18 L44,170.12 C43.4,169.63 42.82,169.12 42.25,168.64 C41.68,168.16 41.18,167.72 40.65,167.26 C40.12,166.8 39.71,166.4 39.25,165.96 L37.68,164.48 C37.5876473,164.372634 37.4873655,164.272353 37.38,164.18 C37.03,163.83 36.7,163.48 36.38,163.18 L35,161.7 L34.24,160.89 L33.58,160.16 C33.2,159.73 32.83,159.29 32.45,158.85 L31.27,157.47 C31.15,157.32 31.03,157.15 30.9,157 L30,155.88 C29.5,155.24 29,154.6 28.52,153.95 L28.3,153.66 L27.69,152.79 C27.11,151.99 26.55,151.18 26,150.37 C25.95,150.28 25.88,150.2 25.83,150.11 L25.48,149.57 C24.87,148.63 24.28,147.7 23.7,146.75 L23.46,146.34 L23.36,146.17 C22.76,145.17 22.18,144.17 21.62,143.08 C21.5,142.87 21.38,142.64 21.26,142.41 C20.74,141.41 20.26,140.41 19.74,139.41 C19.57,139.06 19.41,138.69 19.25,138.34 C18.83,137.45 18.43,136.56 18.05,135.66 L17.36,133.95 C17.07,133.25 16.8,132.54 16.54,131.83 C16.28,131.12 15.93,130.14 15.65,129.28 C15.49,128.83 15.34,128.37 15.19,127.91 C14.82,126.73 14.47,125.55 14.19,124.35 C14.19,124.19 14.09,124.03 14.05,123.87 C13.3,120.99 12.67,118.07 12.19,115.08 C11.98,113.76 11.81,112.45 11.66,111.14 C11.66,110.91 11.59,110.67 11.57,110.43 C11.49,109.64 11.44,108.86 11.38,108.07 C11.32,107.28 11.23,106.49 11.2,105.7 C11.2,105.46 11.2,105.22 11.2,105 C11.13,103.68 11.09,102.35 11.09,101 C11.09,98.72 11.21,96.46 11.37,94.22 C11.53,91.98 11.78,89.78 12.12,87.54 C12.5729762,84.574438 13.1770962,81.6339423 13.93,78.73 C13.9606087,78.5743691 14.0006832,78.4207505 14.05,78.27 C14.36,77.05 14.71,75.86 15.05,74.68 C15.19,74.22 15.35,73.76 15.5,73.31 C15.78,72.45 16.07,71.6 16.37,70.75 C16.67,69.9 16.91,69.34 17.18,68.63 C17.45,67.92 17.63,67.48 17.86,66.91 C18.24,66.01 18.63,65.12 19.04,64.23 C19.2,63.87 19.36,63.5 19.53,63.15 C19.97,62.15 20.44,61.25 20.92,60.32 C21.06,60.05 21.2,59.78 21.34,59.53 C21.3383323,59.4966875 21.3383323,59.4633125 21.34,59.43 C21.84,58.43 22.34,57.54 22.91,56.61 C23.09,56.3 23.26,55.99 23.45,55.69 C23.97,54.8 24.52,53.93 25.06,53.07 L25.75,52 C26.26,51.22 26.81,50.46 27.34,49.69 C27.65,49.27 27.94,48.83 28.25,48.41 C28.74,47.75 29.25,47.1 29.74,46.41 C30.23,45.72 30.53,45.41 30.93,44.9 C31.33,44.39 31.83,43.82 32.27,43.29 C32.71,42.76 33.2,42.21 33.68,41.68 C33.68,41.62 33.78,41.56 33.82,41.51 C34.19,41.1 34.58,40.69 34.95,40.29 C35.32,39.89 35.88,39.29 36.35,38.82 L36.95,38.2 L37.77,37.4 C38.21,36.96 38.67,36.53 39.13,36.11 C39.59,35.69 39.87,35.4 40.25,35.11 L40.74,34.67 C41.14,34.3 41.57,33.95 41.97,33.59 C42.54,33.11 43.1,32.59 43.67,32.15 L43.89,31.98 C44.23,31.7 44.59,31.43 44.89,31.15 C45.63,30.57 46.37,29.98 47.14,29.41 L47.14,29.41 L47.93,28.85 C48.84,28.2 49.75,27.55 50.69,26.92 L51.14,26.64 C52.14,25.95 53.24,25.28 54.31,24.64 L54.45,24.56 L54.52,24.51 C55.65,23.85 56.8,23.19 57.96,22.57 L58.31,22.39 C59.42,21.8 60.53,21.24 61.66,20.71 L62.4,20.35 C63.4,19.89 64.4,19.45 65.4,19.02 L66.77,18.47 L69.22,17.47 L71.42,16.71 L73.14,16.14 C74.14,15.81 75.26,15.5 76.32,15.21 L77.18,14.96 C80.09,14.22 83,13.6 86,13.13 L87.3,12.95 L87.3,12.95 C91.5053962,12.3320926 95.7494762,12.0146221 100,12 L101.31,12 L101.31,12 C105.045107,12.0518879 108.772922,12.3458375 112.47,12.88 C115.47,37.8 127.47,52.17 127.47,52.17 C146.35,79.76 173.22,87.62 188.22,89.84 C188.713664,93.5600807 188.974172,97.3073959 189,101.06 Z M199.48,90.72 L199.48,90.72 C199.61,89.06 197.6,79.25 197.6,79.25 C123.65,71.32 123.27,3.74 123.27,3.74 C121.68,3.29 118.51,2.74 115.92,2.32 L115.92,2.32 L115.13,2.18 C114.28,2.05 113.44,1.97 112.59,1.86 L111.82,1.7 L111.82,1.7 C101.185555,0.424932346 90.4154294,0.863840291 79.92,3 L78.92,3.22 C77.67,3.48 76.44,3.76 75.21,4.07 L74.21,4.34 L74,4.43 L72.54,4.84 C71.91,5.03 71.29,5.19 70.67,5.38 L69.56,5.73 L68.56,6.07 L66.89,6.62 C66.64,6.72 66.38,6.8 66.13,6.89 L65,7.31 C64.42,7.52 63.86,7.76 63.29,7.99 L61.89,8.54 L61.7,8.62 L60.57,9.09 C59.78,9.43 59,9.8 58.22,10.15 L56.22,11.06 C55.27,11.53 54.34,12.06 53.4,12.51 L52.99,12.72 L52.99,12.72 L51.99,13.25 C51,13.82 50,14.41 48.93,15 L48.78,15.09 C48.49,15.27 48.19,15.43 47.91,15.61 C46.91,16.23 45.91,16.88 44.91,17.55 L44.71,17.69 L43.94,18.19 C42.94,18.86 42.02,19.53 41.07,20.19 L40.7,20.46 L40,21 C39.11,21.66 38.25,22.34 37.39,23 L36.79,23.48 L36.19,23.97 C35.43,24.6 34.67,25.26 33.92,25.91 C33.64,26.17 33.34,26.42 33.06,26.67 L32.51,27.18 C31.87,27.77 31.24,28.37 30.61,28.97 L29.49,30.1 C29.31,30.27 29.13,30.45 28.96,30.64 C28.45,31.15 27.96,31.64 27.45,32.2 C26.94,32.76 26.55,33.15 26.1,33.63 L25.57,34.23 L24.43,35.54 C23.92,36.13 23.43,36.7 22.9,37.3 L22.55,37.75 C22.46,37.85 22.39,37.96 22.31,38.05 C22.05,38.38 21.79,38.7 21.54,39.05 C20.99,39.74 20.44,40.43 19.91,41.14 L19.7,41.42 C19.55,41.62 19.41,41.84 19.26,42.04 L18.77,42.72 C18.21,43.5 17.65,44.27 17.12,45.06 L16.92,45.35 L16.45,46.08 C16.34,46.25 16.23,46.43 16.11,46.6 C15.58,47.42 15.05,48.25 14.52,49.1 C14.42,49.27 14.33,49.45 14.22,49.63 C14.11,49.81 14.01,50 13.9,50.17 C13.79,50.34 13.7,50.52 13.59,50.69 C13.1,51.53 12.59,52.38 12.14,53.23 C11.95,53.59 11.77,53.95 11.59,54.31 L11.21,55.04 C10.79,55.85 10.36,56.65 9.96,57.48 C9.78,57.85 9.61,58.24 9.44,58.61 C9.27,58.98 9.12,59.31 8.97,59.61 C8.97,59.61 8.97,59.61 8.97,59.67 C8.64,60.38 8.31,61.07 7.97,61.78 C7.8,62.17 7.65,62.56 7.49,62.95 C7.33,63.34 7.16,63.81 6.98,64.23 C6.8,64.65 6.54,65.35 6.32,65.92 C6.32,66.02 6.23,66.13 6.19,66.25 C6.06,66.63 5.93,67.01 5.78,67.39 L5.21,69.09 C4.9,70.02 4.58,70.96 4.3,71.89 C4.06,72.66 3.85,73.43 3.65,74.2 C3.45,74.97 3.24,75.73 3,76.49 C2.74,77.49 2.51,78.54 2.29,79.58 C2.17,80.11 2.05,80.58 1.95,81.15 C1.68,82.47 1.44,83.8 1.24,85.15 C1.19,85.4 1.14,85.65 1.11,85.91 C0.89,87.51 0.7,89.11 0.53,90.74 C0.23,93.7066667 0.0533333333,96.6966667 0,99.71 C0,100.24 0,100.79 0,101.32 C0,101.85 0,102.41 0,102.94 C0.10219752,109.048862 0.771741567,115.135017 2,121.12 C2.01726371,121.232069 2.04402681,121.342467 2.08,121.45 C2.38,122.91 2.71,124.36 3.08,125.81 C3.16,126.14 3.27,126.46 3.35,126.81 L3.35,126.81 C3.46,127.21 3.58,127.61 3.69,128.01 C3.92,128.8 4.13,129.61 4.37,130.39 L4.73,131.49 C4.8,131.75 4.9,132 4.98,132.24 L5.47,133.7 C5.61,134.1 5.74,134.51 5.88,134.91 C6.02,135.31 6.17,135.67 6.31,136.06 C6.45,136.45 6.7,137.06 6.9,137.55 L7.38,138.77 C7.47,138.97 7.53,139.17 7.62,139.37 C7.77,139.75 7.94,140.12 8.09,140.49 C8.4,141.21 8.73,141.92 9.09,142.63 C9.21,142.9 9.33,143.17 9.45,143.42 L9.59,143.74 C9.77,144.1 9.93,144.45 10.1,144.81 C10.53,145.7 10.99,146.56 11.45,147.43 C11.45,147.53 11.54,147.63 11.6,147.73 L11.76,148.04 C11.94,148.38 12.1,148.7 12.29,149.04 C12.81,150.04 13.37,150.96 13.92,151.9 L14.15,152.29 L14.66,153.16 C15.25,154.11 15.86,155.04 16.48,155.97 C16.5618356,156.118301 16.651979,156.261862 16.75,156.4 C16.92,156.66 17.09,156.92 17.26,157.16 C17.87,158.08 18.51,158.96 19.15,159.83 C19.29,160.03 19.42,160.22 19.56,160.4 L20.05,161.08 C20.68,161.89 21.31,162.7 21.94,163.49 L22.57,164.28 L23.07,164.88 C23.65,165.59 24.25,166.28 24.86,166.96 C25.16,167.32 25.47,167.66 25.77,167.96 L26.28,168.52 C26.82,169.1 27.35,169.67 27.9,170.24 C28.45,170.81 28.73,171.1 29.15,171.53 L29.69,172.06 L31.08,173.41 C31.62,173.91 32.14,174.41 32.69,174.91 C32.84,175.06 33.01,175.19 33.17,175.34 L33.33,175.48 C33.68,175.8 34.04,176.11 34.41,176.48 C35.06,177.04 35.7,177.61 36.41,178.15 C36.4686732,178.208634 36.5322365,178.262161 36.6,178.31 L37.23,178.82 L37.93,179.38 C39.01,180.23 40.09,181.06 41.21,181.87 L41.6,182.15 C42.8,183.01 44.0133333,183.846667 45.24,184.66 C45.32,184.66 45.39,184.76 45.46,184.8 C46.36,185.38 47.25,185.97 48.17,186.53 L48.35,186.63 L49.35,187.2 L49.56,187.33 C50.48,187.87 51.39,188.4 52.32,188.91 L53.05,189.28 L53.48,189.51 L53.9,189.72 C54.79,190.18 55.66,190.64 56.57,191.08 L57.72,191.62 L58.51,191.97 C59.31,192.34 60.1,192.71 60.92,193.05 C61.3,193.23 61.71,193.38 62.1,193.54 L63.18,193.96 L64.45,194.46 C64.76,194.58 65.07,194.72 65.37,194.82 C65.67,194.92 66.15,195.1 66.53,195.23 L68.02,195.75 C69.02,196.08 70.02,196.41 71.02,196.75 C71.72,196.97 72.42,197.15 73.12,197.34 C73.82,197.53 74.77,197.81 75.6,198.03 C76.43,198.25 77.5,198.47 78.46,198.68 C79.05,198.81 79.65,198.96 80.25,199.08 C81.5,199.32 82.74,199.54 84,199.74 C84.33,199.8 84.67,199.87 85,199.91 C86.52,200.15 88,200.34 89.58,200.5 L89.87,200.5 C91.47,200.66 93.07,200.77 94.69,200.86 L95.12,200.86 C96.12,200.92 97.21,200.93 98.27,200.95 L100.41,200.95 L101.69,200.95 C107.840381,200.865581 113.969791,200.212804 120,199 L120.6,198.86 C121.96,198.57 123.31,198.27 124.66,197.92 L125.74,197.63 L125.8,197.63 C126.16,197.54 126.53,197.43 126.89,197.32 C127.67,197.11 128.45,196.9 129.22,196.67 L130.42,196.28 L131.18,196.02 C131.62,195.87 132.06,195.74 132.5,195.57 C132.94,195.4 133.32,195.32 133.71,195.17 C134.1,195.02 134.54,194.87 134.95,194.72 L136.45,194.13 L137.58,193.68 L138.14,193.46 L139.35,192.95 C140.07,192.64 140.78,192.32 141.49,191.95 C141.743333,191.85 141.993333,191.74 142.24,191.62 L142.49,191.51 L143.64,190.96 C144.53,190.53 145.42,190.07 146.29,189.62 L146.57,189.47 L146.77,189.37 L147.83,188.8 C148.83,188.27 149.77,187.71 150.74,187.14 L151,187 C151.32,186.81 151.64,186.63 152,186.43 C153,185.83 154,185.21 154.91,184.58 C154.990335,184.535863 155.06722,184.48572 155.14,184.43 C155.43,184.25 155.71,184.06 155.98,183.87 C156.93,183.24 157.86,182.58 158.78,181.87 L159.14,181.61 C159.39,181.43 159.64,181.25 159.88,181.06 C160.75,180.42 161.6,179.76 162.44,179.06 L163,178.61 C163.22,178.43 163.45,178.25 163.66,178.06 C164.43,177.43 165.18,176.79 165.92,176.14 C166.2,175.91 166.46,175.67 166.72,175.44 L167.33,174.89 C167.97,174.3 168.62,173.7 169.25,173.09 L170.25,172.09 C170.44,171.9 170.64,171.71 170.82,171.51 C171.36,170.99 171.88,170.44 172.4,169.91 L173.64,168.6 C173.82,168.38 174.01,168.17 174.21,167.96 C174.62,167.51 175.02,167.04 175.43,166.57 C175.84,166.1 176.43,165.5 176.84,164.94 C177.02,164.73 177.2,164.49 177.37,164.27 C177.37,164.27 177.37,164.27 177.43,164.21 L178.33,163.09 C178.83,162.46 179.33,161.82 179.84,161.17 L180.23,160.62 L180.49,160.27 C180.7,159.99 180.91,159.71 181.1,159.42 C181.63,158.72 182.1,158.01 182.63,157.28 C182.76,157.09 182.88,156.89 183.01,156.71 L183.31,156.25 C183.46,156.02 183.61,155.8 183.75,155.57 C184.26,154.81 184.75,154.05 185.24,153.27 C185.39,153.01 185.54,152.73 185.71,152.48 L185.87,152.19 C186.01,151.96 186.14,151.73 186.27,151.5 C186.73,150.73 187.19,149.96 187.63,149.16 L188.22,148.04 L188.66,147.19 C189.06,146.45 189.45,145.71 189.82,144.95 C190.02,144.56 190.19,144.16 190.38,143.76 C190.57,143.36 190.72,143 190.9,142.61 C191.21,141.96 191.52,141.31 191.82,140.61 L192.32,139.38 C192.51,138.93 192.69,138.47 192.87,138.01 L193.33,136.86 C193.42,136.62 193.52,136.41 193.61,136.17 C193.76,135.78 193.89,135.38 194.04,134.97 C194.25,134.38 194.45,133.79 194.65,133.2 C194.96,132.3 195.26,131.41 195.55,130.5 C195.84,129.59 196.01,128.95 196.22,128.18 C196.43,127.41 196.65,126.7 196.83,125.95 C197.1,124.95 197.33,123.95 197.55,122.95 C197.68,122.42 197.81,121.89 197.93,121.36 C198.19,120.08 198.42,118.79 198.64,117.51 C198.64,117.22 198.74,116.93 198.79,116.63 C199.03,115.1 199.24,113.56 199.41,112.01 C199.405076,111.936749 199.405076,111.863251 199.41,111.79 C200.175332,104.761817 200.195444,97.6724123 199.47,90.64" id="Shape"></path>
            <path d="M166.72,95.83 C166.85,97.53 166.94,99.26 166.94,101.01 C166.934477,137.978639 136.961973,167.943681 99.9933343,167.94 C63.0246952,167.936318 33.0581602,137.965306 33.0600008,100.996667 C33.0618414,64.0280279 63.0313607,34.0600004 100,34.06 C102.11,34.06 104.19,34.18 106.24,34.36 C105.033575,30.8069946 104.031931,27.1877178 103.24,23.52 C102.18,23.52 101.12,23.4299766 100.05,23.4299766 C68.670415,23.405728 40.367169,42.2896551 28.3418997,71.273648 C16.3166304,100.257641 22.9383721,133.631717 45.1185097,155.829024 C67.2986473,178.026331 100.66759,184.673896 129.660879,172.671058 C158.654168,160.66822 177.56,132.379594 177.56,101 C177.56,100.33 177.56,99.68 177.51,99 C173.855785,98.1379681 170.253345,97.0695894 166.72,95.8"></path>
        </g>
    </g>
</svg>
