<svg xmlns="http://www.w3.org/2000/svg" xmlns:xlink="http://www.w3.org/1999/xlink" width="42.58" height="42.58" viewBox="0 0 42.58 42.58"><defs><style>.a{fill:#4ad3b0;}.b{clip-path:url(#a);}.c{fill:#2f3758;}</style><clipPath id="a"><ellipse class="a" cx="21.29" cy="21.29" rx="21.29" ry="21.29"/></clipPath></defs><g transform="translate(0 0)"><ellipse class="a" cx="21.29" cy="21.29" rx="21.29" ry="21.29" transform="translate(0 0)"/><g class="b" transform="translate(0 0)"><path class="c" d="M52.1,124.195c.2.4,1.03,1.667.743,2.01-3,3.57-8.322,4.838-12.988,4.824s-9.824-1.538-12.808-5.126c-.267-.324.42-1.331.61-1.706a6.191,6.191,0,0,1,3.867-3.2c1.838-.513,3.8-.893,4.781-1.069l.436-.076.03-.006c-.014.015-.028.03-.042.044l1.186.928,2.168,1.7,3.17-2.624c-.012-.011-.025-.024-.037-.037.107.019.257.046.441.08.948.177,2.811.549,4.574,1.05A6.222,6.222,0,0,1,52.1,124.195Z" transform="translate(-18.585 -88.421)"/><path class="c" d="M83.119,105.563a5.155,5.155,0,0,1-.794-2.575c-.01-.093-.019-.184-.028-.277a4.349,4.349,0,0,1-.554.328c0,.046.011.093.017.142s.011.085.017.13l.017.114a6.051,6.051,0,0,0,.713,2.3l-2.767,2.287L77.666,106.4l-.861-.674a6.451,6.451,0,0,0,.735-2.488c.01-.083.019-.162.028-.236l0-.037a4.217,4.217,0,0,1-.554-.358c-.008.091-.016.184-.026.277a5.315,5.315,0,0,1-.806,2.678l-.239.232.018.014,1.482,1.159.042.032,2.26,1.77,3.572-2.953.03-.026Z" transform="translate(-58.256 -74.294)"/><path class="c" d="M84.091,104.318a4.06,4.06,0,0,1-3.931,1.7l-.656,2.257-1.1-1.24.877-2.886S81.931,105.312,84.091,104.318Z" transform="translate(-60.272 -75.556)"/><path class="c" d="M77.064,36.71l-.71,2.956-.095-4.593L75.224,33.6a26.5,26.5,0,0,1-6.625,0l-1.326,1.475L67.2,39.738l-.758-2.993a8.332,8.332,0,0,1,.1-4.158,4.586,4.586,0,0,1,1.877-2.766c.315-.188.613-.346.9-.485a5.487,5.487,0,0,1,1.19-.416,5.688,5.688,0,0,1,1.244-.139,5.579,5.579,0,0,1,2.433.554c.281.139.581.3.895.485a4.7,4.7,0,0,1,1.922,2.926A8.454,8.454,0,0,1,77.064,36.71Z" transform="translate(-50.288 -13.816)"/><path class="c" d="M78.8,50.044l-.175.024a24.169,24.169,0,0,1-6.551,0l-.152-.021-1.5,1.782V56.2c0,.013.012.112.042.274h0a5.661,5.661,0,0,0,.171.676,5.891,5.891,0,0,0,.532,1.2,4.926,4.926,0,0,0,1.3,1.465c.073.055.148.108.226.159.1.069.208.131.319.192a5.4,5.4,0,0,0,2.143.629h.095a5.469,5.469,0,0,0,2-.554c.069-.033.13-.069.193-.1.124-.069.242-.144.353-.221a4.908,4.908,0,0,0,1.446-1.564,5.913,5.913,0,0,0,.554-1.276h0a5.545,5.545,0,0,0,.157-.651h0c.024-.133.032-.214.033-.226l.006-4.355Zm.6,6.111a5.207,5.207,0,0,1-.658,1.877,4.314,4.314,0,0,1-3.534,2.154h-.021A4.547,4.547,0,0,1,71,56.155V53.739a2.982,2.982,0,0,1,1.544-2.663,2.536,2.536,0,0,1,.389-.163,1.3,1.3,0,0,1,.489-.077,24.67,24.67,0,0,0,3.656.014,1.455,1.455,0,0,1,.517.074,2.344,2.344,0,0,1,.4.168,2.753,2.753,0,0,1,1.4,2.448Z" transform="translate(-53.724 -31.233)"/><path class="c" d="M52.4,124.195a1.123,1.123,0,0,1-.142,1.222c-3,3.57-7.607,9.24-12.273,9.226s-6.258-5.315-9.242-8.9c-.267-.324-1.246-2.845-1.056-3.22.781-1.563.455-1.047,2.137-1.519,1.838-.513,3.8-.893,4.781-1.069l.436-.076.03-.006c-.014.015-.028.03-.042.044l1.186.928,2.168,1.7,3.17-2.624c-.012-.011-.025-.024-.037-.037.107.019.257.046.441.08.948.177,2.811.549,4.574,1.05A6.222,6.222,0,0,1,52.4,124.195Z" transform="translate(-5.792 -93.843)"/><path class="c" d="M83.119,105.563a5.155,5.155,0,0,1-.794-2.575c-.01-.093-.019-.184-.028-.277a4.349,4.349,0,0,1-.554.328c0,.046.011.093.017.142s.011.085.017.13l.017.114a6.051,6.051,0,0,0,.713,2.3l-2.767,2.287L77.666,106.4l-.861-.674a6.451,6.451,0,0,0,.735-2.488c.01-.083.019-.162.028-.236l0-.037a4.217,4.217,0,0,1-.554-.358c-.008.091-.016.184-.026.277a5.315,5.315,0,0,1-.806,2.678l-.239.232.018.014,1.482,1.159.042.032,2.26,1.77,3.572-2.953.03-.026Z" transform="translate(-45.16 -79.716)"/><path class="c" d="M84.091,104.318a4.06,4.06,0,0,1-3.931,1.7l-.656,2.257-1.1-1.24.877-2.886S81.931,105.312,84.091,104.318Z" transform="translate(-47.177 -80.979)"/><path class="c" d="M77.064,36.71l-.71,2.956-.095-4.593L75.224,33.6a26.5,26.5,0,0,1-6.625,0l-1.326,1.475L67.2,39.738l-.758-2.993a8.332,8.332,0,0,1,.1-4.158,4.586,4.586,0,0,1,1.877-2.766c.315-.188.613-.346.9-.485a5.487,5.487,0,0,1,1.19-.416,5.688,5.688,0,0,1,1.244-.139,5.579,5.579,0,0,1,2.433.554c.281.139.581.3.895.485a4.7,4.7,0,0,1,1.922,2.926A8.454,8.454,0,0,1,77.064,36.71Z" transform="translate(-37.192 -19.238)"/><path class="c" d="M78.8,50.044l-.175.024a24.169,24.169,0,0,1-6.551,0l-.152-.021-1.5,1.782V56.2c0,.013.012.112.042.274h0a5.661,5.661,0,0,0,.171.676,5.891,5.891,0,0,0,.532,1.2,4.926,4.926,0,0,0,1.3,1.465c.073.055.148.108.226.159.1.069.208.131.319.192a5.4,5.4,0,0,0,2.143.629h.095a5.469,5.469,0,0,0,2-.554c.069-.033.13-.069.193-.1.124-.069.242-.144.353-.221a4.908,4.908,0,0,0,1.446-1.564,5.913,5.913,0,0,0,.554-1.276h0a5.545,5.545,0,0,0,.157-.651h0c.024-.133.032-.214.033-.226l.006-4.355Zm.6,6.111a5.207,5.207,0,0,1-.658,1.877,4.314,4.314,0,0,1-3.534,2.154h-.021A4.547,4.547,0,0,1,71,56.155V53.739a2.982,2.982,0,0,1,1.544-2.663,2.536,2.536,0,0,1,.389-.163,1.3,1.3,0,0,1,.489-.077,24.67,24.67,0,0,0,3.656.014,1.455,1.455,0,0,1,.517.074,2.344,2.344,0,0,1,.4.168,2.753,2.753,0,0,1,1.4,2.448Z" transform="translate(-40.629 -36.655)"/><path class="c" d="M50.784,123.127c.2.4-.669,3.076-.956,3.419-3,3.57-5.255,7.994-9.921,7.981s-9.073-5.592-12.057-9.179a1.057,1.057,0,0,1-.128-1.15A6.191,6.191,0,0,1,31.59,121c1.838-.513,3.8-.893,4.781-1.069l.436-.076.03-.006c-.014.015-.028.03-.042.044l1.186.928,2.168,1.7,3.17-2.624c-.012-.011-.025-.024-.037-.037.107.019.257.046.441.08.948.177,2.811.549,4.574,1.05C49.98,121.468,50,121.563,50.784,123.127Z" transform="translate(-31.518 -93.843)"/><path class="c" d="M83.119,105.563a5.155,5.155,0,0,1-.794-2.575c-.01-.093-.019-.184-.028-.277a4.349,4.349,0,0,1-.554.328c0,.046.011.093.017.142s.011.085.017.13l.017.114a6.051,6.051,0,0,0,.713,2.3l-2.767,2.287L77.666,106.4l-.861-.674a6.451,6.451,0,0,0,.735-2.488c.01-.083.019-.162.028-.236l0-.037a4.217,4.217,0,0,1-.554-.358c-.008.091-.016.184-.026.277a5.315,5.315,0,0,1-.806,2.678l-.239.232.018.014,1.482,1.159.042.032,2.26,1.77,3.572-2.953.03-.026Z" transform="translate(-71.118 -79.716)"/><path class="c" d="M84.091,104.318a4.06,4.06,0,0,1-3.931,1.7l-.656,2.257-1.1-1.24.877-2.886S81.931,105.312,84.091,104.318Z" transform="translate(-73.134 -80.979)"/><path class="c" d="M77.064,36.71l-.71,2.956-.095-4.593L75.224,33.6a26.5,26.5,0,0,1-6.625,0l-1.326,1.475L67.2,39.738l-.758-2.993a8.332,8.332,0,0,1,.1-4.158,4.586,4.586,0,0,1,1.877-2.766c.315-.188.613-.346.9-.485a5.487,5.487,0,0,1,1.19-.416,5.688,5.688,0,0,1,1.244-.139,5.579,5.579,0,0,1,2.433.554c.281.139.581.3.895.485a4.7,4.7,0,0,1,1.922,2.926A8.454,8.454,0,0,1,77.064,36.71Z" transform="translate(-63.15 -19.238)"/><path class="c" d="M78.8,50.044l-.175.024a24.169,24.169,0,0,1-6.551,0l-.152-.021-1.5,1.782V56.2c0,.013.012.112.042.274h0a5.661,5.661,0,0,0,.171.676,5.891,5.891,0,0,0,.532,1.2,4.926,4.926,0,0,0,1.3,1.465c.073.055.148.108.226.159.1.069.208.131.319.192a5.4,5.4,0,0,0,2.143.629h.095a5.469,5.469,0,0,0,2-.554c.069-.033.13-.069.193-.1.124-.069.242-.144.353-.221a4.908,4.908,0,0,0,1.446-1.564,5.913,5.913,0,0,0,.554-1.276h0a5.545,5.545,0,0,0,.157-.651h0c.024-.133.032-.214.033-.226l.006-4.355Zm.6,6.111a5.207,5.207,0,0,1-.658,1.877,4.314,4.314,0,0,1-3.534,2.154h-.021A4.547,4.547,0,0,1,71,56.155V53.739a2.982,2.982,0,0,1,1.544-2.663,2.536,2.536,0,0,1,.389-.163,1.3,1.3,0,0,1,.489-.077,24.67,24.67,0,0,0,3.656.014,1.455,1.455,0,0,1,.517.074,2.344,2.344,0,0,1,.4.168,2.753,2.753,0,0,1,1.4,2.448Z" transform="translate(-66.586 -36.655)"/></g></g></svg>