<?xml version="1.0" standalone="no"?>
<!DOCTYPE svg PUBLIC "-//W3C//DTD SVG 1.1//EN" "http://www.w3.org/Graphics/SVG/1.1/DTD/svg11.dtd" >
<svg xmlns="http://www.w3.org/2000/svg">
<metadata>
<json>
<![CDATA[
{
	"fontFamily": "icomoon-fonts",
	"majorVersion": 1,
	"minorVersion": 0,
	"version": "Version 1.0",
	"fontId": "icomoon-fonts",
	"psName": "icomoon-fonts",
	"subFamily": "Regular",
	"fullName": "icomoon-fonts",
	"description": "Font generated by IcoMoon."
}
]]>
</json>
</metadata>
<defs>
<font id="icomoon-fonts" horiz-adv-x="1024">
<font-face units-per-em="1024" ascent="1024" descent="0" />
<missing-glyph horiz-adv-x="1024" />
<glyph unicode="&#x20;" horiz-adv-x="0" d="" />
<glyph unicode="&#xf1;" glyph-name="fi-rr-football" data-tags="fi-rr-football" d="M665.6 416.427l30.72 95.573q10.24 30.72 0 64.853t-40.96 54.613l-81.92 58.027q-27.307 20.48-61.44 20.48t-61.44-20.48v0l-81.92-58.027q-30.72-20.48-40.96-54.613t0-64.853l30.72-95.573q13.653-34.133 40.96-54.613t61.44-20.48h102.4q34.133 0 61.44 20.48t40.96 54.613zM440.32 440.32l-30.72 98.987q-3.413 13.653 6.827 23.893l81.92 58.027q13.653 10.24 27.307 0l81.92-61.44q10.24-6.827 6.827-23.893l-30.72-95.573q-6.827-13.653-20.48-13.653h-102.4q-13.653 0-20.48 13.653zM1020.587 447.147q13.653 119.467-23.893 232.107t-122.88 194.56v0q-98.987 98.987-230.4 133.12t-262.827 0-230.4-133.12v0q-71.68-71.68-110.933-165.547t-39.253-196.267q0-30.72 3.413-64.853v-3.413q13.653-81.92 51.2-157.013v-6.827q54.613-105.813 151.893-177.493t216.747-95.573h6.827q102.4-17.067 203.093 6.827t184.32 85.333 136.533 151.893 66.56 192.853v3.413zM829.44 648.533l34.133 105.813q68.267-98.987 75.093-218.453l-92.16 64.853q-10.24 6.827-15.36 20.48t-1.707 27.307zM621.227 925.013l-85.333-64.853q-10.24-6.827-23.893-6.827t-23.893 6.827l-85.333 64.853q109.227 30.72 218.453 0zM194.56 648.533q3.413-13.653-1.707-27.307t-15.36-20.48l-92.16-64.853q6.827 119.467 75.093 218.453zM170.667 256h116.053q13.653 0 25.6-8.533t15.36-22.187l37.547-112.64q-119.467 44.373-194.56 143.36zM464.213 88.747l-54.613 163.84q-13.653 40.96-46.080 64.853t-76.8 23.893h-167.253q-17.067 44.373-27.307 92.16l136.533 95.573q30.72 23.893 44.373 63.147t3.413 80.213l-47.787 157.013q34.133 34.133 78.507 58.027l129.707-95.573q34.133-23.893 75.093-23.893t75.093 23.893l129.707 95.573q44.373-23.893 78.507-58.027l-47.787-157.013q-10.24-40.96 3.413-80.213t44.373-63.147l136.533-95.573q-10.24-47.787-27.307-92.16h-170.667q-40.96 0-73.387-23.893t-46.080-64.853l-54.613-163.84q-47.787-6.827-95.573 0zM658.773 112.64l37.547 112.64q3.413 13.653 15.36 22.187t25.6 8.533h116.053q-75.093-98.987-194.56-143.36z" />
<glyph unicode="&#xe927;" glyph-name="fi-rr-baseball" data-tags="fi-rr-baseball" d="M512 1024q-139.947 0-257.707-68.267t-186.027-186.027-68.267-257.707 68.267-257.707 186.027-186.027 257.707-68.267 257.707 68.267 186.027 186.027 68.267 257.707-68.267 257.707-186.027 186.027-257.707 68.267zM846.507 249.173q-54.613 47.787-85.333 112.64l64.853 23.893q17.067 6.827 23.893 23.893t0 32.427-22.187 23.893-32.427 1.707l-61.44-27.307q-17.067 71.68 0 143.36l61.44-27.307q23.893-6.827 42.667 8.533t15.36 39.253-27.307 34.133l-64.853 23.893q30.72 64.853 85.333 112.64 61.44-78.507 81.92-170.667t0-184.32-81.92-170.667zM177.493 774.827q54.613-47.787 85.333-112.64l-64.853-23.893q-17.067-6.827-23.893-23.893t0-32.427 22.187-23.893 32.427-1.707l61.44 27.307q6.827-37.547 6.827-71.68t-6.827-71.68l-61.44 27.307q-17.067 6.827-32.427-1.707t-22.187-23.893 0-32.427 23.893-23.893l64.853-23.893q-30.72-64.853-85.333-112.64-61.44 78.507-81.92 170.667t0 184.32 81.92 170.667zM235.52 187.733q68.267 58.027 105.813 139.947l68.267-27.307q17.067-6.827 34.133 1.707t23.893 23.893-1.707 32.427-22.187 23.893l-71.68 27.307q10.24 51.2 10.24 102.4t-10.24 102.4l71.68 27.307q13.653 6.827 22.187 23.893t1.707 32.427-23.893 22.187-34.133 3.413l-68.267-30.72q-37.547 85.333-105.813 143.36 78.507 68.267 177.493 90.453t197.973 0 177.493-90.453q-68.267-58.027-105.813-139.947l-68.267 27.307q-17.067 6.827-34.133-1.707t-23.893-23.893 1.707-32.427 22.187-23.893l71.68-27.307q-23.893-102.4 0-204.8l-71.68-27.307q-13.653-6.827-20.48-23.893t-1.707-34.133 22.187-23.893 34.133 0l68.267 27.307q37.547-81.92 105.813-139.947-78.507-68.267-177.493-92.16t-197.973 0-177.493 92.16z" />
<glyph unicode="&#xe928;" glyph-name="fi-rr-basketball" data-tags="fi-rr-basketball" d="M873.813 150.187q98.987 98.987 133.12 230.4t0 262.827-133.12 230.4v0q-98.987 98.987-230.4 133.12t-262.827 0-230.4-133.12v0q-98.987-98.987-133.12-230.4t0-262.827 133.12-230.4v0q98.987-98.987 230.4-133.12t262.827 0 230.4 133.12v0zM88.747 467.627q126.293-13.653 225.28-95.573l-133.12-129.707q-78.507 98.987-92.16 225.28zM180.907 781.653l269.653-269.653-78.507-78.507q-122.88 105.813-283.307 119.467 10.24 129.707 92.16 228.693zM935.253 556.373q-126.293 13.653-225.28 95.573l133.12 129.707q78.507-98.987 92.16-225.28zM651.947 709.973q-81.92 98.987-95.573 225.28 126.293-13.653 225.28-92.16zM590.507 651.947l-78.507-78.507-269.653 269.653q98.987 81.92 228.693 92.16 13.653-160.427 119.467-283.307zM372.053 314.027q81.92-98.987 95.573-225.28-126.293 13.653-225.28 92.16zM433.493 372.053l78.507 78.507 269.653-269.653q-98.987-81.92-228.693-92.16-13.653 160.427-119.467 283.307zM573.44 512l78.507 78.507q122.88-105.813 283.307-119.467-10.24-129.707-92.16-228.693z" />
<glyph unicode="&#xe92a;" glyph-name="fi-rr-bell-school" data-tags="fi-rr-bell-school" d="M426.667 682.667q34.133 0 59.733-25.6t25.6-59.733-25.6-59.733-59.733-25.6-59.733 25.6-25.6 59.733 25.6 59.733 59.733 25.6zM1024 597.333q0-143.36-63.147-269.653t-174.080-211.627-254.293-112.64q-27.307-6.827-54.613 0t-47.787 25.6-34.133 44.373-13.653 56.32v44.373q-95.573 6.827-177.493 58.027t-134.827 133.12-66.56 179.2 18.773 189.44 98.987 162.133 158.72 102.4 187.733 23.893 179.2-59.733 138.24-133.12q10.24-13.653 5.12-30.72t-18.773-27.307-30.72-6.827-27.307 17.067q-61.44 95.573-168.96 134.827t-215.040 6.827-175.787-122.88-68.267-203.093 68.267-203.093 175.787-122.88 215.040 6.827 168.96 134.827q10.24 13.653 27.307 17.067t30.72-6.827 18.773-27.307-5.12-30.72q-54.613-81.92-136.533-131.413t-177.493-59.733v-44.373q0-20.48 13.653-34.133t34.133-10.24q150.187 30.72 259.413 134.827t143.36 250.88h-27.307q-51.2 0-88.747 35.84t-37.547 90.453 37.547 92.16 90.453 37.547 90.453-37.547 37.547-92.16zM938.667 597.333q0 17.067-11.947 30.72t-30.72 13.653-30.72-13.653-11.947-30.72 11.947-30.72 30.72-11.947 30.72 13.653 11.947 29.013z" />
<glyph unicode="&#xe92c;" glyph-name="fi-rr-billiard" data-tags="fi-rr-billiard" d="M512 0q-139.947 0-257.707 68.267t-186.027 186.027-68.267 257.707 68.267 257.707 186.027 186.027 257.707 68.267 257.707-68.267 186.027-186.027 68.267-257.707-68.267-257.707-186.027-186.027-257.707-68.267zM512 938.667q-116.053 0-213.333-58.027t-155.307-155.307-58.027-213.333 58.027-213.333 155.307-155.307 213.333-58.027 213.333 58.027 155.307 155.307 58.027 213.333-58.027 213.333-155.307 155.307-213.333 58.027zM512 170.667q-92.16 0-170.667 46.080t-124.587 124.587-46.080 170.667 46.080 170.667 124.587 124.587 170.667 46.080 170.667-46.080 124.587-124.587 46.080-170.667-46.080-170.667-124.587-124.587-170.667-46.080zM512 768q-68.267 0-128-34.133t-93.867-93.867-34.133-128 34.133-128 93.867-93.867 128-34.133 128 34.133 93.867 93.867 34.133 128-34.133 128-93.867 93.867-128 34.133zM505.173 361.813l129.707 215.040q10.24 20.48-1.707 40.96t-35.84 23.893h-170.667q-17.067-3.413-29.013-15.36t-11.947-29.013 11.947-30.72 29.013-13.653h95.573l-88.747-146.773q-13.653-20.48-1.707-42.667t37.547-22.187 35.84 20.48z" />
<glyph unicode="&#xe92d;" glyph-name="fi-rr-bold" data-tags="fi-rr-bold" d="M764.587 570.027q44.373 68.267 46.080 148.48t-37.547 151.893-109.227 112.64-151.893 40.96h-296.96q-37.547 0-61.44-25.6t-23.893-59.733v-853.333q0-34.133 23.893-59.733t61.44-25.6h426.667q102.4 0 184.32 64.853t105.813 168.96-23.893 197.973-143.36 138.24zM300.373 853.333h211.627q54.613 0 92.16-37.547t37.547-90.453-37.547-90.453-92.16-37.547h-211.627v256zM641.707 170.667h-341.333v256h341.333q51.2 0 88.747-37.547t37.547-90.453-37.547-90.453-92.16-37.547h3.413z" />
<glyph unicode="&#xe930;" glyph-name="fi-rr-bookmark" data-tags="fi-rr-bookmark" d="M860.16 0q-51.2 0-85.333 34.133l-262.827 262.827-262.827-262.827q-23.893-23.893-61.44-30.72t-71.68 6.827-54.613 44.373-17.067 68.267v689.493q0 85.333 61.44 148.48t150.187 63.147h512q88.747 0 150.187-63.147t61.44-148.48v-689.493q3.413-37.547-17.067-68.267t-54.613-44.373q-23.893-10.24-47.787-10.24zM256 938.667q-54.613 0-92.16-37.547t-37.547-92.16v-686.080q0-23.893 22.187-34.133t39.253 6.827v0l293.547 290.133q13.653 13.653 30.72 13.653t30.72-13.653l293.547-290.133q17.067-17.067 39.253-6.827t22.187 34.133v689.493q0 51.2-37.547 88.747t-92.16 37.547h-512z" />
<glyph unicode="&#xe931;" glyph-name="fi-rr-bowling" data-tags="fi-rr-bowling" d="M682.667 341.333q0-17.067-11.947-29.013t-30.72-11.947-30.72 11.947-11.947 29.013 11.947 29.013 30.72 13.653 30.72-11.947 11.947-30.72zM812.373 385.707q-20.48 0-32.427-13.653t-11.947-30.72 11.947-29.013 30.72-13.653 30.72 11.947 11.947 30.72-11.947 29.013-29.013 11.947v3.413zM727.040 512q-20.48 0-32.427-11.947t-11.947-30.72 11.947-30.72 30.72-11.947 30.72 11.947 11.947 30.72-11.947 30.72-29.013 11.947zM1024 341.333q0-98.987-54.613-184.32t-145.067-126.293-189.44-27.307-174.080 78.507q-23.893-37.547-63.147-59.733t-83.627-22.187h-116.053q-51.2 0-92.16 27.307t-64.853 71.68q-40.96 95.573-40.96 201.387 6.827 122.88 75.093 232.107 44.373 68.267 54.613 150.187-10.24 47.787-23.893 92.16-17.067 37.547-20.48 78.507 0 71.68 49.493 121.173t121.173 49.493 121.173-49.493 49.493-121.173q-3.413-40.96-20.48-78.507-13.653-44.373-23.893-92.16 6.827-64.853 40.96-119.467 68.267 81.92 172.373 109.227t204.8-10.24 162.133-126.293 61.44-194.56zM170.667 853.333q0-6.827 13.653-51.2 23.893-58.027 30.72-119.467h85.333q3.413 61.44 27.307 119.467 6.827 23.893 13.653 51.2 0 37.547-25.6 61.44t-61.44 23.893-59.733-25.6-23.893-59.733zM392.533 133.12q34.133 78.507 34.133 163.84-10.24 105.813-64.853 194.56-27.307 51.2-47.787 105.813h-116.053q-20.48-54.613-47.787-105.813-54.613-88.747-64.853-191.147 0-88.747 34.133-167.253 10.24-20.48 30.72-34.133t47.787-13.653h116.053q27.307 0 47.787 13.653t30.72 34.133zM938.667 341.333q0 85.333-51.2 153.6t-133.12 92.16-162.133-6.827-128-102.4q44.373-85.333 47.787-180.907 0-64.853-17.067-129.707 54.613-58.027 131.413-75.093t150.187 11.947 117.76 93.867 44.373 143.36z" />
<glyph unicode="&#xe938;" glyph-name="fi-rr-bug" data-tags="fi-rr-bug" d="M938.667 727.040q34.133 0 59.733 23.893t25.6 61.44v170.667q0 17.067-11.947 29.013t-30.72 11.947-30.72-11.947-11.947-29.013v-170.667l-174.080-3.413q-30.72 78.507-98.987 126.293t-151.893 47.787-153.6-47.787-100.693-126.293h-174.080v174.080q0 17.067-11.947 29.013t-30.72 11.947-30.72-11.947-11.947-29.013v-170.667q0-37.547 25.6-63.147t59.733-22.187h150.187l-44.373-170.667h-146.773q-20.48-3.413-32.427-15.36t-11.947-29.013 11.947-30.72 29.013-13.653h129.707l-6.827-27.307q-3.413-23.893-3.413-44.373 0-51.2 13.653-95.573h-88.747q-34.133 0-59.733-25.6t-25.6-59.733v-170.667q0-20.48 11.947-32.427t30.72-11.947 30.72 11.947 11.947 29.013v174.080h126.293q47.787-81.92 128-128t172.373-46.080 172.373 46.080 128 124.587h126.293v-167.253q0-20.48 11.947-32.427t30.72-11.947 30.72 11.947 11.947 29.013v174.080q0 34.133-25.6 59.733t-59.733 25.6h-88.747q13.653 44.373 13.653 95.573 0 20.48-3.413 44.373l-6.827 30.72h129.707q17.067-3.413 29.013 10.24t11.947 30.72-11.947 30.72-29.013 13.653h-150.187l-44.373 170.667h150.187zM512 129.707q-71.68 0-133.12 35.84t-97.28 97.28-35.84 133.12v30.72l88.747 341.333q17.067 58.027 66.56 92.16t109.227 35.84 109.227-34.133 69.973-90.453l88.747-344.747v-30.72q0-71.68-35.84-133.12t-97.28-97.28-133.12-39.253v3.413z" />
<glyph unicode="&#xe939;" glyph-name="fi-rr-building" data-tags="fi-rr-building" d="M300.373 426.667q0-17.067-13.653-29.013t-30.72-11.947h-40.96q-20.48-3.413-32.427 10.24t-11.947 30.72 11.947 30.72 32.427 13.653h40.96q17.067 0 29.013-13.653t11.947-30.72h3.413zM471.040 471.040h-44.373q-17.067 0-29.013-13.653t-13.653-30.72 11.947-29.013 30.72-11.947h44.373q17.067 0 29.013 11.947t11.947 29.013-11.947 30.72-29.013 13.653zM256 300.373h-40.96q-20.48 0-32.427-13.653t-11.947-30.72 11.947-29.013 32.427-11.947h40.96q17.067 0 29.013 11.947t13.653 29.013-11.947 29.013-30.72 11.947v3.413zM471.040 300.373h-44.373q-17.067 0-29.013-13.653t-13.653-30.72 11.947-29.013 30.72-11.947h44.373q17.067 0 29.013 11.947t11.947 29.013-11.947 29.013-29.013 11.947v3.413zM256 812.373h-40.96q-20.48-3.413-32.427-15.36t-11.947-29.013 11.947-29.013 32.427-15.36h40.96q17.067 3.413 29.013 15.36t13.653 29.013-11.947 30.72-30.72 13.653zM471.040 812.373h-44.373q-17.067-3.413-29.013-15.36t-11.947-29.013 11.947-29.013 29.013-15.36h44.373q17.067 3.413 29.013 15.36t11.947 29.013-11.947 30.72-29.013 13.653zM256 641.707h-40.96q-20.48-3.413-32.427-15.36t-11.947-29.013 11.947-30.72 32.427-13.653h40.96q17.067 3.413 29.013 15.36t13.653 29.013-11.947 30.72-30.72 13.653zM471.040 641.707h-44.373q-17.067-3.413-29.013-15.36t-11.947-29.013 11.947-30.72 29.013-13.653h44.373q17.067 3.413 29.013 15.36t11.947 29.013-11.947 30.72-29.013 13.653zM1024 597.333v-382.293q0-88.747-63.147-151.893t-148.48-63.147h-597.333q-88.747 0-151.893 63.147t-63.147 151.893v597.333q0 85.333 63.147 148.48t148.48 63.147h259.413q85.333 0 148.48-63.147t63.147-148.48h129.707q85.333-3.413 148.48-64.853t63.147-150.187zM215.040 85.333h382.293v727.040q0 51.2-37.547 88.747t-88.747 37.547h-256q-54.613 0-92.16-37.547t-37.547-92.16v-593.92q0-54.613 37.547-92.16t88.747-37.547h3.413zM938.667 597.333q0 54.613-37.547 92.16t-92.16 37.547h-126.293v-641.707h129.707q51.2 0 88.747 37.547t37.547 92.16v382.293zM812.373 471.040q-20.48 0-32.427-13.653t-11.947-30.72 11.947-29.013 30.72-11.947 30.72 11.947 11.947 29.013-11.947 30.72-29.013 13.653zM812.373 300.373q-20.48 0-32.427-13.653t-11.947-30.72 11.947-29.013 30.72-11.947 30.72 11.947 11.947 29.013-11.947 29.013-29.013 11.947v3.413zM812.373 641.707q-20.48 0-32.427-13.653t-11.947-30.72 11.947-30.72 30.72-11.947 30.72 13.653 11.947 29.013-11.947 30.72-29.013 13.653z" />
<glyph unicode="&#xe951;" glyph-name="fi-rr-compress-alt" data-tags="fi-rr-compress-alt" d="M310.613 935.253l-78.507-81.92-160.427 157.013q-10.24 13.653-29.013 13.653t-30.72-11.947-11.947-30.72 13.653-29.013l157.013-157.013-81.92-81.92q-10.24-10.24-11.947-22.187t3.413-23.893 15.36-20.48 23.893-5.12h204.8q23.893-3.413 42.667 15.36t18.773 42.667v204.8q0 13.653-8.533 23.893t-20.48 15.36-23.893 3.413-22.187-11.947zM853.333 232.107l81.92 78.507q10.24 10.24 11.947 22.187t-3.413 23.893-15.36 20.48-23.893 5.12h-204.8q-23.893 3.413-40.96-15.36t-17.067-42.667v-204.8q-3.413-13.653 5.12-23.893t20.48-15.36 23.893-3.413 22.187 11.947l81.92 81.92 157.013-157.013q10.24-13.653 29.013-13.653t30.72 11.947 11.947 30.72-13.653 29.013zM699.733 641.707h204.8q13.653-3.413 23.893 5.12t15.36 20.48 3.413 23.893-11.947 22.187l-81.92 81.92 157.013 157.013q13.653 10.24 13.653 29.013t-11.947 30.72-30.72 11.947-29.013-13.653l-157.013-157.013-81.92 81.92q-10.24 10.24-22.187 11.947t-23.893-3.413-20.48-15.36-5.12-23.893v-204.8q0-23.893 17.067-42.667t40.96-18.773v3.413zM324.267 385.707h-204.8q-13.653 0-23.893-8.533t-15.36-20.48-3.413-23.893 11.947-22.187l81.92-78.507-157.013-160.427q-20.48-17.067-13.653-40.96t30.72-30.72 40.96 13.653l160.427 157.013 78.507-81.92q10.24-10.24 22.187-11.947t23.893 3.413 20.48 15.36 8.533 23.893v204.8q0 23.893-18.773 40.96t-42.667 17.067v3.413z" />
<glyph unicode="&#xe952;" glyph-name="fi-rr-compress" data-tags="fi-rr-compress" d="M300.373 1024q-20.48 0-32.427-11.947t-11.947-29.013v-85.333q0-54.613-37.547-92.16t-88.747-37.547h-85.333q-20.48 0-32.427-11.947t-11.947-30.72 11.947-30.72 29.013-11.947h88.747q85.333 0 148.48 63.147t63.147 151.893v85.333q0 17.067-11.947 29.013t-32.427 11.947h3.413zM983.040 341.333h-85.333q-88.747 0-151.893-63.147t-63.147-151.893v-81.92q0-20.48 11.947-32.427t30.72-11.947 30.72 11.947 11.947 29.013v88.747q0 51.2 37.547 88.747t92.16 37.547h85.333q17.067 0 29.013 11.947t11.947 30.72-11.947 30.72-29.013 11.947zM897.707 682.667h85.333q17.067 0 29.013 11.947t11.947 30.72-11.947 30.72-29.013 11.947h-85.333q-54.613 0-92.16 37.547t-37.547 92.16v85.333q0 17.067-11.947 29.013t-30.72 11.947-30.72-11.947-11.947-29.013v-85.333q0-88.747 63.147-151.893t148.48-63.147h3.413zM129.707 341.333h-85.333q-20.48 0-32.427-11.947t-11.947-30.72 11.947-30.72 29.013-11.947h88.747q51.2 0 88.747-37.547t37.547-88.747v-85.333q0-20.48 11.947-32.427t30.72-11.947 30.72 11.947 11.947 29.013v88.747q0 85.333-63.147 148.48t-148.48 63.147z" />
<glyph unicode="&#xe958;" glyph-name="fi-rr-cream" data-tags="fi-rr-cream" d="M938.667 505.173v51.2q0 37.547-23.893 71.68t-61.44 47.787q3.413 167.253-78.507 314.027-13.653 17.067-32.427 27.307t-40.96 8.533-40.96-13.653-29.013-32.427q-27.307-47.787-52.907-64.853t-66.56-17.067h-85.333q-64.853 0-121.173-27.307t-92.16-78.507-39.253-116.053q-40.96-13.653-64.853-46.080t-23.893-76.8v-47.787q-37.547-13.653-61.44-47.787t-23.893-75.093v-167.253q0-88.747 63.147-151.893t148.48-63.147h600.747q85.333 0 148.48 63.147t63.147 148.48v174.080q0 37.547-23.893 71.68t-61.44 47.787zM426.667 812.373h85.333q61.44-3.413 114.347 32.427t80.213 93.867q64.853-119.467 61.44-256h-505.173q10.24 58.027 56.32 95.573t107.52 34.133zM170.667 556.373q0 17.067 11.947 29.013t29.013 11.947h600.747q17.067 0 29.013-11.947t11.947-29.013v-44.373h-682.667v44.373zM938.667 215.040q0-54.613-37.547-92.16t-92.16-37.547h-593.92q-54.613 0-92.16 37.547t-37.547 88.747v174.080q0 17.067 11.947 29.013t29.013 11.947h771.413q17.067 0 29.013-11.947t11.947-32.427v-167.253z" />
<glyph unicode="&#xe95e;" glyph-name="fi-rr-cursor-finger" data-tags="fi-rr-cursor-finger" d="M768 624.64l-256 51.2v215.040q0 47.787-30.72 85.333t-75.093 44.373q-58.027 10.24-104.107-27.307t-46.080-98.987v-283.307l-119.467-153.6q-54.613-64.853-51.2-148.48t61.44-141.653l102.4-102.4q30.72-30.72 69.973-47.787t83.627-17.067h324.267q85.333 0 148.48 63.147t63.147 148.48v204.8q0 75.093-47.787 133.12t-122.88 75.093zM853.333 215.040q0-54.613-37.547-92.16t-92.16-37.547h-320.853q-54.613 0-92.16 37.547l-102.4 102.4q-34.133 37.547-35.84 88.747t32.427 88.747l51.2 68.267v-170.667q0-20.48 11.947-32.427t30.72-11.947 30.72 11.947 11.947 32.427v597.333q0 17.067 15.36 30.72t32.427 10.24 27.307-17.067 10.24-30.72v-249.173q0-17.067 10.24-29.013t23.893-15.36l290.133-58.027q44.373-6.827 73.387-42.667t29.013-80.213v-201.387z" />
<glyph unicode="&#xe95f;" glyph-name="fi-rr-cursor-plus" data-tags="fi-rr-cursor-plus" d="M682.667 682.667q-92.16 0-170.667-46.080t-124.587-124.587-46.080-170.667 46.080-170.667 124.587-124.587 170.667-46.080 170.667 46.080 124.587 124.587 46.080 170.667-46.080 170.667-124.587 124.587-170.667 46.080zM682.667 85.333q-68.267 0-128 34.133t-93.867 93.867-34.133 128 34.133 128 93.867 93.867 128 34.133 128-34.133 93.867-93.867 34.133-128-34.133-128-93.867-93.867-128-34.133zM853.333 341.333q0-17.067-11.947-29.013t-29.013-11.947h-85.333v-85.333q0-20.48-13.653-32.427t-30.72-11.947-30.72 11.947-13.653 32.427v85.333h-81.92q-20.48 0-32.427 11.947t-11.947 29.013 11.947 29.013 29.013 11.947h88.747v88.747q0 17.067 11.947 29.013t29.013 11.947 30.72-11.947 13.653-29.013v-85.333h85.333q17.067 0 29.013-13.653t11.947-30.72zM512 812.373q0 27.307-23.893 37.547l-375.467 170.667q-23.893 6.827-47.787 1.707t-40.96-23.893-22.187-42.667 5.12-47.787l167.253-372.053q10.24-23.893 37.547-23.893h3.413q23.893 0 37.547 23.893l78.507 157.013 157.013 78.507q23.893 13.653 23.893 40.96zM279.893 764.587q-13.653-6.827-20.48-20.48l-44.373-92.16-129.707 286.72 283.307-129.707z" />
<glyph unicode="&#xe960;" glyph-name="fi-rr-cursor-text-alt" data-tags="fi-rr-cursor-text-alt" d="M938.667 283.307v457.387q44.373 20.48 68.267 63.147t15.36 92.16-42.667 83.627-83.627 42.667-92.16-15.36-63.147-68.267h-457.387q-20.48 44.373-63.147 68.267t-92.16 15.36-83.627-42.667-42.667-83.627 15.36-92.16 68.267-63.147v-457.387q-44.373-20.48-68.267-63.147t-15.36-92.16 42.667-83.627 83.627-42.667 92.16 15.36 63.147 68.267h457.387q20.48-44.373 63.147-68.267t92.16-15.36 83.627 42.667 42.667 83.627-15.36 92.16-68.267 63.147zM727.040 170.667h-430.080q-6.827 47.787-42.667 83.627t-83.627 42.667v430.080q47.787 6.827 83.627 42.667t42.667 83.627h430.080q6.827-47.787 42.667-83.627t83.627-42.667v-430.080q-47.787-6.827-83.627-42.667t-42.667-83.627zM873.813 938.667q27.307 0 46.080-18.773t18.773-46.080-18.773-46.080-46.080-18.773-46.080 18.773-18.773 46.080 18.773 46.080 46.080 18.773zM150.187 938.667q27.307 0 46.080-18.773t18.773-46.080-18.773-46.080-46.080-18.773-46.080 18.773-18.773 46.080 18.773 46.080 46.080 18.773zM150.187 85.333q-27.307 0-46.080 18.773t-18.773 46.080 18.773 46.080 46.080 18.773 46.080-18.773 17.067-46.080-18.773-46.080-44.373-18.773zM873.813 85.333q-27.307 0-46.080 18.773t-18.773 46.080 18.773 44.373 46.080 18.773 46.080-17.067 18.773-46.080-18.773-46.080-46.080-18.773zM556.373 641.707v-129.707h40.96q17.067 0 30.72-11.947t13.653-30.72-13.653-30.72-30.72-11.947h-40.96v-40.96q0-20.48 11.947-32.427t29.013-11.947 30.72-11.947 11.947-30.72-13.653-30.72-29.013-11.947q-47.787 0-85.333 34.133-37.547-34.133-85.333-34.133-17.067 0-29.013 11.947t-13.653 30.72 11.947 30.72 30.72 11.947 30.72 11.947 13.653 32.427v40.96h-44.373q-17.067 0-29.013 11.947t-11.947 30.72 11.947 30.72 29.013 11.947h44.373v129.707q0 17.067-13.653 29.013t-30.72 11.947-29.013 11.947-11.947 30.72 11.947 30.72 29.013 11.947q47.787 0 85.333-34.133 37.547 34.133 85.333 34.133 17.067 0 30.72-11.947t13.653-30.72-13.653-30.72-30.72-11.947-30.72-11.947-13.653-29.013h3.413z" />
<glyph unicode="&#xe961;" glyph-name="fi-rr-cursor-text" data-tags="fi-rr-cursor-text" d="M768 85.333h-85.333q-54.613 0-90.453 37.547t-35.84 88.747v129.707h126.293q17.067 0 30.72 11.947t13.653 30.72-13.653 30.72-30.72 11.947h-126.293v385.707q0 51.2 35.84 88.747t90.453 37.547h85.333q17.067 0 30.72 11.947t13.653 30.72-13.653 30.72-30.72 11.947h-85.333q-51.2 0-95.573-22.187t-75.093-63.147q-30.72 40.96-75.093 63.147t-95.573 22.187h-85.333q-17.067 0-29.013-11.947t-11.947-30.72 11.947-30.72 29.013-11.947h85.333q54.613 0 90.453-37.547t39.253-92.16v-382.293h-129.707q-17.067 0-29.013-11.947t-11.947-30.72 11.947-30.72 29.013-11.947h129.707v-126.293q0-54.613-37.547-92.16t-92.16-37.547h-85.333q-17.067 0-29.013-11.947t-11.947-30.72 11.947-30.72 29.013-11.947h85.333q51.2 0 95.573 22.187t75.093 63.147q30.72-40.96 75.093-63.147t95.573-22.187h85.333q17.067 0 30.72 11.947t13.653 30.72-13.653 30.72-30.72 11.947z" />
<glyph unicode="&#xe962;" glyph-name="fi-rr-cursor" data-tags="fi-rr-cursor" d="M641.707 0q-37.547 0-68.267 18.773t-47.787 49.493l-133.12 286.72-150.187-129.707q-10.24-10.24-22.187-11.947t-23.893 3.413-18.773 15.36-6.827 23.893v641.707q0 37.547 20.48 68.267t54.613 46.080 71.68 10.24 64.853-29.013l457.387-436.907q10.24-10.24 11.947-22.187t-1.707-23.893-13.653-18.773-20.48-10.24l-191.147-17.067 129.707-279.893q13.653-30.72 11.947-63.147t-18.773-59.733-46.080-44.373-59.733-17.067zM406.187 467.627h10.24q20.48-3.413 30.72-23.893l157.013-337.92q6.827-13.653 23.893-18.773t32.427 3.413 20.48 25.6-1.707 30.72l-157.013 337.92q-10.24 20.48 0 39.253t34.133 22.187l157.013 13.653-389.12 368.64q-6.827 10.24-18.773 11.947t-23.893-3.413-18.773-17.067-6.827-22.187v-546.133l122.88 105.813q13.653 10.24 27.307 10.24z" />
<glyph unicode="&#xe963;" glyph-name="fi-rr-dart" data-tags="fi-rr-dart" d="M853.333 1024h-75.093q-71.68 0-119.467-51.2l-139.947-136.533q-47.787-51.2-51.2-122.88v-146.773q-317.44-235.52-344.747-262.827t-34.133-68.267 10.24-75.093l-85.333-88.747q-13.653-10.24-13.653-29.013t13.653-29.013v0q10.24-13.653 29.013-13.653t29.013 13.653l85.333 85.333q37.547-17.067 78.507-10.24t68.267 34.133 262.827 348.16h150.187q68.267-3.413 119.467 47.787l136.533 139.947q51.2 47.787 51.2 119.467v75.093q0 71.68-49.493 121.173t-121.173 49.493zM242.347 184.32q-10.24-13.653-29.013-13.653t-30.72 11.947-11.947 30.72 13.653 29.013q17.067 20.48 252.587 194.56-174.080-235.52-194.56-252.587zM938.667 778.24q0-34.133-23.893-61.44l-139.947-136.533q-23.893-27.307-61.44-23.893h-81.92l40.96 54.613 167.253 170.667q20.48 17.067 13.653 40.96t-30.72 30.72-40.96-13.653l-170.667-167.253-54.613-40.96v81.92q0 37.547 23.893 61.44l136.533 139.947q27.307 23.893 61.44 23.893h75.093q34.133 0 59.733-25.6t25.6-59.733v-75.093z" />
<glyph unicode="&#xe964;" glyph-name="fi-rr-dashboard" data-tags="fi-rr-dashboard" d="M1020.587 535.893q-17.067 133.12-95.573 237.227t-196.267 160.427-250.88 47.787-242.347-80.213-172.373-186.027-63.147-244.053q0-105.813 40.96-203.093t119.467-168.96q61.44-58.027 143.36-54.613h416.427q40.96-3.413 80.213 13.653t69.973 44.373q85.333 85.333 124.587 199.68t25.6 233.813zM808.96 163.84q-37.547-37.547-88.747-34.133h-416.427q-47.787-3.413-85.333 30.72-64.853 58.027-98.987 139.947t-34.133 170.667 37.547 172.373 105.813 145.067q58.027 51.2 131.413 80.213t151.893 25.6h51.2q119.467-13.653 216.747-92.16t136.533-194.56 10.24-237.227-117.76-206.507zM334.507 286.72q10.24-13.653 10.24-30.72t-11.947-29.013-29.013-13.653-30.72 11.947q-75.093 71.68-95.573 174.080t18.773 197.973 126.293 153.6 189.44 58.027q23.893 3.413 44.373 0t32.427-18.773 8.533-32.427-17.067-27.307-30.72-6.827q-81.92 10.24-155.307-29.013t-110.933-112.64-23.893-155.307 75.093-139.947zM849.92 518.827q3.413-23.893 3.413-51.2 0-68.267-27.307-131.413t-75.093-110.933q-13.653-13.653-30.72-11.947t-29.013 13.653-11.947 29.013 10.24 30.72q44.373 40.96 64.853 98.987t10.24 119.467q-3.413 17.067 8.533 32.427t29.013 17.067 30.72-8.533 17.067-27.307zM593.92 491.52q6.827-27.307-3.413-54.613t-35.84-42.667-54.613-11.947-51.2 23.893-25.6 49.493 11.947 54.613 42.667 37.547 54.613 5.12l163.84 160.427q17.067 17.067 40.96 10.24t30.72-30.72-13.653-40.96z" />
<glyph unicode="&#xe965;" glyph-name="fi-rr-data-transfer" data-tags="fi-rr-data-transfer" d="M341.333 1024h-170.667q-71.68 0-121.173-49.493t-49.493-121.173v-40.96q0-71.68 49.493-121.173t121.173-49.493h44.373v-85.333h-85.333q-20.48 0-32.427-13.653t-11.947-30.72 11.947-30.72 32.427-13.653h256q17.067 3.413 29.013 15.36t11.947 29.013-11.947 30.72-32.427 13.653h-81.92v85.333h40.96q71.68 0 121.173 49.493t49.493 117.76v44.373q0 71.68-49.493 121.173t-121.173 49.493zM426.667 812.373q0-37.547-25.6-63.147t-59.733-22.187h-170.667q-34.133 0-59.733 23.893t-25.6 61.44v40.96q0 34.133 25.6 59.733t59.733 25.6h170.667q34.133 0 59.733-25.6t25.6-59.733v-40.96zM853.333 556.373h-85.333q-71.68 0-121.173-51.2t-49.493-119.467v-215.040q0-71.68 49.493-121.173t121.173-49.493h85.333q71.68 0 121.173 49.493t49.493 121.173v215.040q0 68.267-49.493 119.467t-121.173 51.2zM938.667 170.667q0-34.133-25.6-59.733t-59.733-25.6h-85.333q-34.133 0-59.733 25.6t-25.6 59.733v215.040q0 34.133 25.6 59.733t59.733 25.6h85.333q34.133 0 59.733-25.6t25.6-63.147v-211.627zM597.333 853.333q0 17.067 11.947 30.72t29.013 13.653h88.747q51.2 0 88.747-37.547t37.547-92.16v-85.333q0-17.067-11.947-29.013t-30.72-11.947-30.72 11.947-11.947 29.013v85.333q0 17.067-11.947 30.72t-29.013 13.653h-85.333q-20.48-3.413-32.427 10.24t-11.947 30.72zM512 170.667q0-17.067-11.947-29.013t-29.013-11.947h-129.707q-54.613 0-90.453 35.84t-39.253 90.453v85.333q3.413 17.067 15.36 29.013t29.013 11.947 29.013-11.947 11.947-29.013v-85.333q3.413-17.067 15.36-29.013t29.013-11.947h129.707q17.067 0 29.013-13.653t11.947-30.72zM853.333 170.667q0-17.067-11.947-29.013t-30.72-11.947-30.72 11.947-11.947 29.013 11.947 29.013 30.72 13.653 30.72-11.947 11.947-30.72z" />
<glyph unicode="&#xe966;" glyph-name="fi-rr-database" data-tags="fi-rr-database" d="M1024 532.48q0 44.373-18.773 83.627t-52.907 66.56q47.787 37.547 64.853 97.28t-3.413 116.053-69.973 92.16-110.933 35.84h-641.707q-61.44 0-110.933-35.84t-69.973-92.16-3.413-116.053 64.853-97.28q-34.133-27.307-52.907-66.56t-18.773-83.627 18.773-83.627 52.907-63.147q-47.787-40.96-64.853-98.987t3.413-116.053 69.973-93.867 110.933-32.427h641.707q61.44-3.413 110.933 32.427t69.973 93.867 3.413 116.053-64.853 98.987q34.133 23.893 52.907 63.147t18.773 83.627zM85.333 832.853q0 44.373 30.72 75.093t75.093 30.72h23.893v-40.96q0-20.48 11.947-32.427t29.013-11.947 29.013 11.947 11.947 29.013v44.373h88.747v-40.96q0-20.48 11.947-32.427t29.013-11.947 30.72 11.947 13.653 29.013v44.373h361.813q44.373 0 75.093-30.72t30.72-75.093-30.72-75.093-75.093-30.72h-641.707q-44.373-3.413-75.093 29.013t-30.72 76.8zM938.667 235.52q0-44.373-30.72-75.093t-75.093-30.72h-641.707q-44.373 0-75.093 30.72t-30.72 75.093 30.72 75.093 75.093 30.72h23.893v-40.96q0-20.48 11.947-32.427t29.013-11.947 29.013 11.947 11.947 32.427v40.96h88.747v-40.96q-3.413-20.48 10.24-32.427t30.72-11.947 30.72 11.947 13.653 32.427v40.96h361.813q44.373 0 75.093-30.72t30.72-75.093zM191.147 426.667q-44.373 0-75.093 30.72t-30.72 75.093 30.72 76.8 75.093 32.427h23.893v-44.373q0-17.067 11.947-30.72t29.013-11.947 29.013 13.653 11.947 29.013v44.373h88.747v-44.373q0-17.067 11.947-30.72t29.013-11.947 30.72 13.653 13.653 29.013v44.373h361.813q44.373 0 75.093-32.427t30.72-76.8-30.72-75.093-75.093-30.72h-641.707z" />
<glyph unicode="&#xe968;" glyph-name="fi-rr-diamond" data-tags="fi-rr-diamond" d="M989.867 778.24l-126.293 174.080q-23.893 34.133-61.44 52.907t-78.507 18.773h-423.253q-40.96 0-76.8-18.773t-59.733-52.907l-133.12-174.080q-30.72-44.373-30.72-102.4t37.547-102.4l375.467-525.653q17.067-23.893 42.667-35.84t56.32-11.947v0q30.72 0 56.32 13.653t46.080 37.547l372.053 518.827q37.547 44.373 37.547 102.4t-34.133 105.813zM791.893 901.12l129.707-174.080 3.413-3.413h-211.627l-58.027 215.040h68.267q44.373 0 68.267-37.547zM512 208.213l-116.053 433.493h232.107zM399.36 727.040l58.027 211.627h109.227l58.027-211.627h-225.28zM232.107 904.533q23.893 34.133 68.267 34.133h68.267l-58.027-211.627h-211.627zM105.813 624.64q-6.827 6.827-10.24 17.067h211.627l129.707-481.28zM587.093 160.427l129.707 481.28h211.627q-3.413-10.24-10.24-20.48z" />
<glyph unicode="&#xe969;" glyph-name="fi-rr-dice" data-tags="fi-rr-dice" d="M812.373 0h-597.333q-88.747 0-151.893 63.147t-63.147 151.893v597.333q0 85.333 63.147 148.48t148.48 63.147h600.747q85.333 0 148.48-63.147t63.147-148.48v-597.333q0-88.747-63.147-151.893t-148.48-63.147zM215.040 938.667q-54.613 0-92.16-37.547t-37.547-92.16v-593.92q0-54.613 37.547-92.16t88.747-37.547h600.747q51.2 0 88.747 37.547t37.547 92.16v597.333q0 51.2-37.547 88.747t-92.16 37.547h-593.92zM471.040 512q0-17.067 11.947-30.72t29.013-13.653 30.72 13.653 13.653 30.72-13.653 30.72-30.72 13.653-30.72-13.653-13.653-30.72h3.413zM256 727.040q0-20.48 11.947-32.427t30.72-11.947 30.72 11.947 11.947 30.72-11.947 30.72-30.72 11.947-30.72-11.947-11.947-29.013zM682.667 727.040q0-20.48 11.947-32.427t30.72-11.947 30.72 11.947 11.947 30.72-11.947 30.72-30.72 11.947-30.72-11.947-11.947-29.013zM256 300.373q0-20.48 11.947-32.427t30.72-11.947 30.72 11.947 11.947 30.72-11.947 30.72-30.72 11.947-30.72-11.947-11.947-32.427v3.413zM682.667 300.373q0-20.48 11.947-32.427t30.72-11.947 30.72 11.947 11.947 30.72-11.947 30.72-30.72 11.947-30.72-11.947-11.947-32.427v3.413z" />
<glyph unicode="&#xe96a;" glyph-name="fi-rr-diploma" data-tags="fi-rr-diploma" d="M471.040 512q17.067 0 29.013-11.947t11.947-30.72-11.947-30.72-29.013-11.947h-129.707q-17.067 0-29.013 11.947t-11.947 30.72 11.947 30.72 29.013 11.947h129.707zM727.040 641.707q0 17.067-13.653 29.013t-30.72 11.947h-341.333q-17.067 0-29.013-11.947t-11.947-30.72 11.947-30.72 29.013-11.947h341.333q17.067 0 30.72 11.947t13.653 29.013v3.413zM341.333 768h341.333q17.067 0 30.72 11.947t13.653 30.72-13.653 30.72-30.72 11.947h-341.333q-17.067 0-29.013-11.947t-11.947-30.72 11.947-30.72 29.013-11.947zM853.333 194.56v-163.84q0-20.48-18.773-29.013t-32.427 8.533l-34.133 30.72-34.133-30.72q-13.653-17.067-32.427-8.533t-18.773 29.013v163.84q-51.2 27.307-73.387 81.92t-6.827 109.227 61.44 90.453 104.107 35.84q20.48 0 44.373-6.827v307.2q0 51.2-37.547 88.747t-92.16 37.547h-341.333q-54.613 0-92.16-37.547t-37.547-92.16v-508.587q3.413-54.613 39.253-92.16t90.453-37.547h215.040q17.067 0 29.013-11.947t11.947-30.72-11.947-30.72-29.013-11.947h-215.040q-88.747 0-150.187 63.147t-64.853 148.48v515.413q3.413 85.333 64.853 148.48t150.187 63.147h341.333q88.747 0 150.187-63.147t64.853-148.48v-358.4q23.893-30.72 34.133-66.56t5.12-73.387-27.307-69.973-56.32-49.493zM853.333 341.333q0 34.133-25.6 59.733t-59.733 25.6-59.733-25.6-25.6-59.733 25.6-59.733 59.733-25.6 59.733 25.6 25.6 59.733z" />
<glyph unicode="&#xe96b;" glyph-name="fi-rr-disk" data-tags="fi-rr-disk" d="M512 597.333q-71.68 0-121.173-49.493t-49.493-121.173 49.493-121.173 121.173-49.493 121.173 49.493 49.493 121.173-49.493 121.173-121.173 49.493zM512 341.333q-34.133 0-59.733 25.6t-25.6 59.733 25.6 59.733 59.733 25.6 59.733-25.6 25.6-59.733-25.6-59.733-59.733-25.6zM962.56 846.507l-116.053 116.053q-27.307 30.72-66.56 46.080t-83.627 15.36h-481.28q-88.747 0-151.893-63.147t-63.147-148.48v-597.333q0-88.747 63.147-151.893t148.48-63.147h600.747q85.333 0 148.48 63.147t63.147 148.48v484.693q0 44.373-15.36 83.627t-46.080 66.56zM727.040 935.253v-37.547q0-54.613-37.547-92.16t-92.16-37.547h-170.667q-54.613 0-90.453 37.547t-35.84 92.16v40.96h395.947q13.653 0 27.307-3.413h3.413zM938.667 215.040q0-54.613-37.547-92.16t-92.16-37.547h-593.92q-54.613 0-92.16 37.547t-37.547 88.747v600.747q0 51.2 37.547 88.747t88.747 37.547v-40.96q3.413-88.747 64.853-151.893t150.187-63.147h170.667q81.92 0 143.36 56.32t68.267 141.653l92.16-92.16q37.547-37.547 37.547-92.16v-481.28z" />
<glyph unicode="&#xe96c;" glyph-name="fi-rr-doctor" data-tags="fi-rr-doctor" d="M812.373 812.373h-129.707v40.96q0 54.613-37.547 92.16t-92.16 37.547h-81.92q-54.613 0-92.16-37.547t-37.547-92.16v-40.96h-126.293q-88.747-3.413-151.893-64.853t-63.147-150.187v-341.333q0-88.747 63.147-150.187t148.48-64.853h600.747q85.333 3.413 148.48 64.853t63.147 150.187v341.333q0 88.747-63.147 150.187t-148.48 64.853zM426.667 853.333q0 17.067 11.947 30.72t32.427 13.653h85.333q17.067 0 29.013-13.653t11.947-30.72v-40.96h-170.667v40.96zM938.667 256q0-54.613-37.547-90.453t-92.16-35.84h-593.92q-54.613 0-92.16 35.84t-37.547 90.453v341.333q0 54.613 37.547 92.16t88.747 37.547h600.747q51.2 0 88.747-37.547t37.547-92.16v-341.333zM682.667 426.667q0-17.067-11.947-29.013t-29.013-11.947h-85.333v-85.333q0-20.48-13.653-32.427t-30.72-11.947-30.72 11.947-13.653 32.427v85.333h-81.92q-20.48-3.413-32.427 10.24t-11.947 30.72 11.947 30.72 32.427 13.653h85.333v85.333q0 17.067 11.947 29.013t29.013 11.947 30.72-11.947 13.653-29.013v-85.333h85.333q17.067 0 29.013-13.653t11.947-30.72z" />
<glyph unicode="&#xe96d;" glyph-name="fi-rr-document-signed" data-tags="fi-rr-document-signed" d="M832.853 890.88l-71.68 71.68q-27.307 30.72-66.56 46.080t-83.627 15.36h-269.653q-88.747 0-150.187-63.147t-64.853-148.48v-597.333q3.413-88.747 64.853-151.893t150.187-63.147h341.333q88.747 0 150.187 63.147t64.853 148.48v529.067q0 40.96-17.067 80.213t-47.787 69.973zM774.827 829.44q6.827-6.827 13.653-17.067h-105.813v105.813q10.24-6.827 20.48-17.067zM812.373 215.040q-3.413-54.613-39.253-92.16t-90.453-37.547h-341.333q-54.613 0-92.16 37.547t-37.547 88.747v600.747q3.413 51.2 39.253 88.747t90.453 37.547h256v-126.293q0-37.547 25.6-61.44t59.733-23.893h129.707v-512zM682.667 641.707q17.067 0 30.72-13.653t13.653-30.72-13.653-30.72-30.72-13.653h-341.333q-17.067 3.413-29.013 15.36t-11.947 29.013 11.947 30.72 29.013 13.653h341.333zM727.040 426.667q0-17.067-13.653-29.013t-30.72-11.947h-341.333q-17.067-3.413-29.013 10.24t-11.947 30.72 11.947 30.72 29.013 13.653h341.333q17.067 0 30.72-13.653t13.653-30.72zM716.8 279.893q10.24-13.653 8.533-30.72t-18.773-27.307q-64.853-47.787-146.773-51.2-47.787 0-85.333 30.72-17.067 13.653-30.72 13.653-40.96-6.827-75.093-34.133-17.067-10.24-34.133-8.533t-27.307 15.36-8.533 30.72 15.36 27.307q58.027 47.787 129.707 51.2 44.373 0 78.507-27.307 17.067-13.653 37.547-13.653 54.613 3.413 98.987 34.133 13.653 10.24 30.72 8.533t27.307-18.773z" />
<glyph unicode="&#xe96e;" glyph-name="fi-rr-document" data-tags="fi-rr-document" d="M727.040 426.667q0-17.067-13.653-29.013t-30.72-11.947h-341.333q-17.067-3.413-29.013 10.24t-11.947 30.72 11.947 30.72 29.013 13.653h341.333q17.067 0 30.72-13.653t13.653-30.72zM556.373 300.373h-215.040q-17.067 0-29.013-13.653t-11.947-30.72 11.947-29.013 29.013-11.947h215.040q17.067 0 29.013 11.947t11.947 29.013-11.947 29.013-29.013 11.947v3.413zM938.667 576.853v-361.813q0-88.747-63.147-151.893t-148.48-63.147h-426.667q-88.747 0-151.893 63.147t-63.147 151.893v597.333q0 85.333 63.147 148.48t148.48 63.147h194.56q58.027 0 114.347-22.187t97.28-66.56l146.773-146.773q44.373-40.96 66.56-97.28t22.187-114.347zM641.707 877.227q-20.48 17.067-44.373 30.72v-180.907q0-20.48 11.947-32.427t29.013-11.947h184.32q-13.653 23.893-30.72 44.373zM853.333 576.853v13.653l-3.413 6.827h-208.213q-54.613 0-92.16 37.547t-37.547 92.16v208.213l-20.48 3.413h-191.147q-54.613 0-92.16-37.547t-37.547-92.16v-593.92q0-54.613 37.547-92.16t92.16-37.547h426.667q51.2 0 88.747 37.547t37.547 92.16v361.813z" />
<glyph unicode="&#xe96f;" glyph-name="fi-rr-dollar" data-tags="fi-rr-dollar" d="M593.92 853.333q54.613 0 92.16-37.547t40.96-92.16q0-20.48 11.947-32.427t29.013-11.947 29.013 11.947 15.36 32.427v3.413q-3.413 88.747-66.56 150.187t-151.893 61.44h-37.547v44.373q0 17.067-13.653 29.013t-30.72 11.947-30.72-11.947-13.653-29.013v-44.373h-37.547q-78.507 0-139.947-51.2t-73.387-129.707 29.013-146.773 116.053-92.16l109.227-37.547v-310.613h-40.96q-54.613 0-92.16 37.547t-40.96 92.16q3.413 20.48-10.24 32.427t-30.72 11.947-29.013-11.947-11.947-32.427v-3.413q0-88.747 63.147-150.187t151.893-61.44h40.96v-40.96q0-20.48 11.947-32.427t29.013-11.947 30.72 11.947 13.653 29.013v44.373h37.547q78.507 0 139.947 51.2t73.387 129.707-29.013 146.773-116.053 92.16l-105.813 37.547v310.613h37.547zM634.88 426.667q47.787-17.067 71.68-58.027t17.067-88.747-44.373-78.507-85.333-30.72h-37.547v283.307zM471.040 570.027l-81.92 27.307q-47.787 17.067-71.68 58.027t-17.067 88.747 44.373 78.507 85.333 30.72h40.96v-283.307z" />
<glyph unicode="&#xe971;" glyph-name="fi-rr-duplicate" data-tags="fi-rr-duplicate" d="M901.12 884.053l-95.573 102.4q-37.547 37.547-92.16 37.547h-201.387q-75.093 0-134.827-47.787t-73.387-122.88h-3.413q-88.747 0-151.893-63.147t-63.147-148.48v-426.667q0-88.747 63.147-151.893t148.48-63.147h259.413q85.333 0 148.48 63.147t63.147 148.48v6.827q75.093 13.653 122.88 73.387t47.787 134.827v368.64q0 51.2-37.547 88.747zM556.373 85.333h-256q-54.613 0-92.16 37.547t-37.547 88.747v430.080q0 51.2 37.547 88.747t88.747 37.547v-341.333q3.413-88.747 64.853-150.187t150.187-64.853h170.667q0-51.2-37.547-88.747t-92.16-37.547h3.413zM727.040 300.373h-215.040q-54.613 0-90.453 35.84t-35.84 90.453v385.707q0 51.2 35.84 88.747t90.453 37.547h170.667v-85.333q0-34.133 25.6-59.733t59.733-25.6h85.333v-341.333q0-54.613-37.547-90.453t-92.16-35.84h3.413z" />
<glyph unicode="&#xe972;" glyph-name="fi-rr-e-learning" data-tags="fi-rr-e-learning" d="M849.92 890.88q-17.067 71.68-80.213 109.227t-134.827 17.067l-71.68-20.48q-30.72-6.827-51.2-27.307-20.48 20.48-51.2 27.307l-71.68 20.48q-71.68 20.48-134.827-17.067t-80.213-109.227q-75.093-13.653-124.587-71.68t-49.493-136.533v-296.96q0-88.747 63.147-151.893t148.48-63.147h259.413v-85.333h-129.707q-17.067 0-29.013-11.947t-13.653-30.72 11.947-30.72 30.72-11.947h341.333q17.067 0 29.013 11.947t13.653 30.72-11.947 30.72-30.72 11.947h-126.293v85.333h256q85.333 0 148.48 63.147t63.147 148.48v300.373q0 78.507-49.493 136.533t-124.587 71.68zM556.373 873.813q0 13.653 8.533 25.6t22.187 15.36l71.68 20.48q40.96 10.24 75.093-15.36t34.133-66.56v-167.253q0-30.72-17.067-52.907t-44.373-29.013l-150.187-44.373v314.027zM290.133 921.6q34.133 23.893 75.093 13.653l71.68-20.48q13.653-3.413 22.187-15.36t8.533-25.6v-314.027l-150.187 44.373q-27.307 6.827-44.373 29.013t-17.067 52.907v167.253q0 44.373 34.133 68.267zM938.667 385.707q0-54.613-37.547-92.16t-92.16-37.547h-593.92q-54.613 0-92.16 37.547t-37.547 92.16v296.96q0 40.96 23.893 73.387t61.44 46.080v-116.053q0-58.027 34.133-104.107t88.747-59.733l146.773-44.373q71.68-20.48 143.36 0l146.773 44.373q54.613 13.653 88.747 59.733t34.133 104.107v116.053q37.547-13.653 61.44-46.080t23.893-73.387v-296.96z" />
<glyph unicode="&#xe973;" glyph-name="fi-rr-earnings" data-tags="fi-rr-earnings" d="M812.373 1024h-215.040q-17.067 0-30.72-11.947t-11.947-30.72 13.653-30.72 29.013-11.947h215.040q27.307 0 54.613-13.653l-853.333-853.333q-20.48-17.067-13.653-40.96t30.72-30.72 40.96 13.653l853.333 853.333q13.653-27.307 13.653-58.027v-211.627q0-17.067 11.947-29.013t30.72-11.947 30.72 11.947 11.947 29.013v215.040q0 85.333-63.147 148.48t-148.48 63.147zM256 597.333q71.68 0 121.173 49.493t49.493 121.173-49.493 121.173-121.173 49.493-121.173-49.493-49.493-121.173 49.493-121.173 121.173-49.493zM256 853.333q34.133 0 59.733-25.6t25.6-59.733-25.6-59.733-59.733-25.6-59.733 25.6-25.6 59.733 25.6 59.733 59.733 25.6zM768 426.667q-71.68 0-121.173-49.493t-49.493-121.173 49.493-121.173 121.173-49.493 121.173 49.493 49.493 121.173-49.493 121.173-121.173 49.493zM768 170.667q-34.133 0-59.733 25.6t-25.6 59.733 25.6 59.733 59.733 25.6 59.733-25.6 25.6-59.733-25.6-59.733-59.733-25.6z" />
<glyph unicode="&#xe974;" glyph-name="fi-rr-edit-alt" data-tags="fi-rr-edit-alt" d="M395.947 467.627q-64.853-13.653-112.64-81.92-34.133-47.787-54.613-116.053-6.827-20.48 5.12-39.253t35.84-18.773h157.013q58.027 0 95.573 42.667t30.72 98.987-52.907 90.453-104.107 23.893zM983.040 641.707q-20.48 0-32.427-13.653t-11.947-30.72v-211.627h-170.667q-54.613 0-90.453-37.547t-35.84-92.16v-170.667h-426.667q-54.613 0-92.16 37.547t-37.547 88.747v600.747q0 51.2 37.547 88.747t88.747 37.547h474.453q17.067 0 29.013 11.947t11.947 30.72-11.947 30.72-29.013 11.947h-471.040q-88.747 0-151.893-63.147t-63.147-148.48v-597.333q0-88.747 63.147-151.893t148.48-63.147h484.693q44.373 0 83.627 15.36t66.56 46.080l116.053 116.053q30.72 27.307 46.080 66.56t15.36 83.627v269.653q0 17.067-11.947 30.72t-32.427 13.653h3.413zM788.48 122.88q-27.307-27.307-64.853-34.133v167.253q3.413 17.067 15.36 29.013t29.013 11.947h167.253q-6.827-34.133-34.133-61.44zM621.227 419.84q-13.653 0-23.893 6.827t-15.36 18.773-1.707 25.6 10.24 20.48l334.507 334.507q13.653 13.653 13.653 30.72t-11.947 29.013-29.013 10.24-30.72-11.947l-324.267-361.813q-10.24-10.24-29.013-11.947t-30.72 10.24-13.653 29.013 11.947 30.72l324.267 358.4q34.133 40.96 88.747 42.667t92.16-35.84 37.547-90.453-37.547-87.040l-334.507-334.507q-13.653-13.653-30.72-13.653z" />
<glyph unicode="&#xe975;" glyph-name="fi-rr-edit" data-tags="fi-rr-edit" d="M795.307 983.040l-518.827-518.827q-30.72-30.72-47.787-69.973t-13.653-80.213v-58.027q0-17.067 11.947-29.013t29.013-11.947h58.027q40.96-3.413 80.213 13.653t69.973 47.787l518.827 518.827q40.96 40.96 40.96 95.573t-39.253 92.16-93.867 37.547-95.573-37.547zM925.013 856.747l-522.24-522.24q-37.547-34.133-88.747-34.133h-13.653v13.653q0 51.2 34.133 88.747l522.24 522.24q13.653 13.653 34.133 13.653t34.133-13.653 13.653-34.133-13.653-34.133zM983.040 641.707q-20.48 0-32.427-13.653t-11.947-30.72v-211.627h-170.667q-54.613 0-90.453-37.547t-35.84-92.16v-170.667h-426.667q-54.613 0-92.16 37.547t-37.547 88.747v600.747q0 51.2 37.547 88.747t88.747 37.547h389.12q17.067 0 29.013 11.947t11.947 30.72-11.947 30.72-29.013 11.947h-385.707q-88.747 0-151.893-63.147t-63.147-148.48v-597.333q0-88.747 63.147-151.893t148.48-63.147h484.693q44.373 0 83.627 15.36t66.56 46.080l116.053 116.053q30.72 27.307 46.080 66.56t15.36 83.627v269.653q0 17.067-11.947 30.72t-29.013 13.653zM788.48 122.88q-27.307-27.307-64.853-34.133v167.253q3.413 17.067 15.36 29.013t29.013 11.947h167.253q-6.827-34.133-34.133-61.44z" />
<glyph unicode="&#xe978;" glyph-name="fi-rr-exclamation" data-tags="fi-rr-exclamation" d="M512 1024q-139.947 0-257.707-68.267t-186.027-186.027-68.267-257.707 68.267-257.707 186.027-186.027 257.707-68.267 257.707 68.267 186.027 186.027 68.267 257.707-68.267 257.707-186.027 186.027-257.707 68.267zM512 85.333q-116.053 0-213.333 58.027t-155.307 155.307-58.027 213.333 58.027 213.333 155.307 155.307 213.333 58.027 213.333-58.027 155.307-155.307 58.027-213.333-58.027-213.333-155.307-155.307-213.333-58.027zM512 812.373q-17.067-3.413-30.72-15.36t-13.653-29.013v-341.333q3.413-17.067 15.36-29.013t29.013-11.947 30.72 11.947 13.653 29.013v341.333q0 17.067-13.653 30.72t-30.72 13.653zM512 300.373v0q17.067 0 30.72-13.653t13.653-30.72v0q0-17.067-13.653-29.013t-30.72-11.947v0q-17.067 0-30.72 11.947t-13.653 29.013v0q3.413 17.067 15.36 29.013t29.013 11.947v3.413z" />
<glyph unicode="&#xe979;" glyph-name="fi-rr-expand" data-tags="fi-rr-expand" d="M812.373 0h-85.333q-20.48 0-32.427 11.947t-11.947 30.72 11.947 30.72 29.013 11.947h88.747q51.2 0 88.747 37.547t37.547 92.16v85.333q0 17.067 11.947 29.013t30.72 11.947 30.72-11.947 11.947-32.427v-81.92q0-88.747-63.147-151.893t-148.48-63.147zM44.373 682.667q-20.48 0-32.427 11.947t-11.947 29.013v88.747q0 85.333 63.147 148.48t148.48 63.147h88.747q17.067 0 29.013-11.947t11.947-30.72-11.947-30.72-32.427-11.947h-81.92q-54.613 0-92.16-37.547t-37.547-92.16v-81.92q0-20.48-11.947-32.427t-29.013-11.947zM300.373 0h-85.333q-88.747 0-151.893 63.147t-63.147 151.893v85.333q0 17.067 11.947 29.013t30.72 11.947 30.72-11.947 11.947-32.427v-81.92q0-54.613 37.547-92.16t88.747-37.547h88.747q17.067 0 29.013-11.947t11.947-30.72-11.947-30.72-32.427-11.947h3.413zM983.040 682.667q-20.48 0-32.427 11.947t-11.947 29.013v88.747q0 51.2-37.547 88.747t-92.16 37.547h-81.92q-20.48 0-32.427 11.947t-11.947 30.72 11.947 30.72 29.013 11.947h88.747q85.333 0 148.48-63.147t63.147-148.48v-85.333q0-20.48-11.947-32.427t-29.013-11.947z" />
<glyph unicode="&#xe97b;" glyph-name="fi-rr-eye-dropper" data-tags="fi-rr-eye-dropper" d="M986.453 802.133q37.547 40.96 37.547 93.867t-37.547 90.453-90.453 37.547-93.867-37.547l-102.4-105.813q-30.72-30.72-88.747-27.307t-105.813 30.72q-37.547 17.067-78.507 8.533t-64.853-40.96-20.48-75.093 34.133-69.973l58.027-61.44-348.16-348.16q-34.133-34.133-40.96-83.627t17.067-90.453l-47.787-51.2q-13.653-10.24-13.653-29.013t13.653-29.013v0q10.24-13.653 29.013-13.653t29.013 13.653l51.2 47.787q40.96-23.893 90.453-17.067t83.627 40.96l348.16 348.16 61.44-58.027q27.307-30.72 69.973-34.133t75.093 20.48 40.96 64.853-8.533 78.507q-27.307 47.787-30.72 105.813t27.307 88.747zM238.933 146.773q-20.48-17.067-46.080-17.067t-46.080 17.067-20.48 44.373 20.48 47.787l348.16 344.747 88.747-88.747zM822.613 761.173q-54.613-54.613-54.613-143.36 0-81.92 40.96-153.6 6.827-17.067-6.827-30.72-6.827-6.827-17.067-6.827t-20.48 6.827l-331.093 331.093q-10.24 13.653-3.413 29.013t23.893 15.36q3.413 3.413 10.24 0 71.68-40.96 153.6-40.96 88.747 0 143.36 54.613l102.4 102.4q13.653 13.653 30.72 13.653t30.72-11.947 13.653-30.72-13.653-32.427z" />
<glyph unicode="&#xe97d;" glyph-name="fi-rr-feather" data-tags="fi-rr-feather" d="M972.8 972.8q-30.72 34.133-73.387 46.080t-87.040 1.707q-167.253-44.373-315.733-128t-271.36-203.093q-51.2-51.2-75.093-116.053t-20.48-133.12q3.413-102.4 64.853-184.32l-180.907-184.32q-20.48-17.067-13.653-40.96t30.72-30.72 40.96 13.653l184.32 180.907q85.333-68.267 194.56-64.853 71.68 0 138.24 27.307t114.347 78.507q85.333 85.333 160.427 215.040 58.027 98.987 105.813 215.040 34.133 88.747 51.2 146.773 10.24 44.373-1.707 87.040t-46.080 73.387zM215.040 443.733q-3.413 51.2 15.36 98.987t52.907 85.333q23.893 23.893 58.027 51.2v-276.48l-85.333-85.333q-37.547 58.027-40.96 126.293zM641.707 296.96q-61.44-68.267-153.6-80.213t-170.667 39.253l211.627 215.040h245.76q-58.027-95.573-133.12-174.080zM935.253 832.853q-37.547-143.36-109.227-279.893h-211.627l139.947 143.36q20.48 17.067 13.653 40.96t-30.72 30.72-40.96-13.653l-269.653-266.24v259.413q187.733 129.707 406.187 187.733 10.24 3.413 20.48 3.413 34.133 0 61.44-23.893 13.653-17.067 20.48-37.547t0-44.373z" />
<glyph unicode="&#xe97e;" glyph-name="fi-rr-file-add" data-tags="fi-rr-file-add" d="M682.667 341.333q0-17.067-11.947-29.013t-29.013-11.947h-85.333v-85.333q0-20.48-13.653-32.427t-30.72-11.947-30.72 11.947-13.653 32.427v85.333h-81.92q-20.48 0-32.427 11.947t-11.947 29.013 11.947 29.013 32.427 11.947h85.333v88.747q0 17.067 11.947 29.013t29.013 11.947 30.72-11.947 13.653-29.013v-85.333h85.333q17.067 0 29.013-13.653t11.947-30.72zM938.667 576.853v-361.813q0-88.747-63.147-151.893t-148.48-63.147h-426.667q-88.747 0-151.893 63.147t-63.147 151.893v597.333q0 85.333 63.147 148.48t148.48 63.147h194.56q58.027 0 114.347-22.187t97.28-66.56l146.773-146.773q44.373-40.96 66.56-97.28t22.187-114.347zM641.707 877.227q-20.48 17.067-44.373 30.72v-180.907q0-20.48 11.947-32.427t29.013-11.947h184.32q-13.653 23.893-30.72 44.373zM853.333 576.853v13.653l-3.413 6.827h-208.213q-54.613 0-92.16 37.547t-37.547 92.16v208.213l-20.48 3.413h-191.147q-54.613 0-92.16-37.547t-37.547-92.16v-593.92q0-54.613 37.547-92.16t92.16-37.547h426.667q51.2 0 88.747 37.547t37.547 92.16v361.813z" />
<glyph unicode="&#xe97f;" glyph-name="fi-rr-file-ai" data-tags="fi-rr-file-ai" d="M320.853 808.96q-6.827 20.48-30.72 20.48v0q-20.48 0-27.307-20.48l-85.333-221.867q-3.413-10.24 0-20.48t13.653-13.653h10.24q20.48 0 27.307 17.067l13.653 37.547h98.987l13.653-37.547q3.413-10.24 13.653-15.36t20.48-1.707 15.36 13.653-1.707 20.48zM262.827 662.187l27.307 75.093 30.72-75.093h-58.027zM477.867 829.44q-10.24 0-17.067-6.827t-6.827-20.48v-221.867q0-13.653 6.827-20.48t18.773-6.827 18.773 6.827 6.827 20.48v221.867q0 13.653-6.827 20.48t-20.48 6.827zM812.373 1024h-597.333q-88.747 0-151.893-63.147t-63.147-148.48v-597.333q0-88.747 63.147-151.893t148.48-63.147h484.693q44.373 0 83.627 15.36t66.56 46.080l116.053 116.053q30.72 27.307 46.080 66.56t15.36 83.627v484.693q0 85.333-63.147 148.48t-148.48 63.147zM85.333 215.040v597.333q0 51.2 37.547 88.747t88.747 37.547h600.747q51.2 0 88.747-37.547t37.547-92.16v-423.253h-170.667q-54.613 0-90.453-37.547t-35.84-92.16v-170.667h-426.667q-54.613 0-92.16 37.547t-37.547 88.747v3.413zM788.48 122.88q-27.307-27.307-64.853-34.133v167.253q3.413 17.067 15.36 29.013t29.013 11.947h167.253q-6.827-34.133-34.133-61.44z" />
<glyph unicode="&#xe980;" glyph-name="fi-rr-file-check" data-tags="fi-rr-file-check" d="M849.92 788.48l-146.773 146.773q-40.96 44.373-97.28 66.56t-114.347 22.187h-191.147q-88.747 0-151.893-63.147t-63.147-148.48v-597.333q0-88.747 63.147-151.893t148.48-63.147h430.080q85.333 0 148.48 63.147t63.147 148.48v365.227q0 58.027-22.187 114.347t-66.56 97.28zM791.893 727.040q17.067-20.48 30.72-44.373h-180.907q-20.48 0-32.427 11.947t-11.947 32.427v180.907q23.893-13.653 44.373-30.72zM853.333 215.040q0-54.613-37.547-92.16t-92.16-37.547h-423.253q-54.613 0-92.16 37.547t-37.547 88.747v600.747q0 51.2 37.547 88.747t88.747 37.547h194.56l20.48-3.413v-208.213q0-54.613 37.547-92.16t92.16-37.547h208.213l3.413-20.48v-361.813zM713.387 457.387q13.653-13.653 11.947-30.72t-11.947-30.72l-153.6-146.773q-37.547-37.547-90.453-35.84t-90.453 35.84l-64.853 61.44q-13.653 10.24-15.36 27.307t10.24 30.72 29.013 15.36 30.72-11.947l68.267-58.027q13.653-13.653 32.427-15.36t29.013 11.947l153.6 146.773q13.653 13.653 30.72 11.947t30.72-11.947z" />
<glyph unicode="&#xe981;" glyph-name="fi-rr-file-delete" data-tags="fi-rr-file-delete" d="M648.533 416.427l-75.093-75.093 75.093-75.093q17.067-17.067 11.947-42.667t-30.72-30.72-42.667 11.947l-75.093 75.093-75.093-75.093q-13.653-13.653-30.72-13.653t-30.72 13.653-13.653 30.72 13.653 30.72l75.093 75.093-75.093 75.093q-13.653 13.653-13.653 30.72t13.653 30.72 30.72 13.653 30.72-13.653l75.093-75.093 75.093 75.093q13.653 13.653 30.72 13.653t30.72-13.653 13.653-30.72-13.653-30.72zM938.667 576.853v-361.813q0-88.747-63.147-151.893t-148.48-63.147h-426.667q-88.747 0-151.893 63.147t-63.147 151.893v597.333q0 85.333 63.147 148.48t148.48 63.147h194.56q58.027 0 114.347-22.187t97.28-66.56l146.773-146.773q44.373-40.96 66.56-97.28t22.187-114.347zM641.707 877.227q-20.48 17.067-44.373 30.72v-180.907q0-20.48 11.947-32.427t29.013-11.947h184.32q-13.653 23.893-30.72 44.373zM853.333 576.853v13.653l-3.413 6.827h-208.213q-54.613 0-92.16 37.547t-37.547 92.16v208.213l-20.48 3.413h-191.147q-54.613 0-92.16-37.547t-37.547-92.16v-593.92q0-54.613 37.547-92.16t92.16-37.547h426.667q51.2 0 88.747 37.547t37.547 92.16v361.813z" />
<glyph unicode="&#xe982;" glyph-name="fi-rr-file-eps" data-tags="fi-rr-file-eps" d="M296.96 774.827q10.24 0 18.773 8.533t8.533 18.773-8.533 18.773-18.773 8.533h-92.16q-13.653 0-20.48-8.533t-6.827-18.773v-221.867q0-10.24 6.827-18.773t20.48-8.533h92.16q10.24 0 18.773 8.533t8.533 18.773-8.533 18.773-18.773 8.533h-68.267v58.027h61.44q10.24 0 18.773 6.827t8.533 18.773-8.533 18.773-18.773 6.827h-61.44v58.027h68.267zM467.627 829.44h-64.853q-10.24 0-17.067-6.827l-6.827-10.24v-232.107q0-13.653 6.827-20.48t18.773-6.827 18.773 6.827 6.827 20.48v68.267h37.547q37.547 0 63.147 27.307t25.6 64.853-25.6 63.147-63.147 25.6zM467.627 703.147h-37.547v75.093h37.547q13.653 0 25.6-11.947t11.947-27.307-11.947-25.6-25.6-10.24zM812.373 1024h-597.333q-88.747 0-151.893-63.147t-63.147-148.48v-597.333q0-88.747 63.147-151.893t148.48-63.147h484.693q44.373 0 83.627 15.36t66.56 46.080l116.053 116.053q30.72 27.307 46.080 66.56t15.36 83.627v484.693q0 85.333-63.147 148.48t-148.48 63.147zM85.333 215.040v597.333q0 51.2 37.547 88.747t88.747 37.547h600.747q51.2 0 88.747-37.547t37.547-92.16v-423.253h-170.667q-54.613 0-90.453-37.547t-35.84-92.16v-170.667h-426.667q-54.613 0-92.16 37.547t-37.547 88.747v3.413zM788.48 122.88q-27.307-27.307-64.853-34.133v167.253q3.413 17.067 15.36 29.013t29.013 11.947h167.253q-6.827-34.133-34.133-61.44zM720.213 713.387q-10.24 3.413-23.893 6.827l-13.653 3.413q-13.653 3.413-25.6 13.653t-5.12 23.893 20.48 15.36 29.013-3.413 32.427-11.947q23.893-13.653 37.547 3.413 6.827 6.827 6.827 15.36t-6.827 17.067-17.067 11.947q-47.787 30.72-102.4 13.653-30.72-6.827-44.373-34.133-6.827-13.653-10.24-27.307-3.413-23.893 11.947-46.080t39.253-29.013l54.613-23.893q10.24-3.413 20.48-11.947t5.12-22.187-18.773-17.067q-20.48-10.24-40.96-3.413t-37.547 20.48l-3.413 6.827q-10.24 3.413-18.773 3.413t-15.36-6.827-8.533-18.773 8.533-18.773q37.547-40.96 95.573-40.96 34.133-3.413 59.733 17.067t35.84 54.613q0 17.067-6.827 35.84t-22.187 32.427-35.84 20.48z" />
<glyph unicode="&#xe983;" glyph-name="fi-rr-file-gif" data-tags="fi-rr-file-gif" d="M812.373 1024h-597.333q-88.747 0-151.893-63.147t-63.147-148.48v-597.333q0-88.747 63.147-151.893t148.48-63.147h484.693q44.373 0 83.627 15.36t66.56 46.080l116.053 116.053q30.72 27.307 46.080 66.56t15.36 83.627v484.693q0 85.333-63.147 148.48t-148.48 63.147zM85.333 215.040v597.333q0 51.2 37.547 88.747t88.747 37.547h600.747q51.2 0 88.747-37.547t37.547-92.16v-423.253h-170.667q-54.613 0-90.453-37.547t-35.84-92.16v-170.667h-426.667q-54.613 0-92.16 37.547t-37.547 88.747v3.413zM788.48 122.88q-27.307-27.307-64.853-34.133v167.253q3.413 17.067 15.36 29.013t29.013 11.947h167.253q-6.827-34.133-34.133-61.44zM341.333 651.947v-17.067q0-34.133-25.6-58.027t-59.733-23.893v0q-34.133 0-59.733 23.893t-25.6 58.027v92.16q0 34.133 25.6 59.733t59.733 22.187v0q23.893 0 44.373-11.947t30.72-32.427q6.827-13.653-1.707-27.307t-23.893-11.947-22.187 17.067-23.893 15.36-25.6-10.24-8.533-20.48v-88.747q0-13.653 8.533-23.893t22.187-10.24 22.187 10.24 8.533 20.48v6.827h-10.24q-6.827 0-13.653 5.12t-6.827 13.653 6.827 15.36 13.653 6.827h34.133q13.653 0 22.187-8.533t8.533-22.187zM597.333 655.36v-75.093q0-13.653-8.533-20.48t-18.773-6.827-18.773 6.827-8.533 20.48v204.8q0 10.24 8.533 18.773t18.773 8.533h85.333q13.653 0 20.48-8.533t6.827-20.48-6.827-18.773-20.48-6.827h-58.027v-47.787h51.2q13.653 0 20.48-8.533t6.827-18.773-6.827-18.773-20.48-8.533h-51.2zM471.040 785.067v-208.213q0-10.24-8.533-17.067t-20.48-6.827-18.773 6.827-6.827 17.067v208.213q0 10.24 6.827 18.773t18.773 8.533 20.48-8.533 8.533-18.773z" />
<glyph unicode="&#xe984;" glyph-name="fi-rr-file-music" data-tags="fi-rr-file-music" d="M641.707 512q0-17.067-13.653-30.72t-30.72-13.653h-40.96v-191.147q0-44.373-32.427-75.093t-76.8-30.72-75.093 30.72-30.72 75.093 30.72 75.093 75.093 30.72h20.48v88.747q3.413 34.133 27.307 58.027t61.44 23.893h40.96q17.067 3.413 30.72-10.24t13.653-30.72zM938.667 576.853v-361.813q0-88.747-63.147-151.893t-148.48-63.147h-426.667q-88.747 0-151.893 63.147t-63.147 151.893v597.333q0 85.333 63.147 148.48t148.48 63.147h194.56q58.027 0 114.347-22.187t97.28-66.56l146.773-146.773q44.373-40.96 66.56-97.28t22.187-114.347zM641.707 877.227q-20.48 17.067-44.373 30.72v-180.907q0-20.48 11.947-32.427t32.427-11.947h180.907q-13.653 23.893-30.72 44.373zM853.333 576.853v13.653l-3.413 6.827h-208.213q-54.613 0-92.16 37.547t-37.547 92.16v208.213l-20.48 3.413h-191.147q-54.613 0-92.16-37.547t-37.547-92.16v-593.92q0-54.613 37.547-92.16t92.16-37.547h426.667q51.2 0 88.747 37.547t37.547 92.16v361.813z" />
<glyph unicode="&#xe985;" glyph-name="fi-rr-file-psd" data-tags="fi-rr-file-psd" d="M638.293 583.68q0-13.653 8.533-20.48t18.773-6.827v0h61.44q51.2 0 81.92 39.253t30.72 97.28-30.72 95.573-81.92 37.547h-61.44q-13.653 0-20.48-6.827t-6.827-20.48v-215.040zM727.040 774.827q30.72 0 46.080-25.6t15.36-58.027-15.36-56.32-46.080-23.893l-34.133-3.413v167.253h34.133zM518.827 713.387q-10.24 3.413-23.893 6.827l-13.653 3.413q-13.653 3.413-25.6 13.653t-5.12 23.893 20.48 15.36 29.013-3.413 32.427-11.947q23.893-13.653 37.547 3.413 3.413 6.827 5.12 15.36t-5.12 17.067-17.067 11.947q-47.787 30.72-102.4 13.653-30.72-6.827-44.373-34.133-6.827-13.653-10.24-27.307-3.413-23.893 11.947-46.080t39.253-29.013l54.613-23.893q10.24-3.413 20.48-11.947t5.12-22.187-18.773-17.067q-20.48-10.24-40.96-3.413t-37.547 20.48l-6.827 6.827q-6.827 3.413-15.36 3.413t-15.36-6.827-8.533-18.773 5.12-18.773q40.96-40.96 98.987-40.96 34.133-3.413 59.733 17.067t32.427 54.613q3.413 17.067-3.413 35.84t-22.187 32.427-35.84 20.48zM266.24 829.44h-75.093l-6.827-6.827-6.827-10.24v-232.107q0-13.653 6.827-20.48t18.773-6.827 18.773 6.827 6.827 20.48v68.267h37.547q37.547 0 63.147 27.307t25.6 64.853-25.6 63.147-63.147 25.6zM266.24 703.147h-37.547v75.093h37.547q13.653 0 23.893-11.947t10.24-27.307-10.24-25.6-23.893-10.24zM812.373 1024h-597.333q-88.747 0-151.893-63.147t-63.147-148.48v-597.333q0-88.747 63.147-151.893t148.48-63.147h484.693q44.373 0 83.627 15.36t66.56 46.080l116.053 116.053q30.72 27.307 46.080 66.56t15.36 83.627v484.693q0 85.333-63.147 148.48t-148.48 63.147zM85.333 215.040v597.333q0 51.2 37.547 88.747t88.747 37.547h600.747q51.2 0 88.747-37.547t37.547-92.16v-423.253h-170.667q-54.613 0-90.453-37.547t-35.84-92.16v-170.667h-426.667q-54.613 0-92.16 37.547t-37.547 88.747v3.413zM788.48 122.88q-27.307-27.307-64.853-34.133v167.253q3.413 17.067 15.36 29.013t29.013 11.947h167.253q-6.827-34.133-34.133-61.44z" />
<glyph unicode="&#xe986;" glyph-name="fi-rr-file" data-tags="fi-rr-file" d="M849.92 788.48l-146.773 146.773q-40.96 44.373-97.28 66.56t-114.347 22.187h-191.147q-88.747 0-151.893-63.147t-63.147-148.48v-597.333q0-88.747 63.147-151.893t148.48-63.147h430.080q85.333 0 148.48 63.147t63.147 148.48v365.227q0 58.027-22.187 114.347t-66.56 97.28zM791.893 727.040q17.067-20.48 30.72-44.373h-180.907q-20.48 0-32.427 11.947t-11.947 32.427v180.907q23.893-13.653 44.373-30.72zM853.333 215.040q0-54.613-37.547-92.16t-92.16-37.547h-423.253q-54.613 0-92.16 37.547t-37.547 88.747v600.747q0 51.2 37.547 88.747t88.747 37.547h194.56l20.48-3.413v-208.213q0-54.613 37.547-92.16t92.16-37.547h208.213l3.413-20.48v-361.813z" />
<glyph unicode="&#xe987;" glyph-name="fi-rr-fill" data-tags="fi-rr-fill" d="M952.32 238.933q3.413-6.827 13.653-17.067 27.307-40.96 37.547-61.44 20.48-34.133 20.48-54.613 0-44.373-30.72-75.093t-75.093-30.72-75.093 30.72-30.72 75.093q0 20.48 17.067 51.2 10.24 20.48 40.96 61.44l13.653 20.48q10.24 17.067 32.427 17.067t35.84-17.067zM914.773 433.493l-368.64-372.053q-64.853-61.44-151.893-61.44t-151.893 61.44l-180.907 180.907q-61.44 64.853-61.44 151.893t61.44 151.893l245.76 242.347-122.88 122.88q-13.653 13.653-11.947 30.72t13.653 29.013 29.013 11.947 30.72-10.24l119.467-122.88 68.267 64.853-37.547 37.547q-10.24 10.24-10.24 29.013t11.947 30.72 29.013 11.947 30.72-13.653l552.96-552.96q20.48-17.067 13.653-40.96t-30.72-30.72-40.96 10.24zM853.333 491.52l-361.813 361.813-64.853-64.853 201.387-204.8q20.48-17.067 13.653-42.667t-32.427-30.72-42.667 15.36l-201.387 201.387-242.347-242.347q-37.547-37.547-37.547-90.453t37.547-90.453l180.907-180.907q37.547-37.547 90.453-37.547t90.453 37.547z" />
<glyph unicode="&#xe988;" glyph-name="fi-rr-film" data-tags="fi-rr-film" d="M812.373 1024h-597.333q-88.747 0-151.893-63.147t-63.147-148.48v-597.333q0-88.747 63.147-151.893t148.48-63.147h600.747q85.333 0 148.48 63.147t63.147 148.48v600.747q0 85.333-63.147 148.48t-148.48 63.147zM853.333 556.373h85.333v-85.333h-85.333v85.333zM853.333 641.707v85.333h85.333v-85.333h-85.333zM768 556.373h-512v382.293h512v-382.293zM170.667 471.040h-85.333v85.333h85.333v-85.333zM170.667 641.707h-85.333v85.333h85.333v-85.333zM85.333 385.707h85.333v-85.333h-85.333v85.333zM256 471.040h512v-385.707h-512v385.707zM853.333 385.707h85.333v-85.333h-85.333v85.333zM938.667 812.373h-85.333v119.467q37.547-13.653 61.44-47.787t23.893-71.68zM170.667 931.84v-119.467h-85.333q0 37.547 23.893 71.68t61.44 47.787zM85.333 215.040h85.333v-122.88q-37.547 13.653-61.44 47.787t-23.893 71.68v3.413zM853.333 92.16v122.88h85.333q0-40.96-23.893-75.093t-61.44-47.787z" />
<glyph unicode="&#xe989;" glyph-name="fi-rr-filter" data-tags="fi-rr-filter" d="M597.333 0q-13.653 0-23.893 6.827l-170.667 129.707q-17.067 13.653-20.48 34.133v238.933l-296.96 337.92q-34.133 37.547-40.96 85.333t13.653 92.16 61.44 71.68 88.747 27.307h607.573q47.787 0 88.747-27.307t61.44-71.68 13.653-92.16-40.96-85.333l-296.96-337.92v-365.227q0-20.48-13.653-32.427t-30.72-11.947zM471.040 191.147l85.333-61.44v296.96q0 17.067 10.24 27.307l310.613 351.573q13.653 17.067 17.067 40.96t-5.12 44.373-29.013 34.133-44.373 13.653h-607.573q-23.893 0-44.373-13.653t-29.013-34.133-5.12-44.373 17.067-40.96l310.613-351.573q13.653-10.24 13.653-27.307v-235.52z" />
<glyph unicode="&#xe98a;" glyph-name="fi-rr-fingerprint" data-tags="fi-rr-fingerprint" d="M256 71.68q-17.067 0-27.307 10.24t-15.36 23.893 1.707 25.6 17.067 22.187q71.68 40.96 105.813 116.053 30.72 61.44 40.96 150.187 6.827 47.787 6.827 136.533 0 51.2 35.84 88.747t90.453 37.547 92.16-37.547 37.547-92.16q0-17.067-13.653-29.013t-30.72-11.947-30.72 11.947-11.947 30.72-11.947 30.72-30.72 11.947-30.72-11.947-13.653-29.013q3.413-98.987-6.827-153.6-10.24-102.4-47.787-177.493-47.787-92.16-136.533-146.773-10.24-6.827-20.48-6.827zM467.627 13.653q146.773 146.773 167.253 409.6 3.413 17.067-8.533 30.72t-29.013 15.36-30.72-10.24-17.067-29.013q-17.067-232.107-143.36-358.4-13.653-10.24-13.653-29.013t13.653-30.72 30.72-11.947 30.72 13.653zM689.493 20.48q37.547 64.853 64.853 136.533 3.413 17.067-3.413 32.427t-23.893 20.48-32.427-1.707-22.187-23.893q-23.893-61.44-58.027-119.467-6.827-13.653-3.413-32.427t18.773-27.307 32.427-3.413 27.307 18.773zM788.48 290.133q23.893 129.707 23.893 266.24-3.413 92.16-54.613 167.253t-138.24 109.227-177.493 11.947-151.893-90.453q-17.067-20.48-10.24-44.373t32.427-27.307 39.253 13.653q44.373 51.2 109.227 66.56t126.293-8.533 98.987-78.507 37.547-119.467q3.413-126.293-17.067-249.173-3.413-17.067 6.827-32.427t27.307-18.773h6.827q13.653 0 25.6 10.24t15.36 23.893zM300.373 556.373q-3.413 17.067 0 34.133 6.827 23.893-11.947 40.96t-42.667 8.533-27.307-34.133-3.413-52.907q0-296.96-170.667-296.96-20.48 0-32.427-11.947t-11.947-30.72 11.947-30.72 29.013-11.947q126.293 0 192.853 98.987t66.56 286.72zM884.053 23.893q105.813 256 98.987 529.067 0 109.227-47.787 204.8-10.24 17.067-25.6 22.187t-32.427-1.707-22.187-23.893 1.707-34.133q40.96-78.507 40.96-163.84 6.827-259.413-92.16-494.933-6.827-17.067 0-34.133t20.48-23.893q10.24-3.413 20.48-3.413t20.48 6.827 17.067 17.067zM129.707 426.667v129.707q0 102.4 51.2 191.147t138.24 139.947 192.853 51.2q129.707 0 232.107-78.507 13.653-10.24 30.72-6.827t27.307 17.067 8.533 30.72-15.36 30.72q-61.44 44.373-134.827 68.267t-148.48 23.893q-126.293 0-233.813-63.147t-170.667-170.667-63.147-237.227v-126.293q0-17.067 11.947-29.013t29.013-13.653 30.72 11.947 13.653 30.72z" />
<glyph unicode="&#xe98b;" glyph-name="fi-rr-flag" data-tags="fi-rr-flag" d="M853.333 853.333h-211.627q0 71.68-51.2 121.173t-122.88 49.493h-296.96q-71.68 0-121.173-49.493t-49.493-121.173v-808.96q0-20.48 11.947-32.427t30.72-11.947 30.72 11.947 11.947 29.013v430.080h341.333q0-71.68 49.493-121.173t121.173-49.493h256q71.68 0 121.173 49.493t49.493 121.173v211.627q0 71.68-49.493 121.173t-121.173 49.493zM85.333 556.373v296.96q0 34.133 25.6 59.733t59.733 25.6h300.373q34.133 0 58.027-25.6t23.893-59.733v-211.627q3.413-37.547-22.187-61.44t-63.147-23.893h-382.293zM938.667 471.040q0-37.547-25.6-61.44t-59.733-23.893h-256q-34.133 0-59.733 23.893t-25.6 61.44v3.413q58.027 17.067 92.16 61.44t37.547 105.813v126.293h211.627q34.133 0 59.733-25.6t25.6-59.733v-211.627z" />
<glyph unicode="&#xe98c;" glyph-name="fi-rr-flame" data-tags="fi-rr-flame" d="M709.973 901.12q-68.267 58.027-105.813 88.747-40.96 40.96-98.987 32.427t-88.747-56.32q-75.093-126.293-105.813-273.067-10.24 17.067-20.48 35.84t-27.307 30.72-37.547 15.36-40.96-3.413-34.133-23.893q-54.613-54.613-83.627-126.293t-29.013-146.773q0-105.813 44.373-201.387t124.587-163.84 182.613-92.16q58.027-17.067 119.467-17.067h20.48q126.293 3.413 230.4 68.267t165.547 172.373 61.44 233.813q0 88.747-40.96 167.253-30.72 64.853-98.987 133.12-40.96 44.373-136.533 126.293v0zM522.24 85.333h-13.653q-51.2 3.413-88.747 34.133-27.307 20.48-44.373 47.787t-23.893 61.44q-10.24 105.813 122.88 262.827v0q17.067 17.067 37.547 17.067v0q20.48 0 37.547-17.067 58.027-71.68 90.453-134.827t32.427-110.933q0-64.853-44.373-110.933t-105.813-49.493zM750.933 167.253q-3.413 0-6.827-3.413l-3.413-3.413q17.067 40.96 17.067 85.333 0 129.707-143.36 300.373-20.48 23.893-46.080 35.84t-56.32 11.947v0q-30.72 0-56.32-11.947t-46.080-35.84v0q-157.013-184.32-139.947-324.267 3.413-34.133 13.653-64.853-75.093 54.613-117.76 138.24t-42.667 179.2q0 61.44 23.893 117.76t68.267 97.28q13.653-30.72 34.133-58.027 13.653-17.067 35.84-25.6t46.080-3.413 39.253 22.187 22.187 40.96q23.893 136.533 95.573 256 10.24 13.653 27.307 17.067t30.72-10.24q44.373-37.547 109.227-92.16v0q88.747-78.507 126.293-116.053 58.027-58.027 85.333-112.64 34.133-61.44 34.133-133.12 0-92.16-39.253-172.373t-110.933-134.827z" />
<glyph unicode="&#xe98d;" glyph-name="fi-rr-flip-horizontal" data-tags="fi-rr-flip-horizontal" d="M436.907 1020.587v0q-17.067 3.413-30.72-3.413t-20.48-20.48l-368.64-815.787q-13.653-30.72-11.947-63.147t18.773-59.733 46.080-42.667 63.147-15.36h293.547q17.067 0 30.72 11.947t13.653 32.427v935.253q-3.413 13.653-11.947 25.6t-22.187 15.36zM385.707 85.333h-252.587q-23.893 0-35.84 18.773t-5.12 42.667l293.547 638.293v-699.733zM1006.933 180.907l-368.64 815.787q-6.827 13.653-20.48 20.48t-29.013 3.413-23.893-15.36-8.533-25.6v-935.253q0-20.48 11.947-32.427t29.013-11.947h293.547q34.133 0 63.147 15.36t46.080 42.667 18.773 59.733-11.947 63.147z" />
<glyph unicode="&#xe990;" glyph-name="fi-rr-following" data-tags="fi-rr-following" d="M385.707 512q68.267 0 126.293 34.133t93.867 93.867 35.84 128-35.84 128-93.867 93.867-128 34.133-128-34.133-93.867-93.867-34.133-128 35.84-128 92.16-93.867 129.707-34.133zM385.707 938.667q68.267 0 119.467-49.493t51.2-121.173-51.2-121.173-121.173-49.493-119.467 49.493-49.493 121.173 49.493 121.173 121.173 49.493zM385.707 426.667q-105.813 0-194.56-51.2t-139.947-139.947-51.2-194.56q0-17.067 11.947-29.013t30.72-11.947 30.72 11.947 11.947 29.013q0 81.92 40.96 150.187t109.227 109.227 148.48 40.96 148.48-40.96 109.227-109.227 40.96-150.187q0-17.067 11.947-29.013t30.72-11.947 30.72 11.947 11.947 29.013q0 105.813-51.2 194.56t-139.947 139.947-191.147 51.2zM938.667 689.493q-37.547-3.413-61.44-30.72t-23.893-64.853q0 37.547-23.893 64.853t-61.44 27.307-61.44-27.307-23.893-64.853q0-47.787 54.613-112.64 34.133-40.96 88.747-85.333 13.653-10.24 27.307-10.24t27.307 10.24q54.613 40.96 88.747 85.333 54.613 64.853 54.613 112.64 0 37.547-23.893 64.853t-61.44 30.72z" />
<glyph unicode="&#xe991;" glyph-name="fi-rr-form" data-tags="fi-rr-form" d="M426.667 597.333q-54.613 0-90.453-37.547t-35.84-90.453 35.84-90.453 90.453-37.547h170.667q54.613 0 92.16 37.547t37.547 90.453-37.547 90.453-92.16 37.547h-170.667zM641.707 471.040q0-20.48-13.653-32.427t-30.72-11.947h-170.667q-17.067 0-29.013 11.947t-11.947 30.72 11.947 30.72 29.013 11.947h170.667q17.067 0 30.72-11.947t13.653-29.013zM727.040 215.040q0-20.48-13.653-32.427t-30.72-11.947h-341.333q-17.067 0-29.013 11.947t-11.947 30.72 11.947 30.72 29.013 11.947h341.333q17.067 0 30.72-11.947t13.653-32.427v3.413zM832.853 890.88l-71.68 71.68q-27.307 30.72-66.56 46.080t-83.627 15.36h-269.653q-88.747 0-150.187-63.147t-64.853-148.48v-597.333q3.413-88.747 64.853-151.893t150.187-63.147h341.333q88.747 0 150.187 63.147t64.853 148.48v529.067q0 40.96-17.067 80.213t-47.787 69.973zM774.827 829.44q6.827-6.827 13.653-20.48h-105.813v109.227q10.24-6.827 20.48-17.067zM812.373 215.040q-3.413-54.613-39.253-92.16t-90.453-37.547h-341.333q-54.613 0-92.16 37.547t-37.547 88.747v600.747q3.413 51.2 39.253 88.747t90.453 37.547h256v-126.293q0-37.547 25.6-61.44t59.733-23.893h129.707v-512z" />
<glyph unicode="&#xe992;" glyph-name="fi-rr-forward" data-tags="fi-rr-forward" d="M160.427 143.36q-64.853 0-112.64 47.787t-47.787 112.64v416.427q0 44.373 23.893 83.627t64.853 59.733 85.333 17.067 81.92-30.72l163.84-119.467q0 44.373 25.6 80.213t66.56 54.613 83.627 15.36 80.213-30.72l283.307-208.213q30.72-23.893 47.787-58.027t17.067-71.68-17.067-71.68-47.787-58.027l-283.307-208.213q-37.547-27.307-80.213-30.72t-83.627 15.36-66.56 54.613-25.6 80.213l-163.84-119.467q-40.96-30.72-95.573-30.72zM460.8 419.84q17.067 0 29.013-13.653t11.947-30.72v-71.68q0-20.48 11.947-39.253t30.72-29.013 40.96-8.533 39.253 15.36l283.307 208.213q30.72 23.893 30.72 61.44t-30.72 61.44l-283.307 208.213q-17.067 13.653-39.253 15.36t-40.96-8.533-30.72-29.013-11.947-39.253v-71.68q0-27.307-22.187-39.253t-42.667 5.12l-232.107 167.253q-17.067 13.653-37.547 15.36t-39.253-8.533-30.72-29.013-11.947-39.253v-416.427q0-20.48 11.947-39.253t30.72-29.013 39.253-8.533 37.547 15.36l232.107 167.253q10.24 10.24 23.893 10.24z" />
<glyph unicode="&#xe993;" glyph-name="fi-rr-ftp" data-tags="fi-rr-ftp" d="M983.040 170.667h-351.573q-10.24 27.307-30.72 47.787t-44.373 30.72v136.533h170.667q68.267 0 119.467 49.493t51.2 117.76v215.040q0 71.68-51.2 121.173t-122.88 49.493h-184.32q-13.653 0-23.893 6.827v0l-81.92 54.613q-30.72 23.893-71.68 23.893h-61.44q-71.68 0-121.173-49.493t-52.907-121.173v-296.96q3.413-71.68 52.907-121.173t121.173-49.493h170.667v-136.533q-27.307-10.24-47.787-30.72t-30.72-47.787h-348.16q-20.48 0-32.427-11.947t-11.947-30.72 11.947-30.72 29.013-11.947h351.573q13.653-37.547 46.080-61.44t73.387-23.893 73.387 23.893 46.080 61.44h351.573q17.067 0 29.013 11.947t11.947 30.72-11.947 30.72-29.013 11.947zM300.373 938.667h61.44q13.653 0 23.893-6.827l81.92-54.613q30.72-23.893 71.68-23.893h187.733q34.133 0 58.027-25.6t23.893-59.733h-593.92v85.333q0 34.133 23.893 59.733t58.027 25.6h3.413zM215.040 556.373v126.293h597.333v-126.293q0-37.547-25.6-61.44t-63.147-23.893h-423.253q-37.547 0-61.44 23.893t-23.893 61.44zM512 85.333q-17.067 0-30.72 11.947t-11.947 30.72 13.653 30.72 29.013 11.947 30.72-11.947 13.653-30.72-13.653-30.72-30.72-11.947z" />
<glyph unicode="&#xe994;" glyph-name="fi-rr-gallery" data-tags="fi-rr-gallery" d="M812.373 1024h-256q-88.747 0-151.893-63.147t-63.147-148.48v-6.827q-75.093-13.653-122.88-73.387t-47.787-134.827v-3.413q-75.093-17.067-122.88-75.093t-47.787-133.12v-170.667q0-88.747 63.147-151.893t148.48-63.147h259.413q85.333 0 148.48 63.147t63.147 148.48v6.827q75.093 13.653 122.88 73.387t47.787 134.827v3.413q75.093 17.067 122.88 75.093t47.787 133.12v174.080q0 85.333-63.147 148.48t-148.48 63.147zM85.333 385.707q0 51.2 37.547 88.747t88.747 37.547h259.413q34.133 0 64.853-18.773t44.373-49.493l-146.773-146.773-20.48 20.48q-23.893 23.893-56.32 23.893t-59.733-20.48l-194.56-167.253q-17.067 27.307-17.067 61.44v170.667zM597.333 215.040q0-54.613-37.547-92.16t-88.747-37.547h-256q-27.307 0-47.787 10.24l187.733 160.427 20.48-20.48q23.893-23.893 59.733-23.893t59.733 23.893l102.4 102.4v-122.88zM768 426.667q0-40.96-23.893-73.387t-61.44-46.080v78.507q0 85.333-63.147 148.48t-148.48 63.147h-215.040q0 54.613 37.547 92.16t92.16 37.547h256q51.2 0 88.747-37.547t37.547-92.16v-170.667zM938.667 641.707q0-40.96-23.893-75.093t-61.44-47.787v78.507q0 88.747-63.147 150.187t-148.48 64.853h-215.040q0 51.2 37.547 88.747t92.16 37.547h256q51.2 0 88.747-37.547t37.547-92.16v-167.253zM170.667 385.707q0 17.067 11.947 29.013t30.72 11.947 30.72-11.947 11.947-30.72-11.947-30.72-30.72-11.947-30.72 11.947-11.947 32.427z" />
<glyph unicode="&#xe995;" glyph-name="fi-rr-glasses" data-tags="fi-rr-glasses" d="M853.333 1024q-71.68 0-121.173-49.493t-49.493-121.173q0-17.067 11.947-30.72t30.72-11.947 30.72 13.653 11.947 29.013q0 34.133 25.6 59.733t59.733 25.6 59.733-25.6 25.6-59.733v-471.040q-58.027 44.373-129.707 44.373-51.2 0-98.987-25.6t-75.093-69.973q-51.2 54.613-122.88 54.613t-122.88-54.613q-27.307 44.373-75.093 69.973t-98.987 25.6q-71.68 0-129.707-44.373v471.040q0 34.133 25.6 59.733t59.733 25.6 59.733-25.6 25.6-59.733q0-17.067 11.947-30.72t30.72-13.653 30.72 13.653 11.947 30.72q0 71.68-49.493 121.173t-121.173 49.493-121.173-49.493-49.493-121.173v-638.293q0-88.747 63.147-151.893t150.187-63.147 150.187 63.147 63.147 148.48q0 37.547 25.6 63.147t59.733 23.893 59.733-25.6 25.6-58.027q0-88.747 63.147-151.893t150.187-63.147 150.187 63.147 63.147 148.48v641.707q0 71.68-49.493 121.173t-121.173 49.493zM215.040 85.333q-54.613 0-92.16 37.547t-37.547 90.453 37.547 90.453 90.453 37.547 90.453-37.547 37.547-90.453-37.547-90.453-88.747-37.547zM812.373 85.333q-54.613 0-92.16 37.547t-37.547 90.453 37.547 90.453 90.453 37.547 90.453-37.547 37.547-90.453-37.547-90.453-92.16-37.547h3.413z" />
<glyph unicode="&#xe996;" glyph-name="fi-rr-globe-alt" data-tags="fi-rr-globe-alt" d="M556.373 341.333q92.16 0 170.667 46.080t122.88 124.587 46.080 170.667-44.373 170.667-124.587 124.587-172.373 46.080-172.373-46.080-124.587-124.587-44.373-170.667 46.080-170.667 122.88-124.587 174.080-46.080zM556.373 938.667q68.267 0 126.293-34.133t92.16-93.867 34.133-128-34.133-128-92.16-93.867-128-34.133-128 34.133-93.867 93.867-34.133 128 35.84 128 92.16 93.867 129.707 34.133zM976.213 392.533q-64.853-95.573-163.84-151.893t-215.040-66.56v-88.747h170.667q17.067 0 30.72-11.947t13.653-30.72-13.653-30.72-30.72-11.947h-426.667q-17.067 0-29.013 11.947t-11.947 30.72 11.947 30.72 29.013 11.947h170.667v88.747q-143.36 10.24-257.707 93.867t-170.667 215.040-35.84 273.067 112.64 250.88q10.24 13.653 27.307 15.36t30.72-8.533 15.36-27.307-8.533-30.72q-75.093-92.16-92.16-208.213t27.307-225.28 138.24-180.907 211.627-83.627 223.573 37.547 174.080 145.067q10.24 17.067 27.307 20.48t30.72-6.827 17.067-27.307-6.827-34.133z" />
<glyph unicode="&#xe997;" glyph-name="fi-rr-globe" data-tags="fi-rr-globe" d="M512 1024q-139.947 0-257.707-68.267t-186.027-186.027-68.267-257.707 68.267-257.707 186.027-186.027 257.707-68.267 257.707 68.267 186.027 186.027 68.267 257.707-68.267 257.707-186.027 186.027-257.707 68.267zM880.64 727.040h-136.533q-47.787 105.813-119.467 197.973 78.507-23.893 146.773-75.093t109.227-122.88zM703.147 512q0-64.853-20.48-129.707h-341.333q-20.48 64.853-20.48 129.707t20.48 126.293h341.333q20.48-61.44 20.48-126.293zM375.467 300.373h273.067q-54.613-109.227-136.533-197.973-81.92 88.747-136.533 194.56v3.413zM375.467 727.040q54.613 105.813 136.533 194.56 81.92-88.747 136.533-197.973zM402.773 925.013q-75.093-92.16-122.88-201.387h-136.533q40.96 75.093 109.227 126.293t146.773 75.093h3.413zM105.813 641.707h146.773q-17.067-64.853-17.067-129.707t17.067-129.707h-146.773q-40.96 129.707 0 259.413zM143.36 300.373h136.533q47.787-109.227 119.467-201.387-78.507 23.893-146.773 75.093t-109.227 122.88v3.413zM624.64 98.987q71.68 92.16 119.467 201.387h136.533q-40.96-75.093-109.227-126.293t-146.773-75.093zM918.187 385.707h-146.773q17.067 61.44 17.067 126.293t-17.067 126.293h146.773q40.96-126.293 0-256v3.413z" />
<glyph unicode="&#xe998;" glyph-name="fi-rr-golf" data-tags="fi-rr-golf" d="M512 597.333q-85.333 0-170.667-17.067v98.987l211.627 88.747q20.48 6.827 32.427 25.6t13.653 40.96-6.827 42.667-25.6 34.133l-187.733 102.4q-20.48 10.24-42.667 10.24t-40.96-11.947-29.013-30.72-10.24-42.667v-378.88q-116.053-40.96-186.027-109.227t-69.973-151.893 68.267-151.893 186.027-107.52 257.707-39.253 257.707 39.253 186.027 107.52 68.267 151.893-68.267 151.893-186.027 107.52-257.707 39.253zM515.413 843.093l-174.080-71.68v167.253zM512 85.333q-112.64 0-211.627 29.013t-157.013 78.507-58.027 102.4 46.080 97.28 124.587 75.093v-167.253q0-20.48 11.947-32.427t30.72-11.947 30.72 11.947 11.947 32.427v194.56q85.333 17.067 170.667 17.067 112.64 0 211.627-29.013t157.013-78.507 58.027-105.813-58.027-105.813-157.013-78.507-211.627-29.013zM727.040 300.373q0-37.547-25.6-61.44t-61.44-23.893-59.733 23.893-23.893 59.733 23.893 59.733 59.733 23.893 59.733-23.893 23.893-58.027h3.413z" />
<glyph unicode="&#xe999;" glyph-name="fi-rr-graduation-cap" data-tags="fi-rr-graduation-cap" d="M1017.173 703.147q-17.067 64.853-75.093 98.987l-314.027 150.187q-54.613 30.72-114.347 30.72t-114.347-30.72l-320.853-153.6q-37.547-20.48-58.027-58.027t-20.48-80.213 22.187-80.213 59.733-58.027l88.747-40.96v-208.213q0-71.68 40.96-128t109.227-76.8q92.16-27.307 191.147-27.307t191.147 27.307q68.267 20.48 109.227 76.8t40.96 128v208.213l85.333 40.96v-351.573q0-17.067 11.947-29.013t30.72-11.947 30.72 11.947 11.947 29.013v512q0 10.24-6.827 20.48zM768 273.067q0-40.96-25.6-75.093t-63.147-47.787q-81.92-23.893-167.253-23.893t-167.253 23.893q-37.547 13.653-63.147 47.787t-25.6 75.093v167.253l139.947-68.267q54.613-30.72 116.053-30.72t109.227 30.72l146.773 68.267v-167.253zM904.533 600.747l-320.853-153.6q-34.133-20.48-73.387-20.48t-73.387 20.48l-314.027 150.187q-17.067 10.24-27.307 27.307t-10.24 35.84 10.24 35.84 27.307 27.307l317.44 153.6q34.133 20.48 73.387 20.48t73.387-20.48l314.027-150.187q17.067-10.24 27.307-27.307t10.24-37.547-8.533-35.84-25.6-25.6z" />
<glyph unicode="&#xe99a;" glyph-name="fi-rr-graphic-tablet" data-tags="fi-rr-graphic-tablet" d="M812.373 853.333h-512q-88.747 0-151.893-63.147t-63.147-148.48v-85.333h-40.96q-20.48-3.413-32.427-15.36t-11.947-29.013 11.947-30.72 29.013-13.653h44.373v-81.92q0-88.747 63.147-151.893t148.48-63.147h515.413q85.333 0 148.48 63.147t63.147 148.48v259.413q0 85.333-63.147 148.48t-148.48 63.147zM170.667 385.707v85.333q17.067 0 30.72 11.947t13.653 29.013-13.653 30.72-30.72 13.653v85.333q0 51.2 37.547 88.747t88.747 37.547v-512q-51.2 0-88.747 37.547t-37.547 92.16zM938.667 385.707q0-54.613-37.547-92.16t-92.16-37.547h-423.253v512h426.667q51.2 0 88.747-37.547t37.547-92.16v-252.587z" />
<glyph unicode="&#xe99b;" glyph-name="fi-rr-grid-alt" data-tags="fi-rr-grid-alt" d="M812.373 1024h-597.333q-88.747 0-151.893-63.147t-63.147-148.48v-597.333q0-88.747 63.147-151.893t148.48-63.147h600.747q85.333 0 148.48 63.147t63.147 148.48v600.747q0 85.333-63.147 148.48t-148.48 63.147zM682.667 556.373h-126.293v126.293h126.293v-126.293zM768 682.667h170.667v-126.293h-170.667v126.293zM556.373 768v170.667h126.293v-170.667h-126.293zM471.040 768h-129.707v170.667h129.707v-170.667zM471.040 682.667v-126.293h-129.707v126.293h129.707zM256 556.373h-170.667v126.293h170.667v-126.293zM85.333 471.040h170.667v-129.707h-170.667v129.707zM341.333 471.040h129.707v-129.707h-129.707v129.707zM471.040 256v-170.667h-129.707v170.667h129.707zM556.373 256h126.293v-170.667h-126.293v170.667zM556.373 341.333v129.707h126.293v-129.707h-126.293zM768 471.040h170.667v-129.707h-170.667v129.707zM938.667 812.373v-44.373h-170.667v170.667h44.373q51.2 0 88.747-37.547t37.547-92.16v3.413zM215.040 938.667h40.96v-170.667h-170.667v44.373q0 51.2 37.547 88.747t88.747 37.547h3.413zM85.333 215.040v40.96h170.667v-170.667h-40.96q-54.613 0-92.16 37.547t-37.547 88.747v3.413zM812.373 85.333h-44.373v170.667h170.667v-40.96q0-54.613-37.547-92.16t-92.16-37.547h3.413z" />
<glyph unicode="&#xe99c;" glyph-name="fi-rr-grid" data-tags="fi-rr-grid" d="M191.147 276.48h-105.813q-34.133 0-59.733-23.893t-25.6-61.44v-105.813q0-34.133 25.6-59.733t59.733-25.6h105.813q37.547 0 61.44 25.6t23.893 59.733v105.813q0 37.547-23.893 61.44t-61.44 23.893zM191.147 85.333h-105.813v105.813h105.813v-105.813zM938.667 276.48h-105.813q-37.547 0-61.44-23.893t-23.893-61.44v-105.813q0-34.133 23.893-59.733t61.44-25.6h105.813q34.133 0 59.733 25.6t25.6 59.733v105.813q0 37.547-25.6 61.44t-59.733 23.893zM938.667 85.333h-105.813v105.813h105.813v-105.813zM191.147 651.947h-105.813q-34.133 0-59.733-25.6t-25.6-59.733v-109.227q0-34.133 25.6-59.733t59.733-25.6h105.813q37.547 0 61.44 25.6t23.893 59.733v109.227q0 34.133-23.893 59.733t-61.44 25.6zM191.147 457.387h-105.813v109.227h105.813v-109.227zM938.667 651.947h-105.813q-37.547 0-61.44-25.6t-23.893-59.733v-109.227q0-34.133 23.893-59.733t61.44-25.6h105.813q34.133 0 59.733 25.6t25.6 59.733v109.227q0 34.133-25.6 59.733t-59.733 25.6zM938.667 457.387h-105.813v109.227h105.813v-109.227zM191.147 1024h-105.813q-34.133 0-59.733-25.6t-25.6-59.733v-105.813q0-37.547 25.6-61.44t59.733-23.893h105.813q37.547 0 61.44 23.893t23.893 61.44v105.813q0 34.133-23.893 59.733t-61.44 25.6zM191.147 832.853h-105.813v105.813h105.813v-105.813zM566.613 276.48h-109.227q-34.133 0-59.733-23.893t-25.6-61.44v-105.813q0-34.133 25.6-59.733t59.733-25.6h109.227q34.133 0 59.733 25.6t25.6 59.733v105.813q0 37.547-25.6 61.44t-59.733 23.893zM566.613 85.333h-109.227v105.813h109.227v-105.813zM566.613 651.947h-109.227q-34.133 0-59.733-25.6t-25.6-59.733v-109.227q0-34.133 25.6-59.733t59.733-25.6h109.227q34.133 0 59.733 25.6t25.6 59.733v109.227q0 34.133-25.6 59.733t-59.733 25.6zM566.613 457.387h-109.227v109.227h109.227v-109.227zM566.613 1024h-109.227q-34.133 0-59.733-25.6t-25.6-59.733v-105.813q0-37.547 25.6-61.44t59.733-23.893h109.227q34.133 0 59.733 23.893t25.6 61.44v105.813q0 34.133-25.6 59.733t-59.733 25.6zM566.613 832.853h-109.227v105.813h109.227v-105.813zM938.667 1024h-105.813q-37.547 0-61.44-25.6t-23.893-59.733v-105.813q0-37.547 23.893-61.44t61.44-23.893h105.813q34.133 0 59.733 23.893t25.6 61.44v105.813q0 34.133-25.6 59.733t-59.733 25.6zM938.667 832.853h-105.813v105.813h105.813v-105.813z" />
<glyph unicode="&#xe99d;" glyph-name="fi-rr-gym" data-tags="fi-rr-gym" d="M979.627 733.867l-92.16 92.16 37.547 40.96q20.48 17.067 13.653 40.96t-30.72 30.72-40.96-13.653l-40.96-37.547-92.16 92.16q-47.787 44.373-110.933 44.373t-109.227-44.373-46.080-109.227 47.787-109.227l92.16-92.16-252.587-252.587-92.16 92.16q-44.373 44.373-107.52 44.373t-109.227-44.373-46.080-107.52 44.373-110.933l95.573-92.16-40.96-40.96q-20.48-17.067-13.653-40.96t30.72-30.72 40.96 13.653l40.96 40.96 92.16-95.573q47.787-44.373 110.933-44.373t107.52 44.373v0q47.787 44.373 47.787 109.227t-47.787 109.227l-92.16 92.16 252.587 252.587 92.16-92.16q44.373-44.373 109.227-44.373t109.227 44.373v0q44.373 44.373 44.373 107.52t-44.373 110.933zM471.040 153.6q0-27.307-20.48-47.787t-49.493-20.48-49.493 20.48l-245.76 245.76q-20.48 20.48-20.48 49.493t20.48 47.787 47.787 18.773 47.787-17.067l249.173-249.173q20.48-20.48 20.48-47.787zM918.187 573.44q-20.48-17.067-47.787-17.067t-47.787 17.067l-249.173 249.173q-17.067 20.48-17.067 47.787t18.773 47.787 47.787 20.48 49.493-20.48l245.76-245.76q20.48-20.48 20.48-49.493t-20.48-49.493z" />
<glyph unicode="&#xe99e;" glyph-name="fi-rr-headphones" data-tags="fi-rr-headphones" d="M897.707 494.933v61.44q0 102.4-52.907 191.147t-139.947 139.947-192.853 51.2-192.853-51.2-139.947-139.947-52.907-191.147v-61.44q-68.267-30.72-102.4-98.987t-18.773-141.653 73.387-121.173 136.533-47.787q34.133 0 59.733 25.6t22.187 59.733v256q3.413 34.133-22.187 59.733t-59.733 25.6v44.373q0 78.507 39.253 146.773t107.52 109.227 150.187 40.96 150.187-40.96 109.227-109.227 40.96-150.187v-40.96q-37.547 0-61.44-25.6t-23.893-59.733v-256q0-34.133 23.893-59.733t61.44-25.6q75.093 0 133.12 47.787t73.387 121.173-18.773 141.653-102.4 98.987zM215.040 170.667v0q-54.613 0-92.16 37.547t-37.547 90.453 37.547 90.453 88.747 37.547zM812.373 170.667v256q51.2 0 88.747-37.547t37.547-90.453-37.547-90.453-92.16-37.547h3.413z" />
<glyph unicode="&#xe99f;" glyph-name="fi-rr-headset" data-tags="fi-rr-headset" d="M897.707 494.933v61.44q0 102.4-52.907 191.147t-139.947 139.947-192.853 51.2-192.853-51.2-139.947-139.947-52.907-191.147v-61.44q-68.267-30.72-102.4-98.987t-18.773-141.653 73.387-121.173 136.533-47.787q34.133 0 59.733 25.6t22.187 59.733v256q3.413 34.133-22.187 59.733t-59.733 25.6v44.373q0 78.507 39.253 146.773t107.52 109.227 150.187 40.96 150.187-40.96 109.227-109.227 40.96-150.187v-40.96q-37.547 0-61.44-25.6t-23.893-59.733v-256h-129.707q-17.067 0-30.72-11.947t-11.947-30.72 13.653-30.72 29.013-11.947h215.040q75.093 0 133.12 47.787t73.387 121.173-18.773 141.653-102.4 98.987zM215.040 170.667v0q-54.613 0-92.16 37.547t-37.547 90.453 37.547 90.453 88.747 37.547zM812.373 170.667v256q51.2 0 88.747-37.547t37.547-90.453-37.547-90.453-92.16-37.547h3.413z" />
<glyph unicode="&#xe9a0;" glyph-name="fi-rr-heart" data-tags="fi-rr-heart" d="M747.52 942.080q-75.093 0-138.24-37.547t-97.28-102.4q-34.133 64.853-97.28 102.4t-139.947 35.84-141.653-42.667-100.693-109.227-32.427-146.773q0-133.12 122.88-293.547 95.573-122.88 252.587-256 58.027-51.2 136.533-51.2t136.533 51.2q157.013 133.12 252.587 256 122.88 160.427 122.88 293.547 3.413 78.507-32.427 146.773t-100.693 109.227-143.36 44.373zM593.92 157.013q-34.133-30.72-81.92-30.72t-81.92 30.72q-163.84 136.533-254.293 264.533t-90.453 220.16q-3.413 85.333 52.907 148.48t138.24 66.56q85.333-3.413 141.653-66.56t52.907-148.48q0-17.067 11.947-30.72t29.013-13.653 29.013 13.653 15.36 30.72q-6.827 85.333 49.493 148.48t141.653 66.56q81.92-3.413 138.24-66.56t52.907-148.48q0-92.16-90.453-220.16t-254.293-264.533z" />
<glyph unicode="&#xe9a1;" glyph-name="fi-rr-home" data-tags="fi-rr-home" d="M986.453 638.293l-324.267 320.853q-61.44 64.853-150.187 64.853t-150.187-64.853l-324.267-320.853q-37.547-37.547-37.547-92.16v-419.84q0-51.2 37.547-88.747t92.16-37.547h768q51.2 0 88.747 37.547t37.547 88.747v419.84q0 54.613-37.547 92.16zM641.707 85.333h-256v167.253q0 54.613 35.84 92.16t90.453 37.547 92.16-37.547 37.547-92.16v-167.253zM938.667 126.293q0-17.067-11.947-29.013t-29.013-11.947h-170.667v167.253q-3.413 88.747-64.853 151.893t-150.187 63.147-150.187-63.147-61.44-151.893v-167.253h-170.667q-20.48 0-32.427 11.947t-11.947 29.013v419.84q0 17.067 13.653 30.72l320.853 324.267q37.547 37.547 92.16 37.547t92.16-37.547l320.853-324.267q13.653-13.653 13.653-30.72v-419.84z" />
<glyph unicode="&#xe9a4;" glyph-name="fi-rr-ice-skate" data-tags="fi-rr-ice-skate" d="M983.040 215.040q-20.48 0-32.427-13.653t-11.947-30.72q0-34.133-25.6-59.733t-59.733-25.6h-170.667v170.667h88.747q68.267 0 117.76 49.493t49.493 117.76q0 92.16-58.027 162.133t-146.773 87.040l-167.253 34.133q-27.307 6.827-46.080 25.6t-22.187 46.080l-17.067 136.533q-6.827 54.613-54.613 87.040t-102.4 18.773l-201.387-58.027q-54.613-13.653-88.747-59.733t-34.133-104.107v-372.053q0-71.68 49.493-121.173t121.173-49.493h44.373v-170.667h-170.667q-20.48 0-32.427-11.947t-11.947-30.72 11.947-30.72 29.013-11.947h812.373q71.68 0 121.173 49.493t49.493 121.173q0 17.067-11.947 29.013t-29.013 11.947v3.413zM85.333 426.667v372.053q0 30.72 17.067 52.907t44.373 29.013l197.973 58.027h10.24q17.067 0 29.013-10.24t11.947-27.307l6.827-47.787h-102.4q-20.48 0-32.427-11.947t-11.947-30.72 11.947-30.72 32.427-11.947h116.053q0-20.48 10.24-37.547l-102.4-61.44q-13.653-10.24-17.067-27.307t5.12-32.427 25.6-18.773 30.72 3.413l105.813 64.853q17.067-13.653 37.547-23.893l-58.027-102.4q-10.24-13.653-5.12-30.72t20.48-25.6 32.427-5.12 27.307 20.48l68.267 122.88 119.467-23.893q58.027-13.653 97.28-59.733t39.253-107.52q0-34.133-23.893-58.027t-58.027-23.893h-600.747q-34.133 0-59.733 25.6t-25.6 59.733zM300.373 256h296.96v-170.667h-296.96v170.667z" />
<glyph unicode="&#xe9a5;" glyph-name="fi-rr-id-badge" data-tags="fi-rr-id-badge" d="M812.373 853.333h-170.667v44.373q0 51.2-37.547 88.747t-92.16 37.547-92.16-37.547-34.133-92.16v-40.96h-170.667q-88.747 0-151.893-63.147t-63.147-148.48v-426.667q0-88.747 63.147-151.893t148.48-63.147h600.747q85.333 0 148.48 63.147t63.147 148.48v430.080q0 85.333-63.147 148.48t-148.48 63.147zM471.040 897.707q-3.413 17.067 10.24 29.013t30.72 11.947 30.72-11.947 13.653-29.013v-85.333q0-20.48-13.653-32.427t-30.72-11.947-30.72 11.947-13.653 29.013zM938.667 215.040q0-54.613-37.547-92.16t-92.16-37.547h-593.92q-54.613 0-92.16 37.547t-37.547 88.747v430.080q0 51.2 37.547 88.747t88.747 37.547h180.907q13.653-37.547 46.080-61.44t73.387-23.893 73.387 23.893 46.080 61.44h180.907q51.2 0 88.747-37.547t37.547-92.16v-423.253zM426.667 597.333h-211.627q-20.48 0-32.427-11.947t-11.947-29.013v-341.333q0-20.48 11.947-32.427t32.427-11.947h211.627q17.067 0 30.72 11.947t13.653 29.013v344.747q0 17.067-13.653 29.013t-30.72 11.947zM385.707 256h-129.707v256h129.707v-256zM853.333 385.707q0-20.48-11.947-32.427t-29.013-11.947h-215.040q-17.067 0-30.72 11.947t-11.947 30.72 13.653 30.72 29.013 11.947h215.040q17.067 0 29.013-11.947t11.947-32.427v3.413zM853.333 556.373q0-20.48-11.947-32.427t-29.013-11.947h-215.040q-17.067 0-30.72 11.947t-11.947 30.72 13.653 30.72 29.013 11.947h215.040q17.067 0 29.013-11.947t11.947-29.013zM768 215.040q0-20.48-11.947-32.427t-29.013-11.947h-129.707q-17.067 0-30.72 11.947t-11.947 30.72 13.653 30.72 29.013 11.947h129.707q17.067 0 29.013-11.947t11.947-32.427v3.413z" />
<glyph unicode="&#xe9a6;" glyph-name="fi-rr-inbox" data-tags="fi-rr-inbox" d="M897.707 512h-129.707q-34.133 0-59.733-25.6t-25.6-59.733-25.6-59.733-59.733-25.6h-170.667q-34.133 0-59.733 25.6t-25.6 59.733-25.6 59.733-59.733 25.6h-126.293q-54.613 0-92.16-37.547t-37.547-88.747v-170.667q0-88.747 63.147-151.893t148.48-63.147h600.747q85.333 0 148.48 63.147t63.147 148.48v174.080q0 51.2-37.547 88.747t-92.16 37.547h3.413zM938.667 215.040q0-54.613-37.547-92.16t-92.16-37.547h-593.92q-54.613 0-92.16 37.547t-37.547 88.747v174.080q0 17.067 11.947 29.013t29.013 11.947h129.707q0-71.68 49.493-121.173t121.173-49.493h170.667q71.68 0 121.173 49.493t49.493 121.173h129.707q17.067 0 29.013-11.947t11.947-32.427v-167.253zM129.707 597.333h768q17.067 0 29.013 11.947t11.947 30.72-11.947 30.72-29.013 11.947h-768q-20.48 0-32.427-11.947t-11.947-30.72 11.947-30.72 32.427-11.947zM129.707 768h768q17.067 0 29.013 11.947t11.947 30.72-11.947 30.72-29.013 11.947h-768q-20.48 0-32.427-11.947t-11.947-30.72 11.947-30.72 32.427-11.947z" />
<glyph unicode="&#xe9a7;" glyph-name="fi-rr-incognito" data-tags="fi-rr-incognito" d="M703.147 300.373q-44.373-3.413-81.92-27.307t-54.613-68.267q-54.613 17.067-109.227 0-20.48 51.2-69.973 76.8t-102.4 11.947-85.333-58.027-27.307-100.693 44.373-93.867 95.573-40.96 98.987 30.72 56.32 88.747q20.48 6.827 44.373 6.827t44.373-6.827q13.653-58.027 61.44-92.16t105.813-25.6 95.573 52.907 34.133 104.107-46.080 98.987-104.107 42.667zM320.853 85.333q-27.307 0-46.080 18.773t-18.773 46.080 18.773 46.080 46.080 18.773 46.080-18.773 18.773-46.080-18.773-46.080-46.080-18.773zM703.147 85.333q-27.307 0-46.080 18.773t-17.067 46.080 18.773 44.373 44.373 18.773 46.080-17.067 18.773-46.080-18.773-46.080-46.080-18.773zM853.333 655.36q-6.827 150.187-58.027 245.76-37.547 71.68-95.573 102.4-30.72 17.067-54.613 20.48h-3.413q-58.027-3.413-105.813-34.133-10.24-10.24-23.893-10.24t-23.893 10.24q-47.787 30.72-102.4 34.133h-6.827q-23.893-3.413-54.613-20.48-58.027-30.72-95.573-102.4-51.2-95.573-58.027-245.76-61.44-23.893-105.813-51.2-64.853-44.373-64.853-92.16 0-105.813 163.84-143.36 109.227-27.307 348.16-27.307t348.16 27.307q163.84 37.547 163.84 143.36 0 47.787-64.853 92.16-40.96 27.307-105.813 51.2zM385.707 938.667q27.307-3.413 51.2-20.48 34.133-23.893 75.093-23.893t75.093 23.893q20.48 17.067 51.2 20.48 37.547-10.24 68.267-54.613 58.027-78.507 61.44-238.933-122.88-54.613-256-47.787-133.12-6.827-256 47.787 3.413 160.427 61.44 238.933 30.72 44.373 68.267 54.613zM512 426.667q-238.933 0-344.747 27.307-81.92 20.48-81.92 54.613 51.2 51.2 122.88 68.267 143.36-71.68 303.787-64.853 160.427-6.827 303.787 64.853 68.267-17.067 122.88-64.853 0-37.547-81.92-58.027-105.813-27.307-344.747-27.307z" />
<glyph unicode="&#xe9a8;" glyph-name="fi-rr-indent" data-tags="fi-rr-indent" d="M44.373 768h938.667q17.067 0 29.013 11.947t11.947 30.72-11.947 30.72-29.013 11.947h-938.667q-20.48 0-32.427-11.947t-11.947-30.72 11.947-30.72 29.013-11.947h3.413zM983.040 641.707h-597.333q-20.48-3.413-32.427-15.36t-11.947-29.013 11.947-30.72 32.427-13.653h597.333q17.067 3.413 29.013 15.36t11.947 29.013-11.947 30.72-29.013 13.653zM983.040 215.040h-938.667q-20.48 0-32.427-13.653t-11.947-30.72 11.947-29.013 29.013-11.947h942.080q17.067 0 29.013 11.947t11.947 29.013-11.947 29.013-29.013 11.947v3.413zM983.040 426.667h-597.333q-20.48 0-32.427-11.947t-11.947-30.72 11.947-30.72 32.427-11.947h597.333q17.067 0 29.013 11.947t11.947 30.72-11.947 30.72-29.013 11.947zM71.68 331.093l129.707 126.293q10.24 13.653 10.24 32.427t-10.24 32.427l-129.707 129.707q-6.827 6.827-20.48 10.24t-25.6-1.707-18.773-15.36-6.827-23.893v-259.413q0-13.653 6.827-23.893t18.773-15.36 25.6-3.413 20.48 11.947z" />
<glyph unicode="&#xe9a9;" glyph-name="fi-rr-infinity" data-tags="fi-rr-infinity" d="M768 768q-85.333 0-157.013-58.027-54.613-40.96-98.987-109.227-44.373 68.267-98.987 109.227-71.68 58.027-157.013 58.027-68.267 0-128-34.133t-93.867-93.867-34.133-128 34.133-128 93.867-93.867 128-34.133q85.333 0 157.013 58.027 54.613 40.96 98.987 109.227 44.373-68.267 98.987-109.227 71.68-58.027 157.013-58.027 68.267 0 128 34.133t93.867 93.867 34.133 128-34.133 128-93.867 93.867-128 34.133zM256 341.333q-71.68 0-121.173 49.493t-49.493 121.173 49.493 121.173 122.88 49.493 138.24-68.267q40.96-44.373 68.267-102.4-27.307-58.027-68.267-102.4-64.853-68.267-139.947-68.267zM768 341.333q-75.093 0-139.947 68.267-40.96 44.373-68.267 102.4 27.307 58.027 68.267 102.4 64.853 68.267 138.24 68.267t122.88-49.493 49.493-121.173-49.493-121.173-121.173-49.493z" />
<glyph unicode="&#xe9aa;" glyph-name="fi-rr-info" data-tags="fi-rr-info" d="M512 1024q-139.947 0-257.707-68.267t-186.027-186.027-68.267-257.707 68.267-257.707 186.027-186.027 257.707-68.267 257.707 68.267 186.027 186.027 68.267 257.707-68.267 257.707-186.027 186.027-257.707 68.267zM512 85.333q-116.053 0-213.333 58.027t-155.307 155.307-58.027 213.333 58.027 213.333 155.307 155.307 213.333 58.027 213.333-58.027 155.307-155.307 58.027-213.333-58.027-213.333-155.307-155.307-213.333-58.027zM512 597.333h-40.96q-20.48 0-32.427-11.947t-11.947-30.72 11.947-30.72 32.427-11.947h40.96v-256q0-17.067 11.947-29.013t30.72-11.947 30.72 11.947 11.947 29.013v256q0 34.133-25.6 59.733t-59.733 25.6zM447.147 747.52q0-27.307 18.773-46.080t46.080-18.773 46.080 18.773 18.773 46.080-18.773 46.080-46.080 17.067-46.080-18.773-18.773-44.373z" />
<glyph unicode="&#xe9ab;" glyph-name="fi-rr-interactive" data-tags="fi-rr-interactive" d="M1010.347 71.68l-44.373 47.787-75.093 71.68 119.467 119.467q17.067 17.067 11.947 39.253t-25.6 32.427l-385.707 139.947q-20.48 6.827-46.080 1.707t-42.667-22.187-22.187-42.667 1.707-46.080l139.947-385.707q10.24-20.48 30.72-27.307h10.24q17.067 0 30.72 13.653l119.467 119.467 119.467-119.467q10.24-13.653 29.013-13.653t30.72 11.947 11.947 30.72-13.653 29.013zM699.733 119.467l-116.053 320.853 320.853-116.053zM426.667 170.667q-116.053 0-213.333 58.027t-155.307 155.307-58.027 213.333 58.027 213.333 155.307 155.307 213.333 58.027 213.333-58.027 155.307-155.307 58.027-213.333q0-17.067-11.947-30.72t-30.72-11.947-30.72 13.653-11.947 29.013q0 92.16-46.080 170.667t-124.587 124.587-170.667 46.080-170.667-46.080-124.587-124.587-46.080-170.667 46.080-170.667 124.587-124.587 170.667-46.080q17.067 0 30.72-11.947t13.653-30.72-13.653-30.72-30.72-11.947zM344.747 358.4q-6.827 0-17.067 3.413-78.507 30.72-122.88 107.52t-32.427 162.133 73.387 146.773 148.48 73.387 162.133-32.427 105.813-122.88q10.24-23.893-5.12-44.373t-39.253-17.067-34.133 27.307q-20.48 54.613-71.68 83.627t-107.52 20.48-97.28-49.493-49.493-97.28 20.48-107.52 83.627-71.68q13.653-6.827 20.48-20.48t3.413-29.013-13.653-23.893-27.307-8.533z" />
<glyph unicode="&#xe9ac;" glyph-name="fi-rr-interlining" data-tags="fi-rr-interlining" d="M426.667 768h556.373q17.067 0 29.013 11.947t11.947 30.72-11.947 30.72-29.013 11.947h-556.373q-17.067 0-29.013-11.947t-11.947-30.72 11.947-30.72 29.013-11.947zM983.040 556.373h-556.373q-17.067 0-29.013-13.653t-11.947-30.72 11.947-30.72 29.013-13.653h556.373q17.067 0 29.013 13.653t11.947 30.72-11.947 30.72-29.013 13.653zM983.040 256h-556.373q-17.067 0-29.013-11.947t-13.653-30.72 11.947-30.72 30.72-11.947h556.373q17.067 0 29.013 11.947t11.947 30.72-11.947 30.72-29.013 11.947zM259.413 768q13.653 0 18.773 13.653t-5.12 23.893l-102.4 102.4q-13.653 13.653-30.72 13.653t-30.72-13.653l-102.4-102.4q-10.24-10.24-5.12-23.893t18.773-13.653h78.507v-512h-78.507q-13.653 0-18.773-13.653t5.12-23.893l102.4-102.4q13.653-13.653 30.72-13.653t30.72 13.653l105.813 102.4q6.827 10.24 1.707 23.893t-18.773 13.653h-75.093v512h75.093z" />
<glyph unicode="&#xe9ad;" glyph-name="fi-rr-interrogation" data-tags="fi-rr-interrogation" d="M512 1024q-139.947 0-257.707-68.267t-186.027-186.027-68.267-257.707 68.267-257.707 186.027-186.027 257.707-68.267 257.707 68.267 186.027 186.027 68.267 257.707-68.267 257.707-186.027 186.027-257.707 68.267zM512 85.333q-116.053 0-213.333 58.027t-155.307 155.307-58.027 213.333 58.027 213.333 155.307 155.307 213.333 58.027 213.333-58.027 155.307-155.307 58.027-213.333-58.027-213.333-155.307-155.307-213.333-58.027zM542.72 808.96q-37.547 6.827-73.387-3.413t-66.56-34.133-46.080-58.027-15.36-75.093q0-17.067 11.947-29.013t30.72-11.947 30.72 11.947 11.947 29.013q0 40.96 30.72 66.56t71.68 18.773q23.893-3.413 42.667-22.187t23.893-46.080-6.827-51.2-35.84-37.547q-40.96-23.893-63.147-64.853t-22.187-85.333v-30.72q3.413-20.48 15.36-32.427t29.013-11.947 30.72 11.947 13.653 32.427v30.72q-3.413 20.48 6.827 40.96t30.72 34.133q47.787 23.893 71.68 73.387t15.36 102.4-46.080 92.16-92.16 49.493zM512 300.373v0q17.067 0 30.72-13.653t13.653-30.72v0q0-17.067-13.653-29.013t-30.72-11.947v0q-17.067 0-30.72 11.947t-13.653 29.013v0q3.413 17.067 15.36 29.013t29.013 11.947v3.413z" />
<glyph unicode="&#xe9ae;" glyph-name="fi-rr-italic" data-tags="fi-rr-italic" d="M853.333 1024h-552.96q-20.48 0-32.427-11.947t-11.947-30.72 11.947-30.72 32.427-11.947h225.28l-116.053-853.333h-238.933q-17.067 0-29.013-11.947t-13.653-30.72 11.947-30.72 30.72-11.947h556.373q17.067 0 29.013 11.947t11.947 30.72-11.947 30.72-29.013 11.947h-228.693l116.053 853.333h238.933q17.067 0 30.72 11.947t13.653 30.72-13.653 30.72-30.72 11.947z" />
<glyph unicode="&#xe9af;" glyph-name="fi-rr-jpg" data-tags="fi-rr-jpg" d="M812.373 1024h-597.333q-88.747 0-151.893-63.147t-63.147-148.48v-597.333q0-88.747 63.147-151.893t148.48-63.147h484.693q44.373 0 83.627 15.36t66.56 46.080l116.053 116.053q30.72 27.307 46.080 66.56t15.36 83.627v484.693q0 85.333-63.147 148.48t-148.48 63.147zM85.333 215.040v597.333q0 51.2 37.547 88.747t88.747 37.547h600.747q51.2 0 88.747-37.547t37.547-92.16v-423.253h-170.667q-54.613 0-90.453-37.547t-35.84-92.16v-170.667h-426.667q-54.613 0-92.16 37.547t-37.547 88.747v3.413zM788.48 122.88q-27.307-27.307-61.44-34.133v167.253q-3.413 17.067 10.24 29.013t30.72 11.947h167.253q-6.827-34.133-34.133-61.44zM597.333 634.88v92.16q0 34.133 25.6 59.733t59.733 22.187v0q23.893 0 44.373-11.947t30.72-32.427q6.827-13.653-1.707-27.307t-23.893-11.947-22.187 17.067-23.893 15.36-25.6-10.24-8.533-20.48v-88.747q0-13.653 8.533-23.893t22.187-10.24 22.187 10.24 8.533 20.48v6.827h-10.24q-6.827 0-13.653 5.12t-6.827 13.653 6.827 15.36 13.653 6.827h34.133q13.653 0 22.187-8.533t8.533-22.187v-17.067q0-34.133-25.6-58.027t-59.733-23.893v0q-34.133 0-59.733 23.893t-25.6 58.027zM341.333 781.653v-143.36q0-34.133-25.6-59.733t-63.147-25.6v0q-23.893 0-46.080 13.653t-32.427 34.133q-6.827 13.653 1.707 27.307t23.893 13.653 23.893-17.067 25.6-17.067 27.307 10.24 10.24 23.893v139.947q0 13.653 8.533 22.187t18.773 8.533 18.773-8.533 8.533-22.187zM474.453 812.373h-47.787q-17.067-3.413-29.013-15.36t-11.947-29.013v-191.147q0-10.24 6.827-17.067t18.773-6.827 18.773 6.827 6.827 17.067v54.613h37.547q37.547 0 63.147 25.6t25.6 63.147-25.6 63.147-63.147 25.6v3.413zM474.453 682.667h-37.547v75.093h37.547q20.48 0 30.72-18.773t0-37.547-30.72-18.773z" />
</font>
</defs>
</svg>
