<svg xmlns="http://www.w3.org/2000/svg" width="15.86" height="17.999" viewBox="0 0 15.86 17.999">
  <path id="Union_7" data-name="Union 7" d="M3.965,18A3.866,3.866,0,0,1,0,14.25V9.75A3.75,3.75,0,0,1,2.379,6.318V5.25A5.407,5.407,0,0,1,7.93,0a5.407,5.407,0,0,1,5.551,5.25V6.318A3.75,3.75,0,0,1,15.86,9.75v4.5A3.866,3.866,0,0,1,11.895,18ZM1.586,9.75v4.5A2.317,2.317,0,0,0,3.965,16.5h7.93a2.317,2.317,0,0,0,2.379-2.25V9.75A2.318,2.318,0,0,0,11.895,7.5H3.965A2.318,2.318,0,0,0,1.586,9.75Zm2.379-4.5V6h7.93V5.25A3.862,3.862,0,0,0,7.93,1.5,3.862,3.862,0,0,0,3.965,5.25ZM7.1,12.756V11.192a.829.829,0,0,1,1.655,0v1.565a.829.829,0,0,1-1.655,0Z" fill="#a5a5a5"/>
</svg>
