<svg width="754px" height="180px" viewBox="0 0 754 180" version="1.1" xmlns="http://www.w3.org/2000/svg" xmlns:xlink="http://www.w3.org/1999/xlink">
	<g stroke="none" stroke-width="1" fill="none" fill-rule="evenodd">
		<g fill="#2F3758" fill-rule="nonzero">
			<g>
				<path d="M163.47,41.14 C157.11,31.15 148.87,22.52 139.24,15.78 C143.28,27.43 152.18,36.72 163.47,41.14" id="Path"></path>
				<path d="M39.08,91.05 C39.08,119.23 61.52,142.08 89.21,142.08 C116.9,142.08 139.35,119.23 139.35,91.05 C139.35,87.6 139,84.23 138.37,80.97 C134.46,78.95 130.72,76.65 127.17,74.08 C129.42,79.27 130.67,85.01 130.67,91.05 C130.67,114.35 112.11,133.24 89.21,133.24 C66.31,133.24 47.76,114.35 47.76,91.05 C47.76,67.75 66.31,48.86 89.21,48.86 C95.21,48.86 100.89,50.16 106.04,52.49 C103.53,48.87 101.28,45.05 99.31,41.06 C96.05,40.38 92.68,40.0299967 89.22,40.0299967 C61.52,40.02 39.08,62.87 39.08,91.05" id="Path"></path>
				<path d="M146.34,51.37 C157.84,59.5 172.81,60.67 172.81,60.67 L169.35,51.95 C132.03,43.15 128.78,9.51 128.78,9.51 C127.47,8.48 119.33,5.36 119.33,5.36 C119.29,9.71 121.32,16.89 121.32,16.89 C127.42,40.08 146.34,51.37 146.34,51.37" id="Path"></path>
				<path d="M167.9,90.05 C167.9,92.81 167.76,95.53 167.49,98.22 C167.49,98.25 167.48,98.29 167.48,98.33 C167.35,99.6 167.19,100.86 167.01,102.11 C167,102.13 167,102.15 167,102.18 C166.99,102.18 166.99,102.18 166.99,102.17 C166.58,104.85 166.05,107.49 165.4,110.05 C165.35,110.24 165.29,110.44 165.25,110.63 C164.98,111.66 164.7,112.68 164.39,113.69 C164.25,114.15 164.09,114.62 163.95,115.07 C163.72,115.79 163.48,116.51 163.23,117.21 C162.99,117.9 162.73,118.59 162.46,119.27 C162.29,119.73 162.11,120.2 161.92,120.65 C161.57,121.51 161.21,122.36 160.83,123.21 C160.82,123.23 160.81,123.25 160.8,123.26 C160.68,123.52 160.58,123.78 160.45,124.03 C160.04,124.94 159.6,125.82 159.15,126.71 C159.03,126.93 158.93,127.16 158.81,127.39 C158.34,128.29 157.85,129.17 157.35,130.05 C157.21,130.29 157.08,130.53 156.94,130.77 C156.46,131.6 155.95,132.41 155.43,133.22 C155.26,133.51 155.08,133.8 154.9,134.08 C154.42,134.82 153.92,135.55 153.41,136.27 C153.17,136.62 152.93,136.96 152.69,137.3 C152.23,137.94 151.75,138.56 151.28,139.18 C150.96,139.59 150.64,140.02 150.32,140.42 C149.91,140.95 149.47,141.46 149.04,141.98 C148.63,142.46 148.23,142.95 147.81,143.43 C147.44,143.85 147.06,144.27 146.67,144.68 C146.25,145.14 145.82,145.6 145.39,146.05 C145.28,146.16 145.18,146.27 145.07,146.39 C144.77,146.69 144.47,146.99 144.17,147.28 C143.76,147.69 143.35,148.09 142.94,148.49 C142.68,148.73 142.43,148.98 142.17,149.22 C141.96,149.41 141.75,149.61 141.53,149.8 C141.15,150.14 140.78,150.47 140.39,150.79 C139.98,151.16 139.57,151.52 139.15,151.87 C139.01,151.99 138.88,152.09 138.74,152.21 C138.41,152.48 138.08,152.73 137.76,152.99 C137.19,153.44 136.62,153.91 136.04,154.34 C135.95,154.41 135.87,154.47 135.78,154.53 C135.53,154.72 135.27,154.9 135.02,155.08 C134.32,155.6 133.61,156.1 132.89,156.59 C132.8,156.65 132.72,156.71 132.64,156.76 C132.48,156.87 132.31,156.97 132.16,157.08 C131.35,157.61 130.53,158.14 129.7,158.65 C129.56,158.73 129.43,158.81 129.29,158.89 C129.23,158.92 129.18,158.95 129.14,158.98 C128.26,159.51 127.37,160.02 126.47,160.51 C126.26,160.64 126.04,160.75 125.81,160.87 C124.95,161.33 124.08,161.78 123.21,162.2 C122.86,162.37 122.52,162.53 122.17,162.69 C121.42,163.05 120.66,163.39 119.89,163.72 C119.36,163.95 118.82,164.16 118.28,164.39 C117.69,164.63 117.1,164.86 116.51,165.08 C115.72,165.38 114.93,165.66 114.13,165.93 C113.77,166.05 113.42,166.17 113.05,166.29 C111.96,166.65 110.85,166.98 109.73,167.28 C109.65,167.3 109.57,167.33 109.49,167.35 C106.94,168.03 104.33,168.6 101.68,169.04 C100.45,169.23 99.24,169.4 98.03,169.54 C97.89,169.55 97.74,169.58 97.61,169.59 C96.83,169.68 96.06,169.73 95.28,169.79 C94.65,169.84 94.04,169.9 93.42,169.93 C93.12,169.95 92.83,169.95 92.54,169.96 C91.45,170.01 90.35,170.05 89.25,170.05 C86.58,170.05 83.93,169.91 81.34,169.64 C80.01,169.5 78.68,169.33 77.35,169.13 C74.73,168.72 72.16,168.18 69.64,167.53 C69.39,167.46 69.14,167.39 68.88,167.32 C67.93,167.06 67,166.79 66.06,166.5 C65.55,166.34 65.04,166.16 64.54,165.99 C63.88,165.78 63.24,165.56 62.6,165.32 C61.87,165.05 61.14,164.76 60.42,164.47 C60.01,164.31 59.61,164.15 59.21,163.99 C58.33,163.61 57.46,163.23 56.6,162.82 C56.53,162.79 56.46,162.76 56.39,162.72 C56.23,162.64 56.05,162.57 55.89,162.49 C54.97,162.06 54.07,161.59 53.17,161.12 C52.97,161.01 52.76,160.91 52.56,160.8 C51.66,160.32 50.77,159.81 49.89,159.29 C49.67,159.16 49.46,159.04 49.23,158.91 C48.4,158.41 47.58,157.88 46.77,157.35 C46.5,157.18 46.24,157.01 45.97,156.84 C45.24,156.34 44.5,155.83 43.78,155.31 C43.45,155.07 43.12,154.84 42.8,154.6 C42.17,154.13 41.55,153.64 40.93,153.14 C40.52,152.82 40.13,152.5 39.73,152.18 C39.2,151.75 38.69,151.29 38.18,150.85 C37.71,150.44 37.23,150.03 36.77,149.62 C36.35,149.23 35.94,148.84 35.53,148.44 C35.07,148.01 34.6,147.56 34.15,147.11 C34.06,147.01 33.97,146.93 33.88,146.84 C33.57,146.53 33.28,146.21 32.97,145.9 C32.56,145.48 32.17,145.04 31.76,144.61 C31.54,144.37 31.31,144.13 31.08,143.88 C30.89,143.66 30.69,143.45 30.5,143.22 C30.16,142.83 29.83,142.44 29.5,142.04 C29.15,141.63 28.81,141.21 28.46,140.8 C28.35,140.66 28.25,140.52 28.13,140.39 C27.87,140.05 27.61,139.71 27.35,139.38 C26.91,138.8 26.46,138.23 26.04,137.64 C25.97,137.55 25.91,137.47 25.85,137.38 C25.67,137.12 25.49,136.86 25.31,136.6 C24.8,135.88 24.3,135.15 23.81,134.42 C23.76,134.34 23.7,134.27 23.66,134.19 C23.55,134.03 23.46,133.86 23.35,133.7 C22.81,132.86 22.29,132.02 21.78,131.16 C21.71,131.03 21.64,130.92 21.57,130.79 C21.54,130.74 21.51,130.69 21.48,130.64 C20.95,129.72 20.44,128.81 19.95,127.86 C19.84,127.67 19.74,127.46 19.63,127.26 C19.17,126.36 18.71,125.45 18.28,124.53 C18.14,124.21 17.99,123.88 17.85,123.57 C17.48,122.77 17.13,121.97 16.79,121.16 C16.59,120.65 16.38,120.14 16.18,119.63 C15.93,118.99 15.69,118.36 15.46,117.72 C15.18,116.96 14.92,116.2 14.67,115.42 C14.53,115.01 14.4,114.6 14.26,114.19 C13.93,113.13 13.62,112.07 13.34,110.99 C13.3,110.85 13.25,110.7 13.21,110.56 C12.54,107.97 11.99,105.34 11.57,102.65 C11.38,101.46 11.23,100.29 11.1,99.11 C11.08,98.9 11.04,98.69 11.02,98.47 C10.94,97.76 10.9,97.05 10.85,96.34 C10.79,95.64 10.72,94.92 10.7,94.21 C10.68,94 10.69,93.79 10.68,93.58 C10.62,92.39 10.58,91.2 10.58,90 C10.58,87.94 10.69,85.91 10.83,83.89 C10.98,81.89 11.19,79.9 11.49,77.88 C11.9,75.19 12.44,72.54 13.09,69.95 C13.12,69.81 13.16,69.67 13.2,69.54 C13.48,68.45 13.79,67.38 14.11,66.32 C14.24,65.91 14.37,65.49 14.51,65.09 C14.76,64.32 15.01,63.55 15.28,62.78 C15.51,62.14 15.75,61.51 15.99,60.87 C16.18,60.35 16.39,59.84 16.59,59.33 C16.93,58.52 17.28,57.72 17.63,56.92 C17.77,56.59 17.92,56.26 18.06,55.95 C18.46,55.09 18.87,54.24 19.29,53.4 C19.42,53.16 19.53,52.92 19.66,52.69 C19.67,52.66 19.69,52.63 19.7,52.6 C20.14,51.74 20.62,50.9 21.09,50.06 C21.24,49.78 21.4,49.5 21.56,49.23 C22.02,48.43 22.51,47.65 22.99,46.88 C23.19,46.56 23.4,46.23 23.6,45.92 C24.05,45.22 24.54,44.53 25.01,43.84 C25.28,43.46 25.54,43.07 25.81,42.69 C26.24,42.09 26.69,41.51 27.13,40.92 C27.48,40.47 27.82,40 28.18,39.56 C28.57,39.07 28.97,38.6 29.37,38.11 C29.78,37.63 30.19,37.14 30.61,36.66 C30.65,36.6 30.7,36.55 30.74,36.51 C31.07,36.14 31.41,35.78 31.73,35.41 C32.14,34.97 32.56,34.52 32.97,34.09 C33.15,33.91 33.33,33.71 33.5,33.53 C33.74,33.29 33.98,33.06 34.22,32.82 C34.61,32.42 35.01,32.04 35.42,31.65 C35.75,31.34 36.08,31.01 36.41,30.7 C36.55,30.56 36.7,30.44 36.84,30.3 C37.2,29.97 37.57,29.65 37.93,29.34 C38.43,28.91 38.92,28.46 39.44,28.04 C39.5,27.99 39.57,27.94 39.63,27.89 C39.93,27.64 40.25,27.4 40.56,27.15 C41.22,26.63 41.87,26.1 42.55,25.59 C42.56,25.58 42.57,25.58 42.58,25.57 C42.81,25.4 43.04,25.23 43.27,25.07 C44.08,24.48 44.88,23.89 45.71,23.33 C45.85,23.24 45.98,23.16 46.12,23.07 C47.04,22.45 47.97,21.85 48.92,21.28 C48.96,21.25 49,21.23 49.05,21.2 C49.07,21.19 49.09,21.18 49.11,21.16 C50.11,20.56 51.13,19.97 52.16,19.41 C52.27,19.35 52.37,19.29 52.47,19.25 C53.44,18.72 54.43,18.22 55.43,17.74 C55.64,17.63 55.86,17.53 56.09,17.42 C56.97,17.01 57.86,16.61 58.74,16.22 C59.15,16.05 59.54,15.88 59.95,15.72 C60.67,15.43 61.4,15.14 62.12,14.86 C62.77,14.63 63.41,14.4 64.06,14.18 C64.57,14.01 65.07,13.83 65.58,13.67 C66.51,13.37 67.45,13.09 68.39,12.83 C68.65,12.75 68.9,12.68 69.15,12.61 C71.66,11.94 74.22,11.38 76.84,10.96 C77.23,10.89 77.61,10.85 77.99,10.8 L77.99,10.79 C81.68,10.25 85.44,9.96 89.28,9.96 C89.67,9.96 90.05,9.98 90.44,9.99 C90.44,9.98 90.44,9.98 90.44,9.98 C93.7,10.03 97,10.29 100.31,10.77 C102.95,33.2 113.61,46.13 113.61,46.13 C130.3,70.96 154.06,78.04 167.33,80.03 C167.68,83.36 167.9,86.73 167.9,90.05 Z M177.16,80.75 L177.19,80.75 C177.31,79.25 175.53,70.43 175.53,70.43 C110.14,63.29 109.8,2.47 109.8,2.47 C108.39,2.06 105.59,1.56 103.3,1.2 C103.3,1.19 103.3,1.17 103.3,1.16 C103.07,1.12 102.84,1.07 102.61,1.03 C101.86,0.91 101.11,0.84 100.36,0.74 C99.93,0.67 99.67,0.63 99.67,0.63 L99.67,0.64 C90.02,-0.53 80.53,-0.08 71.46,1.81 C71.17,1.87 70.89,1.95 70.6,2 C69.5,2.24 68.41,2.49 67.32,2.77 C67.03,2.85 66.74,2.93 66.44,3.01 C66.36,3.04 66.29,3.06 66.21,3.08 C65.78,3.21 65.34,3.33 64.92,3.46 C64.36,3.62 63.81,3.77 63.26,3.94 C62.93,4.04 62.6,4.15 62.29,4.26 C62,4.36 61.71,4.46 61.42,4.56 C60.93,4.72 60.44,4.89 59.94,5.06 C59.72,5.15 59.49,5.21 59.26,5.3 C58.92,5.43 58.58,5.55 58.25,5.68 C57.74,5.87 57.24,6.09 56.74,6.29 C56.33,6.45 55.91,6.62 55.51,6.79 C55.45,6.81 55.39,6.83 55.34,6.86 C55,7 54.67,7.14 54.35,7.28 C53.65,7.59 52.96,7.92 52.27,8.24 C51.69,8.51 51.11,8.78 50.53,9.06 C49.69,9.48 48.86,9.92 48.03,10.36 C47.91,10.43 47.79,10.49 47.67,10.55 L47.66,10.55 C47.37,10.7 47.09,10.86 46.8,11.02 C45.87,11.53 44.98,12.06 44.07,12.61 C44.02,12.64 43.98,12.67 43.93,12.7 C43.67,12.85 43.41,13 43.16,13.16 C42.25,13.72 41.36,14.31 40.47,14.91 C40.41,14.95 40.35,15 40.29,15.04 C40.07,15.19 39.84,15.34 39.61,15.49 C38.75,16.09 37.91,16.7 37.07,17.32 C36.96,17.4 36.85,17.48 36.74,17.56 C36.55,17.7 36.34,17.85 36.15,18 C35.37,18.6 34.61,19.21 33.84,19.83 C33.67,19.97 33.48,20.12 33.31,20.26 C33.14,20.4 32.95,20.55 32.78,20.7 C32.1,21.27 31.44,21.86 30.77,22.45 C30.52,22.68 30.26,22.9 30.01,23.13 C29.85,23.28 29.69,23.43 29.53,23.58 C28.96,24.11 28.4,24.65 27.85,25.19 C27.52,25.51 27.18,25.84 26.87,26.16 C26.71,26.31 26.55,26.48 26.4,26.64 C25.96,27.1 25.5,27.58 25.07,28.05 C24.66,28.47 24.27,28.9 23.87,29.33 C23.72,29.51 23.56,29.69 23.41,29.87 C23.07,30.26 22.73,30.65 22.4,31.05 C21.95,31.58 21.49,32.1 21.05,32.64 C20.94,32.78 20.85,32.91 20.74,33.05 C20.66,33.14 20.6,33.23 20.53,33.32 C20.3,33.61 20.07,33.9 19.84,34.2 C19.36,34.82 18.87,35.44 18.4,36.08 C18.33,36.16 18.27,36.24 18.22,36.33 C18.08,36.51 17.96,36.71 17.82,36.89 C17.68,37.09 17.53,37.3 17.39,37.5 C16.9,38.2 16.41,38.9 15.93,39.61 C15.87,39.7 15.81,39.78 15.76,39.87 C15.62,40.08 15.48,40.3 15.35,40.53 C15.25,40.68 15.16,40.84 15.05,40.99 C14.58,41.73 14.1,42.48 13.64,43.24 C13.55,43.39 13.47,43.56 13.37,43.72 C13.27,43.87 13.19,44.05 13.09,44.2 C13,44.35 12.92,44.52 12.82,44.67 C12.39,45.42 11.95,46.18 11.54,46.96 C11.37,47.28 11.21,47.61 11.05,47.92 C10.93,48.14 10.83,48.36 10.71,48.59 C10.34,49.31 9.97,50.04 9.61,50.78 C9.45,51.12 9.3,51.46 9.15,51.8 C9.01,52.11 8.87,52.43 8.74,52.74 C8.73,52.76 8.72,52.77 8.72,52.79 C8.43,53.43 8.14,54.05 7.87,54.69 C7.73,55.04 7.59,55.39 7.45,55.74 C7.3,56.13 7.16,56.51 7.01,56.9 C6.82,57.4 6.61,57.9 6.42,58.41 C6.38,58.51 6.34,58.6 6.3,58.71 C6.18,59.05 6.07,59.4 5.94,59.73 C5.77,60.24 5.6,60.75 5.43,61.26 C5.16,62.1 4.88,62.94 4.63,63.78 C4.42,64.47 4.23,65.17 4.05,65.86 C3.86,66.55 3.67,67.21 3.5,67.9 C3.27,68.83 3.07,69.75 2.87,70.69 C2.76,71.16 2.66,71.63 2.56,72.1 C2.33,73.29 2.12,74.48 1.93,75.69 C1.89,75.92 1.84,76.14 1.81,76.37 C1.59,77.82 1.41,79.26 1.27,80.73 C1.26,80.74 1.26,80.75 1.26,80.76 C1,83.41 0.85,86.1 0.83,88.8 C0.82,89.28 0.8,89.77 0.8,90.26 C0.8,90.74 0.83,91.23 0.84,91.72 C0.94,97.28 1.53,102.76 2.61,108.08 C2.63,108.18 2.65,108.27 2.68,108.37 C2.95,109.69 3.24,110.99 3.57,112.3 C3.64,112.6 3.73,112.89 3.81,113.19 C3.81,113.2 3.81,113.2 3.81,113.21 C3.91,113.58 4.01,113.93 4.11,114.29 C4.31,115 4.5,115.73 4.71,116.43 C4.82,116.77 4.92,117.1 5.03,117.42 C5.1,117.65 5.18,117.87 5.25,118.1 C5.39,118.53 5.54,118.98 5.68,119.41 C5.81,119.77 5.92,120.14 6.05,120.5 C6.18,120.85 6.3,121.19 6.43,121.53 C6.59,121.98 6.78,122.43 6.95,122.87 C7.09,123.24 7.23,123.61 7.37,123.97 C7.45,124.15 7.51,124.33 7.58,124.51 C7.72,124.85 7.86,125.19 7.99,125.51 C8.27,126.17 8.56,126.8 8.85,127.44 C8.96,127.68 9.06,127.92 9.17,128.15 C9.22,128.25 9.26,128.34 9.3,128.44 C9.45,128.76 9.6,129.08 9.75,129.4 C10.13,130.2 10.53,130.98 10.94,131.76 C10.99,131.85 11.03,131.93 11.08,132.03 C11.13,132.12 11.18,132.22 11.22,132.31 C11.37,132.61 11.52,132.9 11.68,133.19 C12.14,134.06 12.64,134.92 13.13,135.77 C13.2,135.89 13.27,136 13.33,136.12 C13.47,136.38 13.63,136.64 13.78,136.9 C14.3,137.76 14.84,138.6 15.38,139.44 C15.46,139.58 15.54,139.7 15.62,139.83 C15.77,140.06 15.92,140.29 16.07,140.51 C16.61,141.33 17.17,142.12 17.74,142.91 C17.87,143.08 17.98,143.26 18.11,143.42 C18.25,143.62 18.4,143.83 18.54,144.03 C19.09,144.76 19.65,145.49 20.21,146.2 C20.39,146.44 20.58,146.67 20.77,146.91 C20.91,147.09 21.06,147.27 21.2,147.45 C21.72,148.09 22.25,148.7 22.78,149.32 C23.05,149.64 23.32,149.95 23.59,150.26 C23.74,150.43 23.89,150.6 24.04,150.76 C24.51,151.28 24.99,151.79 25.47,152.3 C25.84,152.7 26.2,153.08 26.58,153.47 C26.73,153.62 26.9,153.79 27.05,153.94 C27.46,154.35 27.87,154.75 28.28,155.16 C28.75,155.61 29.22,156.07 29.7,156.51 C29.84,156.65 29.98,156.76 30.12,156.9 C30.17,156.94 30.22,156.99 30.26,157.03 C30.57,157.32 30.89,157.6 31.22,157.89 C31.79,158.39 32.36,158.9 32.95,159.4 C33,159.45 33.07,159.5 33.12,159.54 C33.3,159.69 33.5,159.84 33.68,159.99 C33.88,160.16 34.09,160.33 34.3,160.49 C35.26,161.26 36.21,162 37.19,162.74 C37.31,162.82 37.42,162.9 37.54,162.99 C38.6,163.76 39.67,164.51 40.76,165.25 C40.83,165.29 40.89,165.34 40.95,165.38 C41.74,165.9 42.53,166.43 43.34,166.93 C43.4,166.96 43.45,166.99 43.5,167.03 C43.79,167.2 44.08,167.37 44.37,167.54 C44.43,167.58 44.5,167.62 44.55,167.66 C45.36,168.14 46.17,168.62 46.99,169.08 C47.2,169.2 47.42,169.3 47.64,169.42 C47.77,169.49 47.89,169.56 48.02,169.62 C48.15,169.68 48.27,169.75 48.4,169.81 C49.18,170.22 49.95,170.64 50.75,171.04 C51.09,171.2 51.44,171.36 51.77,171.52 C52,171.63 52.23,171.73 52.46,171.84 C53.16,172.17 53.87,172.51 54.59,172.81 C54.93,172.96 55.28,173.1 55.63,173.24 C55.94,173.37 56.27,173.49 56.59,173.62 C56.97,173.77 57.33,173.93 57.72,174.07 C57.99,174.18 58.26,174.3 58.53,174.4 C58.87,174.54 59.22,174.65 59.55,174.77 C59.99,174.93 60.44,175.08 60.87,175.23 C61.76,175.53 62.64,175.83 63.53,176.11 C64.15,176.3 64.76,176.47 65.38,176.64 C66.11,176.85 66.84,177.06 67.57,177.26 C68.41,177.47 69.26,177.66 70.11,177.85 C70.63,177.97 71.16,178.1 71.69,178.21 C72.79,178.43 73.89,178.62 75,178.81 C75.3,178.86 75.6,178.93 75.9,178.96 C77.24,179.17 78.59,179.35 79.95,179.49 C80.04,179.5 80.11,179.51 80.2,179.52 C81.62,179.66 83.04,179.77 84.46,179.85 C84.59,179.86 84.71,179.87 84.84,179.88 C85.77,179.93 86.69,179.94 87.63,179.96 C88.26,179.97 88.89,179.99 89.52,179.99 C89.9,179.99 90.27,179.97 90.66,179.96 C96.18,179.87 101.61,179.28 106.9,178.18 C107.08,178.14 107.26,178.09 107.43,178.05 C108.64,177.79 109.83,177.52 111.02,177.21 C111.34,177.12 111.66,177.04 111.98,176.95 C112,176.94 112.02,176.93 112.04,176.93 C112.36,176.84 112.69,176.75 113,176.65 C113.69,176.46 114.38,176.27 115.06,176.06 C115.42,175.94 115.77,175.83 116.12,175.71 C116.35,175.63 116.56,175.56 116.8,175.48 C117.19,175.34 117.58,175.22 117.97,175.07 C118.33,174.94 118.69,174.84 119.04,174.7 C119.41,174.57 119.77,174.43 120.14,174.29 C120.58,174.12 121.02,173.93 121.46,173.76 C121.79,173.62 122.13,173.5 122.46,173.35 C122.62,173.28 122.79,173.22 122.95,173.16 C123.31,173.01 123.66,172.85 124.02,172.7 C124.66,172.42 125.28,172.13 125.91,171.83 C126.13,171.73 126.35,171.64 126.58,171.53 C126.65,171.49 126.72,171.46 126.8,171.43 C127.14,171.27 127.48,171.1 127.81,170.93 C128.6,170.54 129.38,170.13 130.15,169.72 C130.24,169.67 130.31,169.63 130.4,169.58 C130.46,169.55 130.52,169.52 130.57,169.49 C130.88,169.32 131.2,169.15 131.51,168.98 C132.38,168.5 133.23,168 134.09,167.48 C134.15,167.44 134.22,167.4 134.28,167.36 C134.56,167.19 134.85,167.02 135.13,166.85 C136,166.31 136.86,165.75 137.71,165.18 C137.78,165.14 137.85,165.09 137.91,165.04 C138.16,164.88 138.41,164.71 138.65,164.54 C139.49,163.97 140.31,163.38 141.12,162.77 C141.23,162.69 141.33,162.62 141.44,162.54 C141.66,162.38 141.88,162.21 142.1,162.05 C142.87,161.47 143.62,160.87 144.37,160.27 C144.53,160.13 144.7,160 144.86,159.86 C145.05,159.7 145.26,159.53 145.45,159.37 C146.13,158.8 146.79,158.22 147.45,157.63 C147.69,157.43 147.92,157.22 148.15,157 C148.33,156.84 148.51,156.67 148.69,156.51 C149.26,155.98 149.83,155.44 150.39,154.89 C150.7,154.59 151,154.29 151.3,153.99 C151.47,153.82 151.65,153.64 151.81,153.47 C152.28,153 152.75,152.51 153.2,152.02 C153.57,151.62 153.93,151.24 154.3,150.84 C154.46,150.65 154.63,150.45 154.8,150.26 C155.17,149.85 155.52,149.44 155.88,149.02 C156.29,148.54 156.72,148.06 157.12,147.55 C157.28,147.36 157.44,147.14 157.59,146.94 C157.61,146.93 157.62,146.91 157.64,146.89 C157.91,146.55 158.17,146.21 158.44,145.88 C158.88,145.31 159.34,144.74 159.77,144.15 C159.89,143.99 160,143.82 160.12,143.66 C160.2,143.55 160.27,143.45 160.35,143.34 C160.53,143.09 160.72,142.84 160.89,142.58 C161.35,141.94 161.81,141.31 162.24,140.65 C162.36,140.48 162.46,140.3 162.58,140.14 C162.67,140 162.75,139.86 162.84,139.73 C162.98,139.53 163.11,139.32 163.24,139.12 C163.68,138.44 164.13,137.75 164.55,137.05 C164.69,136.82 164.82,136.57 164.96,136.34 C165.01,136.25 165.06,136.17 165.1,136.08 C165.23,135.88 165.34,135.67 165.46,135.46 C165.87,134.77 166.27,134.07 166.66,133.36 C166.84,133.02 167.01,132.68 167.18,132.35 C167.32,132.1 167.44,131.85 167.58,131.59 C167.93,130.92 168.27,130.26 168.6,129.57 C168.77,129.22 168.93,128.86 169.09,128.5 C169.25,128.16 169.4,127.82 169.55,127.47 C169.82,126.88 170.1,126.29 170.36,125.69 C170.51,125.32 170.66,124.96 170.8,124.58 C170.97,124.17 171.13,123.76 171.29,123.35 C171.43,123 171.56,122.67 171.7,122.32 C171.78,122.11 171.86,121.91 171.94,121.7 C172.08,121.34 172.19,120.99 172.33,120.62 C172.51,120.09 172.69,119.56 172.87,119.03 C173.14,118.22 173.41,117.42 173.66,116.6 C173.87,115.91 174.07,115.2 174.26,114.51 C174.44,113.84 174.64,113.18 174.8,112.5 C175.03,111.6 175.23,110.69 175.44,109.78 C175.55,109.3 175.66,108.82 175.77,108.34 C176,107.19 176.2,106.03 176.4,104.88 C176.44,104.62 176.5,104.36 176.54,104.09 C176.75,102.71 176.94,101.33 177.09,99.93 C177.09,99.86 177.1,99.8 177.11,99.74 C177.78,93.57 177.82,87.2 177.16,80.75"></path>
				<path d="M148.22,85.34 C148.34,86.87 148.41,88.43 148.41,90 C148.41,123.27 121.91,150.24 89.22,150.24 C56.52,150.24 30.03,123.26 30.03,90 C30.03,56.72 56.52,29.75 89.22,29.75 C91.08,29.75 92.92,29.86 94.74,30.02 C93.67,26.85 92.76,23.59 92.04,20.27 C91.1,20.23 90.17,20.19 89.22,20.19 C51.34,20.19 20.63,51.45 20.63,90 C20.63,128.55 51.34,159.8 89.22,159.8 C127.1,159.8 157.81,128.55 157.81,90 C157.81,89.4 157.78,88.81 157.76,88.22 C154.51,87.43 151.31,86.48 148.22,85.34" id="Path"></path>
			</g>
			<path d="M329.66,61.53 C321.95,53.69 312.46,49.71 301.44,49.71 C290.42,49.71 280.93,53.69 273.22,61.53 C265.51,69.38 261.6,78.96 261.6,90 C261.6,101.04 265.51,110.62 273.22,118.46 C280.93,126.32 290.42,130.29 301.44,130.29 C312.46,130.29 321.95,126.32 329.66,118.46 C337.37,110.62 341.29,101.04 341.29,90 C341.29,78.96 337.37,69.38 329.66,61.53 Z M301.44,124.77 C292.17,124.77 284.11,121.36 277.5,114.62 C270.88,107.89 267.53,99.6 267.53,90 C267.53,80.39 270.88,72.11 277.5,65.37 C284.11,58.64 292.17,55.22 301.44,55.22 C310.71,55.22 318.77,58.64 325.39,65.37 C332.01,72.11 335.36,80.39 335.36,90 C335.36,99.6 332.01,107.89 325.39,114.62 C318.77,121.36 310.71,124.77 301.44,124.77 Z"></path>
			<path d="M421.41,59.25 C415.19,52.92 407.51,49.71 398.59,49.71 L366.37,49.71 L366.37,130.29 L372.3,130.29 L372.3,114.76 L398.59,114.76 C407.51,114.76 415.19,111.55 421.41,105.21 C427.64,98.88 430.79,91.15 430.79,82.24 C430.79,73.32 427.64,65.59 421.41,59.25 Z M372.3,55.22 L398.59,55.22 C405.76,55.22 412,57.87 417.13,63.09 C422.26,68.32 424.87,74.76 424.87,82.24 C424.87,89.71 422.26,96.15 417.13,101.38 C412,106.6 405.76,109.25 398.59,109.25 L372.3,109.25 L372.3,55.22 Z"></path>
			<rect id="Rectangle" x="455.88" y="49.72" width="5.93" height="80.58"></rect>
			<path d="M558.94,88.54 L538.06,88.54 L538.06,94.06 L553.01,94.06 L553.01,111.86 C552.11,113.07 551.33,113.98 550.68,114.61 C544.05,121.36 535.99,124.78 526.71,124.78 C517.45,124.78 509.39,121.36 502.77,114.63 C496.15,107.9 492.79,99.61 492.79,90.01 C492.79,80.4 496.15,72.11 502.77,65.38 C509.39,58.65 517.44,55.23 526.71,55.23 C535.98,55.23 544.05,58.66 550.68,65.41 C551.36,66.1 552.15,66.97 553.05,68.02 L553.18,68.17 L560.37,68.17 L559.87,67.48 C558,64.95 556.38,62.97 555.05,61.59 C547.27,53.71 537.74,49.71 526.72,49.71 C515.7,49.71 506.21,53.69 498.5,61.53 C490.79,69.38 486.87,78.95 486.87,90 C486.87,101.04 490.79,110.62 498.5,118.46 C506.21,126.31 515.7,130.29 526.72,130.29 C536.83,130.29 545.67,126.94 553.01,120.32 L553.01,130.29 L558.93,130.29 L558.93,114.45 C558.98,114.11 558.98,113.48 558.98,112.26 L558.93,111.84 L558.93,88.54 L558.94,88.54 Z" id="Path"></path>
			<path d="M639.08,59.25 C632.86,52.91 625.17,49.71 616.24,49.71 C607.32,49.71 599.64,52.91 593.41,59.25 C587.19,65.59 584.03,73.32 584.03,82.23 L584.03,130.29 L589.95,130.29 L589.95,82.23 C589.95,74.75 592.55,68.32 597.69,63.09 C602.82,57.87 609.06,55.22 616.23,55.22 C623.4,55.22 629.65,57.87 634.78,63.09 C639.91,68.32 642.52,74.75 642.52,82.23 L642.52,130.29 L648.440024,130.29 L648.440024,82.23 C648.45,73.32 645.3,65.59 639.08,59.25 Z" id="Path"></path>
			<path d="M741.6,61.53 C733.89,53.69 724.4,49.71 713.38,49.71 C702.36,49.71 692.87,53.69 685.16,61.53 C677.44,69.38 673.53,78.95 673.53,90 C673.53,101.04 677.44,110.62 685.16,118.46 C692.87,126.31 702.36,130.29 713.38,130.29 C724.4,130.29 733.89,126.31 741.6,118.46 C749.31,110.62 753.23,101.04 753.23,90 C753.23,78.96 749.31,69.38 741.6,61.53 Z M713.38,124.77 C704.11,124.77 696.05,121.35 689.43,114.62 C682.81,107.89 679.46,99.6 679.46,90 C679.46,80.39 682.81,72.11 689.43,65.37 C696.05,58.64 704.1,55.22 713.38,55.22 C722.65,55.22 730.71,58.64 737.33,65.37 C743.95,72.1 747.3,80.39 747.3,90 C747.3,99.6 743.95,107.89 737.33,114.62 C730.71,121.36 722.65,124.77 713.38,124.77 Z"></path>
		</g>
	</g>
</svg>
