<svg xmlns="http://www.w3.org/2000/svg" width="18" height="18" viewBox="0 0 18 18">
  <path id="calendar" d="M13.875,1.5H13.5V1.125A1.125,1.125,0,0,0,12.375,0h0A1.125,1.125,0,0,0,11.25,1.125V1.5H6.75V1.125A1.125,1.125,0,0,0,5.625,0h0A1.125,1.125,0,0,0,4.5,1.125V1.5H4.125A4.125,4.125,0,0,0,0,5.625v8.25A4.125,4.125,0,0,0,4.125,18h9.75A4.125,4.125,0,0,0,18,13.875V5.625A4.125,4.125,0,0,0,13.875,1.5Zm0,14.25H4.125A1.875,1.875,0,0,1,2.25,13.875V7.5h13.5v6.375a1.875,1.875,0,0,1-1.875,1.875Z" fill="#707070"/>
</svg>
