<svg xmlns="http://www.w3.org/2000/svg" width="24.002" height="24.002" viewBox="0 0 24.002 24.002">
  <g id="Groupe_4382" data-name="Groupe 4382" transform="translate(-1535.999 -251)">
    <path id="Union_9" data-name="Union 9" d="M9150.5,19962a3.5,3.5,0,0,1,0-7h17a3.5,3.5,0,0,1,0,7Zm-1.5-3.5a1.506,1.506,0,0,0,1.5,1.5h17a1.5,1.5,0,1,0,0-3h-17A1.5,1.5,0,0,0,9149,19958.5Zm1.5-5a3.5,3.5,0,1,1,0-7h17a3.5,3.5,0,1,1,0,7Zm-1.5-3.5a1.506,1.506,0,0,0,1.5,1.5h17a1.5,1.5,0,1,0,0-3h-17A1.506,1.506,0,0,0,9149,19950Zm1.5-5a3.5,3.5,0,1,1,0-7h17a3.5,3.5,0,1,1,0,7Zm-1.5-3.5a1.5,1.5,0,0,0,1.5,1.5h17a1.5,1.5,0,1,0,0-3h-17A1.507,1.507,0,0,0,9149,19941.5Z" transform="translate(-7611 -19687)" fill="#2f3758"/>
  </g>
</svg>
