<svg xmlns="http://www.w3.org/2000/svg" width="51.339" height="51.906" viewBox="0 0 51.339 51.906"><defs><style>.a{fill:#2f3758;}.b{fill:#4ad3b0;}</style></defs><path class="a" d="M79.513,181.506H60.05a.76.76,0,0,0,0,1.52H79.513a.76.76,0,1,0,0-1.52Z" transform="translate(-53.563 -163.105)"/><path class="a" d="M79.513,234.2H60.05a.76.76,0,1,0,0,1.52H79.513a.76.76,0,1,0,0-1.52Z" transform="translate(-53.563 -210.459)"/><path class="a" d="M79.513,286.9H60.05a.76.76,0,1,0,0,1.52H79.513a.76.76,0,1,0,0-1.52Z" transform="translate(-53.563 -257.812)"/><path class="a" d="M80.274,340.354a.76.76,0,0,0-.76-.76H60.05a.76.76,0,0,0,0,1.521H79.513A.76.76,0,0,0,80.274,340.354Z" transform="translate(-53.563 -305.167)"/><path class="a" d="M60.05,416.821a.76.76,0,1,0,0,1.52h9.756a.76.76,0,1,0,0-1.52Z" transform="translate(-53.563 -374.565)"/><path class="a" d="M176.622,55.878V53.411a1.706,1.706,0,0,0-1.7-1.7H159.308a1.706,1.706,0,0,0-1.7,1.7v2.467a1.706,1.706,0,0,0,1.7,1.7h1.318a.76.76,0,1,0,0-1.52h-1.318a.184.184,0,0,1-.184-.184V53.411a.184.184,0,0,1,.184-.184h15.609a.184.184,0,0,1,.184.184v2.467a.184.184,0,0,1-.184.184H164.181a.76.76,0,0,0,0,1.52h10.737A1.706,1.706,0,0,0,176.622,55.878Z" transform="translate(-141.91 -46.465)"/><path class="a" d="M43.19,46.36a.76.76,0,0,0-.76.76v1.024a2.244,2.244,0,0,1-2.241,2.241H6.556a2.244,2.244,0,0,1-2.241-2.241V11.6a2.256,2.256,0,0,1,.054-.483H11.29A2.624,2.624,0,0,0,13.912,8.5V1.574a2.255,2.255,0,0,1,.483-.054H40.189A2.244,2.244,0,0,1,42.43,3.762V13.883a.76.76,0,0,0,1.52,0V3.762A3.766,3.766,0,0,0,40.189,0H14.394a3.737,3.737,0,0,0-2.66,1.1L3.9,8.941a3.737,3.737,0,0,0-1.1,2.66V48.144a3.766,3.766,0,0,0,3.762,3.762H40.189a3.766,3.766,0,0,0,3.762-3.762V47.12a.76.76,0,0,0-.76-.76ZM12.391,2.6V8.5a1.1,1.1,0,0,1-1.1,1.1H5.39Z" transform="translate(-2.794 0)"/><path class="b" d="M314.686,175a3.04,3.04,0,0,0-1.486-4.573,1.511,1.511,0,0,1-1.006-1.384,3.04,3.04,0,0,0-3.89-2.826,1.511,1.511,0,0,1-1.627-.529,3.04,3.04,0,0,0-4.808,0,1.511,1.511,0,0,1-1.627.529,3.04,3.04,0,0,0-3.89,2.826,1.511,1.511,0,0,1-1.006,1.384A3.04,3.04,0,0,0,293.86,175a1.511,1.511,0,0,1,0,1.711,3.04,3.04,0,0,0,1.486,4.573,1.511,1.511,0,0,1,1.006,1.384,3.04,3.04,0,0,0,2.625,2.92v6.922a1.614,1.614,0,0,0,2.46,1.374l2.788-1.717a.08.08,0,0,1,.1,0l2.788,1.717a1.614,1.614,0,0,0,2.46-1.374v-6.922a3.04,3.04,0,0,0,2.625-2.92,1.51,1.51,0,0,1,1.006-1.384,3.04,3.04,0,0,0,1.486-4.573A1.51,1.51,0,0,1,314.686,175Zm-6.779,17.589-2.788-1.717a1.614,1.614,0,0,0-1.692,0l-2.788,1.716a.092.092,0,0,1-.142-.079v-7.066a1.508,1.508,0,0,1,1.372.58,3.04,3.04,0,0,0,4.808,0,1.508,1.508,0,0,1,1.372-.58v7.066A.093.093,0,0,1,307.907,192.588Zm5.522-15.022a1.519,1.519,0,0,1-.743,2.286,3.022,3.022,0,0,0-2.012,2.769,1.519,1.519,0,0,1-1.944,1.413,3.023,3.023,0,0,0-3.256,1.058,1.519,1.519,0,0,1-2.4,0,3.021,3.021,0,0,0-2.395-1.182,3.07,3.07,0,0,0-.861.124,1.513,1.513,0,0,1-1.4-.29,1.5,1.5,0,0,1-.547-1.122,3.023,3.023,0,0,0-2.012-2.77,1.519,1.519,0,0,1-.743-2.286,3.023,3.023,0,0,0,0-3.423,1.519,1.519,0,0,1,.743-2.286,3.023,3.023,0,0,0,2.012-2.77,1.519,1.519,0,0,1,1.944-1.413,3.023,3.023,0,0,0,3.256-1.058,1.519,1.519,0,0,1,2.4,0,3.023,3.023,0,0,0,3.256,1.058,1.519,1.519,0,0,1,1.944,1.412,3.023,3.023,0,0,0,2.012,2.77,1.519,1.519,0,0,1,.743,2.286A3.023,3.023,0,0,0,313.429,177.566Z" transform="translate(-263.876 -147.83)"/><path class="a" d="M344.786,213.583a6.372,6.372,0,1,0,6.372,6.372A6.379,6.379,0,0,0,344.786,213.583Zm0,11.224a4.851,4.851,0,1,1,4.851-4.851A4.857,4.857,0,0,1,344.786,224.807Z" transform="translate(-304.389 -191.93)"/></svg>