<svg xmlns="http://www.w3.org/2000/svg" width="50" height="50" viewBox="0 0 50 50"><defs><style>.a{fill:#4ad3b0;}.b{fill:#2f3758;}</style></defs><g transform="translate(-666 -725)"><circle class="a" cx="3" cy="3" r="3" transform="translate(709 751)"/><circle class="a" cx="3" cy="3" r="3" transform="translate(687 726)"/><circle class="a" cx="3" cy="3" r="3" transform="translate(667 726)"/><circle class="a" cx="3" cy="3" r="3" transform="translate(667 759)"/><circle class="a" cx="3" cy="3" r="3" transform="translate(675 766)"/><path class="b" d="M40,20A10,10,0,1,0,30.948,5.778L28.27,4.79a4.045,4.045,0,0,0,.063-.623A4.2,4.2,0,1,0,27.7,6.355l2.673.987a9.818,9.818,0,0,0,.137,5.782l-9.165,3.884A9.952,9.952,0,0,0,8.975,12.32L6.67,7.476a4.145,4.145,0,1,0-2.5.857,4.1,4.1,0,0,0,1-.136l2.3,4.839a9.983,9.983,0,0,0-.534,16.934l-1.524,2.74A4.124,4.124,0,0,0,4.167,32.5a4.216,4.216,0,1,0,2.7,1.022L8.4,30.776a9.916,9.916,0,0,0,10.18-1.186l3.28,3.608a9.952,9.952,0,0,0-2.69,6.8,10.065,10.065,0,0,0,.124,1.5l-3.859.916a4.142,4.142,0,1,0,.4,1.755c0-.046-.013-.089-.013-.135l3.852-.913a10,10,0,1,0,18.3-7.847l4.9-3.183a4.249,4.249,0,1,0-.9-1.4l-4.906,3.19a10.056,10.056,0,0,0-3.724-2.958L37.4,19.645A9.964,9.964,0,0,0,40,20ZM24.167,6.667a2.5,2.5,0,1,1,2.5-2.5A2.5,2.5,0,0,1,24.167,6.667Zm-22.5-2.5a2.5,2.5,0,1,1,2.5,2.5A2.5,2.5,0,0,1,1.667,4.167Zm2.5,35a2.5,2.5,0,1,1,2.5-2.5A2.5,2.5,0,0,1,4.167,39.167Zm7.5,7.5a2.5,2.5,0,1,1,2.5-2.5A2.5,2.5,0,0,1,11.667,46.667Zm34.167-20a2.5,2.5,0,1,1-2.5,2.5A2.5,2.5,0,0,1,45.833,26.667ZM35.093,16.72a4.179,4.179,0,0,1,4.074-3.387h1.667a4.179,4.179,0,0,1,4.074,3.387,8.271,8.271,0,0,1-9.815,0ZM40,11.667a2.5,2.5,0,1,1,2.5-2.5A2.5,2.5,0,0,1,40,11.667Zm0-10a8.321,8.321,0,0,1,6.29,13.783,5.9,5.9,0,0,0-3.318-3.371,4.167,4.167,0,1,0-5.943,0,5.9,5.9,0,0,0-3.318,3.371A8.321,8.321,0,0,1,40,1.667Zm-35.833,20a8.333,8.333,0,1,1,14.612,5.463,5.9,5.9,0,0,0-3.323-3.384,4.167,4.167,0,1,0-5.944,0A5.9,5.9,0,0,0,6.2,27.1,8.289,8.289,0,0,1,4.167,21.667Zm5.817-.833a2.5,2.5,0,1,1,2.5,2.5A2.5,2.5,0,0,1,9.983,20.833Zm-2.4,7.542A4.178,4.178,0,0,1,11.65,25h1.667a4.177,4.177,0,0,1,4.076,3.4,8.269,8.269,0,0,1-9.814-.022ZM24.245,46.709a4.178,4.178,0,0,1,4.071-3.376h1.667a4.177,4.177,0,0,1,4.076,3.4,8.269,8.269,0,0,1-9.814-.022Zm4.9-5.042a2.5,2.5,0,1,1,2.5-2.5A2.5,2.5,0,0,1,29.15,41.667ZM37.5,40a8.292,8.292,0,0,1-2.055,5.463,5.9,5.9,0,0,0-3.323-3.384,4.167,4.167,0,1,0-5.944,0,5.9,5.9,0,0,0-3.314,3.357A8.329,8.329,0,1,1,37.5,40Zm-5.734-9.645a9.863,9.863,0,0,0-8.676,1.722l-3.28-3.608a9.928,9.928,0,0,0,2.183-9.926l9.165-3.884a10.054,10.054,0,0,0,4.676,4.421Zm0,0" transform="translate(666 725)"/></g></svg>