<?xml version="1.0" encoding="UTF-8"?><svg id="Calque_2" xmlns="http://www.w3.org/2000/svg" viewBox="0 0 426.7 512.1"><g id="Layer_1"><path d="m383,118.2l-74.5-74.5C280.4,15.6,242.8,0,202.9,0h-96.2C47.8,0,0,47.8,0,106.7v298.7c0,58.9,47.8,106.7,106.7,106.7h213.3c58.9,0,106.7-47.8,106.7-106.7v-181.6c0-39.9-15.5-77.5-43.7-105.6Zm-30.1,30.1c6.8,6.8,12.6,14.3,17.3,22.4h-92.6c-11.7,0-21.3-9.6-21.3-21.3V56.7c8.1,4.7,15.6,10.5,22.4,17.3l74.5,74.5-.3-.2Zm31.2,257c0,35.2-28.8,64-64,64H106.8c-35.2,0-64-28.8-64-64V106.7c0-35.2,28.8-64,64-64h96.2c3.4,0,7,0,10.5.4v106.2c0,35.2,28.8,64,64,64h106.2c.4,3.4.4,6.8.4,10.5v181.5h0Z"/><path d="m77.03,321.73h28.78c7.49,0,13.91.7,19.26,2.08,5.35,1.39,10.21,3.99,14.58,7.81,11.35,9.72,17.03,24.49,17.03,44.33,0,6.54-.57,12.52-1.71,17.92-1.14,5.4-2.9,10.28-5.28,14.61-2.38,4.34-5.43,8.22-9.15,11.64-2.93,2.63-6.12,4.74-9.59,6.32-3.47,1.59-7.2,2.7-11.19,3.35-3.99.64-8.49.97-13.5.97h-28.78c-4.02,0-7.04-.61-9.07-1.82-2.03-1.21-3.36-2.92-3.98-5.13-.62-2.21-.93-5.07-.93-8.59v-79.95c0-4.76,1.07-8.21,3.2-10.34s5.58-3.2,10.34-3.2Zm8.55,17.48v74h16.73c3.67,0,6.54-.1,8.63-.3,2.08-.2,4.24-.69,6.47-1.49,2.23-.79,4.17-1.91,5.8-3.35,7.39-6.25,11.08-17.01,11.08-32.28,0-10.76-1.62-18.82-4.87-24.17-3.25-5.35-7.25-8.76-12.01-10.23-4.76-1.46-10.51-2.19-17.25-2.19h-14.58Z"/><path d="m217.21,319.87c11.3,0,21.01,2.29,29.12,6.88,8.11,4.59,14.24,11.11,18.41,19.56,4.16,8.45,6.25,18.38,6.25,29.79,0,8.43-1.14,16.09-3.42,22.98-2.28,6.89-5.7,12.87-10.26,17.92-4.56,5.06-10.16,8.92-16.81,11.6-6.64,2.68-14.25,4.02-22.83,4.02s-16.16-1.38-22.91-4.13c-6.74-2.75-12.37-6.63-16.88-11.64-4.51-5.01-7.92-11.03-10.23-18.07-2.31-7.04-3.46-14.65-3.46-22.83s1.2-16.06,3.61-23.06c2.4-6.99,5.89-12.94,10.45-17.85,4.56-4.91,10.11-8.66,16.66-11.27,6.54-2.6,13.98-3.91,22.31-3.91Zm31.39,56.08c0-7.98-1.29-14.9-3.87-20.75-2.58-5.85-6.26-10.28-11.04-13.28-4.79-3-10.28-4.5-16.47-4.5-4.41,0-8.49.83-12.23,2.49-3.74,1.66-6.97,4.08-9.67,7.25-2.7,3.17-4.83,7.23-6.4,12.16-1.56,4.93-2.34,10.47-2.34,16.62s.78,11.8,2.34,16.81c1.56,5.01,3.77,9.16,6.62,12.46,2.85,3.3,6.12,5.76,9.82,7.4,3.69,1.64,7.75,2.45,12.16,2.45,5.65,0,10.85-1.41,15.58-4.24,4.73-2.83,8.5-7.19,11.3-13.09,2.8-5.9,4.2-13.16,4.2-21.79Z"/><path d="m375.91,396.33c0,3.47-.86,7.23-2.57,11.27-1.71,4.04-4.4,8.01-8.07,11.9-3.67,3.89-8.36,7.05-14.06,9.48-5.7,2.43-12.35,3.64-19.93,3.64-5.75,0-10.98-.55-15.69-1.64-4.71-1.09-8.99-2.79-12.83-5.09-3.84-2.31-7.38-5.34-10.6-9.11-2.88-3.42-5.33-7.25-7.36-11.49-2.03-4.24-3.56-8.76-4.57-13.57-1.02-4.81-1.52-9.92-1.52-15.32,0-8.78,1.28-16.63,3.83-23.58,2.55-6.94,6.21-12.88,10.97-17.81,4.76-4.93,10.34-8.69,16.73-11.27,6.4-2.58,13.21-3.87,20.45-3.87,8.82,0,16.68,1.76,23.58,5.28,6.89,3.52,12.17,7.87,15.84,13.05,3.67,5.18,5.5,10.08,5.5,14.69,0,2.53-.89,4.76-2.68,6.69s-3.94,2.9-6.47,2.9c-2.83,0-4.95-.67-6.36-2.01-1.41-1.34-2.99-3.64-4.72-6.92-2.88-5.4-6.26-9.45-10.15-12.12-3.89-2.68-8.69-4.02-14.39-4.02-9.07,0-16.3,3.45-21.68,10.34-5.38,6.89-8.07,16.69-8.07,29.38,0,8.48,1.19,15.53,3.57,21.16,2.38,5.63,5.75,9.83,10.11,12.61,4.36,2.78,9.47,4.17,15.32,4.17,6.35,0,11.71-1.57,16.1-4.72,4.39-3.15,7.7-7.77,9.93-13.87.94-2.88,2.11-5.22,3.5-7.03,1.39-1.81,3.62-2.71,6.69-2.71,2.63,0,4.88.92,6.77,2.75,1.88,1.83,2.83,4.12,2.83,6.84Z"/></g></svg>