<svg xmlns="http://www.w3.org/2000/svg" width="44.225" height="50" viewBox="0 0 44.225 50"><defs><style>.a{fill:#4ad3b0;}.b{fill:#2f3758;}</style></defs><g transform="translate(0.001)"><path class="a" d="M38.882,62.864h3.994A1.927,1.927,0,0,0,44.8,60.939V56.945a1.927,1.927,0,0,0-1.925-1.925H38.882a1.927,1.927,0,0,0-1.925,1.925v3.994A1.927,1.927,0,0,0,38.882,62.864Zm-.444-5.919a.45.45,0,0,1,.444-.444h3.994a.45.45,0,0,1,.444.444v3.994a.45.45,0,0,1-.444.444H38.882a.45.45,0,0,1-.444-.444Zm0,0" transform="translate(-33.349 -49.647)"/><path class="b" d="M172.372,63.961h-24.8a.74.74,0,0,0,0,1.481h24.8a.74.74,0,1,0,0-1.481Zm0,0" transform="translate(-132.497 -57.715)"/><path class="b" d="M147.576,112.715h16.782a.74.74,0,1,0,0-1.481H147.576a.74.74,0,0,0,0,1.481Zm0,0" transform="translate(-132.497 -100.371)"/><path class="b" d="M354.8,111.234h-5.052a.74.74,0,1,0,0,1.481H354.8a.74.74,0,0,0,0-1.481Zm0,0" transform="translate(-314.922 -100.371)"/><path class="a" d="M36.957,168.153a1.927,1.927,0,0,0,1.925,1.925h3.994a1.927,1.927,0,0,0,1.925-1.925v-3.994a1.927,1.927,0,0,0-1.925-1.925H38.882a1.927,1.927,0,0,0-1.925,1.925Zm1.481-3.994a.45.45,0,0,1,.444-.444h3.994a.451.451,0,0,1,.444.444v3.994a.451.451,0,0,1-.444.444H38.882a.45.45,0,0,1-.444-.444Zm0,0" transform="translate(-33.349 -146.391)"/><path class="b" d="M147.576,172.657h24.8a.74.74,0,1,0,0-1.481h-24.8a.74.74,0,1,0,0,1.481Zm0,0" transform="translate(-132.497 -154.46)"/><path class="b" d="M147.576,219.929h24.8a.74.74,0,1,0,0-1.48h-24.8a.74.74,0,1,0,0,1.48Zm0,0" transform="translate(-132.497 -197.116)"/><path class="a" d="M36.957,275.368a1.927,1.927,0,0,0,1.925,1.925h3.994a1.927,1.927,0,0,0,1.925-1.925v-3.994a1.927,1.927,0,0,0-1.925-1.925H38.882a1.927,1.927,0,0,0-1.925,1.925Zm1.481-3.994a.45.45,0,0,1,.444-.444h3.994a.451.451,0,0,1,.444.444v3.994a.451.451,0,0,1-.444.444H38.882a.45.45,0,0,1-.444-.444Zm0,0" transform="translate(-33.349 -243.136)"/><path class="b" d="M147.576,279.871h24.8a.74.74,0,1,0,0-1.48h-24.8a.74.74,0,1,0,0,1.48Zm0,0" transform="translate(-132.497 -251.204)"/><path class="b" d="M147.576,327.141h24.8a.74.74,0,1,0,0-1.481h-24.8a.74.74,0,1,0,0,1.481Zm0,0" transform="translate(-132.497 -293.857)"/><path class="a" d="M36.957,382.58a1.927,1.927,0,0,0,1.925,1.925h3.994A1.927,1.927,0,0,0,44.8,382.58v-3.994a1.927,1.927,0,0,0-1.925-1.925H38.882a1.927,1.927,0,0,0-1.925,1.925Zm1.481-3.994a.45.45,0,0,1,.444-.444h3.994a.45.45,0,0,1,.444.444v3.994a.45.45,0,0,1-.444.444H38.882a.45.45,0,0,1-.444-.444Zm0,0" transform="translate(-33.349 -339.877)"/><path class="b" d="M147.576,387.083h24.8a.74.74,0,1,0,0-1.481h-24.8a.74.74,0,1,0,0,1.481Zm0,0" transform="translate(-132.497 -347.945)"/><path class="b" d="M147.576,434.356h24.8a.74.74,0,1,0,0-1.481h-24.8a.74.74,0,1,0,0,1.481Zm0,0" transform="translate(-132.497 -390.602)"/><path class="b" d="M43.484,130.491a.74.74,0,0,0-.74.74v14.763a.45.45,0,0,1-.444.444H1.924a.45.45,0,0,1-.444-.444V109.256a.74.74,0,0,0-1.481,0v36.738a1.927,1.927,0,0,0,1.925,1.925H42.3a1.927,1.927,0,0,0,1.925-1.925V131.231a.74.74,0,0,0-.74-.74Zm0,0" transform="translate(0 -97.919)"/><path class="b" d="M42.3,0H1.924A1.927,1.927,0,0,0,0,1.925V8.376a.74.74,0,1,0,1.481,0V1.925a.45.45,0,0,1,.444-.444H42.3a.45.45,0,0,1,.444.444V30.351a.74.74,0,1,0,1.48,0V1.925A1.927,1.927,0,0,0,42.3,0Zm0,0"/></g></svg>