<svg xmlns="http://www.w3.org/2000/svg" width="20" height="20" viewBox="0 0 16.667 20">
  <path id="file_1_" data-name="file (1)" d="M16.957,4.613l-2.9-2.9A5.8,5.8,0,0,0,9.929,0H6.167A4.172,4.172,0,0,0,2,4.167V15.833A4.172,4.172,0,0,0,6.167,20H14.5a4.172,4.172,0,0,0,4.167-4.167v-7.1a5.792,5.792,0,0,0-1.709-4.124ZM15.779,5.792a4.153,4.153,0,0,1,.651.875h-3.6A.833.833,0,0,1,12,5.833v-3.6a4.175,4.175,0,0,1,.876.65ZM17,15.833a2.5,2.5,0,0,1-2.5,2.5H6.167a2.5,2.5,0,0,1-2.5-2.5V4.167a2.5,2.5,0,0,1,2.5-2.5H9.929c.137,0,.269.027.4.039V5.833a2.5,2.5,0,0,0,2.5,2.5h4.127c.012.135.039.267.039.4Z" transform="translate(-2)" fill="#2f3758"/>
</svg>
