<svg id="video-call" xmlns="http://www.w3.org/2000/svg" width="62.5" height="62.5" viewBox="0 0 62.5 62.5">
  <path id="Tracé_9865" data-name="Tracé 9865" d="M31.25,62.5A31.25,31.25,0,1,1,62.5,31.25,31.233,31.233,0,0,1,31.25,62.5Zm0-60.545A29.295,29.295,0,1,0,60.545,31.25,29.328,29.328,0,0,0,31.25,1.955Z" fill="#2f3758"/>
  <g id="presentation" transform="translate(11.059 13.591)">
    <path id="Tracé_9866" data-name="Tracé 9866" d="M36.665,0H18.924a3.722,3.722,0,0,0-3.718,3.718V15.1L11.912,13.46c-.111-.055-.224-.108-.338-.157a5.618,5.618,0,1,0-7.751.344A7.488,7.488,0,0,0,0,20.192v3.8a3.724,3.724,0,0,0,2.534,3.525v6.613a1.183,1.183,0,0,0,1.183,1.183h7.6A1.183,1.183,0,0,0,12.5,34.131V20.838l3.788,1.894A3.246,3.246,0,0,0,20.6,21.375h4.242L20.346,33.727a1.183,1.183,0,0,0,2.224.809l4.786-13.161h.829L33.02,34.539a1.183,1.183,0,0,0,2.221-.816L30.706,21.375h5.959a3.718,3.718,0,0,0,3.718-3.718V3.717A3.717,3.717,0,0,0,36.665,0ZM4.267,9.42a3.252,3.252,0,1,1,3.252,3.252A3.256,3.256,0,0,1,4.267,9.42ZM18.574,20.11l-.009.026a.875.875,0,0,1-1.216.479l-5.5-2.75a1.184,1.184,0,0,0-1.712,1.058V32.948H4.9V26.528a1.183,1.183,0,0,0-1.183-1.183,1.353,1.353,0,0,1-1.351-1.351v-3.8a5.154,5.154,0,0,1,5.153-5.153H8.564a5.155,5.155,0,0,1,2.293.539l7.363,3.663a.709.709,0,0,1,.354.869Zm19.442-2.452a1.342,1.342,0,0,1-.4.956,1.36,1.36,0,0,1-.956.4H20.853l-.006-.019,2.936-5.872a1.183,1.183,0,0,0-2.116-1.058l-2.5,5.008-1.591-.792V3.717a1.353,1.353,0,0,1,1.351-1.351H36.665a1.359,1.359,0,0,1,.956.4,1.341,1.341,0,0,1,.395.955Zm0,0" fill="#2f3758"/>
    <path id="Tracé_9867" data-name="Tracé 9867" d="M270.922,64.266H258.249a1.183,1.183,0,0,0,0,2.366h12.673a1.183,1.183,0,0,0,0-2.366Zm0,0" transform="translate(-236.791 -59.197)" fill="#2f3758"/>
    <path id="Tracé_9868" data-name="Tracé 9868" d="M344.918,120.5h-6.336a1.183,1.183,0,0,0,0,2.366h6.336a1.183,1.183,0,0,0,0-2.366Zm0,0" transform="translate(-310.787 -110.996)" fill="#2f3758"/>
    <path id="Tracé_9869" data-name="Tracé 9869" d="M344.918,176.734h-6.336a1.183,1.183,0,0,0,0,2.366h6.336a1.183,1.183,0,0,0,0-2.366Zm0,0" transform="translate(-310.787 -162.794)" fill="#2f3758"/>
  </g>
</svg>
