<?xml version="1.0" encoding="UTF-8"?><svg id="Calque_2" xmlns="http://www.w3.org/2000/svg" viewBox="0 0 426.6 512"><g id="Layer_1"><path d="m382.9,118.2l-74.5-74.5C280.3,15.6,242.7,0,202.8,0h-96.2C47.7,0,0,47.8,0,106.7v298.7c0,58.8,47.7,106.6,106.6,106.6h213.3c58.9,0,106.7-47.8,106.7-106.7v-181.5c0-39.9-15.5-77.5-43.7-105.6Zm-30.1,30.1c6.8,6.8,12.6,14.3,17.3,22.4h-92.6c-11.7,0-21.3-9.6-21.3-21.3V56.7c8.1,4.7,15.6,10.5,22.4,17.3l74.5,74.5-.3-.2Zm31.2,257c0,35.2-28.8,64-64,64H106.6c-35.2,0-64-28.8-64-64V106.7c0-35.2,28.8-64,64-64h96.2c3.4,0,7,0,10.5.4v106.2c0,35.2,28.8,64,64,64h106.2c.4,3.4.4,6.8.4,10.5v181.5h.1Z"/><path d="m145.22,333.26v57.12c0,4.96-.21,9.17-.63,12.64-.42,3.47-1.38,6.99-2.86,10.56-2.48,6-6.57,10.67-12.27,14.02-5.7,3.35-12.64,5.02-20.82,5.02-7.39,0-13.55-1.17-18.48-3.5-4.93-2.33-8.91-6.1-11.94-11.3-1.59-2.78-2.88-5.97-3.87-9.59-.99-3.62-1.49-7.07-1.49-10.34,0-3.47.97-6.12,2.9-7.96,1.93-1.83,4.41-2.75,7.44-2.75s5.13.84,6.62,2.53c1.49,1.69,2.63,4.31,3.42,7.88.84,3.82,1.68,6.87,2.53,9.15.84,2.28,2.26,4.24,4.24,5.88,1.98,1.64,4.81,2.45,8.48,2.45,9.77,0,14.65-7.16,14.65-21.49v-60.32c0-4.46.98-7.81,2.94-10.04,1.96-2.23,4.62-3.35,7.99-3.35s6.14,1.12,8.14,3.35c2.01,2.23,3.01,5.58,3.01,10.04Z"/><path d="m204.63,388.29h-20.23v30.86c0,4.41-1.04,7.76-3.12,10.04-2.08,2.28-4.71,3.42-7.88,3.42s-6-1.13-8.03-3.38c-2.03-2.26-3.05-5.57-3.05-9.93v-84.04c0-4.86,1.12-8.33,3.35-10.41,2.23-2.08,5.78-3.12,10.64-3.12h28.34c8.38,0,14.82.65,19.34,1.93,4.46,1.24,8.32,3.3,11.57,6.17,3.25,2.88,5.71,6.4,7.4,10.56,1.68,4.17,2.53,8.85,2.53,14.06,0,11.11-3.42,19.52-10.26,25.25-6.84,5.73-17.03,8.59-30.57,8.59Zm-5.35-49.98h-14.87v33.32h14.87c5.21,0,9.56-.54,13.05-1.64,3.5-1.09,6.16-2.88,8-5.35,1.83-2.48,2.75-5.73,2.75-9.74,0-4.81-1.41-8.73-4.24-11.75-3.17-3.22-9.69-4.83-19.56-4.83Z"/><path d="m356.63,386.43v20.9c0,2.78-.27,5-.82,6.66-.55,1.66-1.55,3.16-3.01,4.5-1.46,1.34-3.33,2.63-5.62,3.87-6.59,3.57-12.94,6.17-19.04,7.81-6.1,1.64-12.74,2.45-19.93,2.45-8.38,0-16.02-1.29-22.91-3.87-6.89-2.58-12.77-6.32-17.63-11.23-4.86-4.91-8.59-10.86-11.19-17.85-2.6-6.99-3.9-14.8-3.9-23.43s1.26-16.24,3.79-23.28c2.53-7.04,6.25-13.01,11.16-17.92s10.88-8.66,17.92-11.27c7.04-2.6,15.02-3.91,23.95-3.91,7.34,0,13.83.98,19.49,2.94,5.65,1.96,10.24,4.43,13.76,7.4,3.52,2.97,6.17,6.12,7.96,9.45,1.78,3.32,2.68,6.27,2.68,8.85,0,2.78-1.03,5.14-3.09,7.1-2.06,1.96-4.53,2.94-7.4,2.94-1.59,0-3.11-.37-4.57-1.12-1.46-.74-2.69-1.79-3.68-3.12-2.73-4.26-5.03-7.49-6.92-9.67-1.88-2.18-4.43-4.02-7.62-5.5-3.2-1.49-7.28-2.23-12.23-2.23s-9.67.88-13.68,2.64c-4.02,1.76-7.45,4.31-10.3,7.66-2.85,3.35-5.03,7.45-6.54,12.31-1.51,4.86-2.27,10.24-2.27,16.14,0,12.79,2.94,22.63,8.81,29.53s14.07,10.34,24.58,10.34c5.11,0,9.9-.67,14.39-2.01,4.49-1.34,9.04-3.25,13.65-5.73v-17.7h-17.11c-4.12,0-7.23-.62-9.33-1.86-2.11-1.24-3.16-3.35-3.16-6.32,0-2.43.88-4.44,2.64-6.02,1.76-1.59,4.15-2.38,7.18-2.38h25.06c3.07,0,5.68.27,7.81.82,2.13.55,3.85,1.76,5.17,3.64,1.31,1.88,1.97,4.71,1.97,8.48Z"/></g></svg>