<?xml version="1.0" encoding="UTF-8"?><svg id="Calque_2" xmlns="http://www.w3.org/2000/svg" viewBox="0 0 426.7 512.1"><g id="Layer_1"><path d="m383,118.2l-74.5-74.5C280.4,15.6,242.8,0,202.9,0h-96.2C47.8,0,0,47.8,0,106.7v298.7c0,58.9,47.8,106.7,106.7,106.7h213.3c58.9,0,106.7-47.8,106.7-106.7v-181.6c0-39.9-15.5-77.5-43.7-105.6Zm-30.1,30.1c6.8,6.8,12.6,14.3,17.3,22.4h-92.6c-11.7,0-21.3-9.6-21.3-21.3V56.7c8.1,4.7,15.6,10.5,22.4,17.3l74.5,74.5-.3-.2Zm31.2,257c0,35.2-28.8,64-64,64H106.8c-35.2,0-64-28.8-64-64V106.7c0-35.2,28.8-64,64-64h96.2c3.4,0,7,0,10.5.4v106.2c0,35.2,28.8,64,64,64h106.2c.4,3.4.4,6.8.4,10.5v181.5h0Z"/><path d="m118.43,388.29h-20.23v30.86c0,4.41-1.04,7.76-3.12,10.04-2.08,2.28-4.71,3.42-7.88,3.42s-6-1.13-8.03-3.38c-2.03-2.26-3.05-5.57-3.05-9.93v-84.04c0-4.86,1.12-8.33,3.35-10.41,2.23-2.08,5.78-3.12,10.64-3.12h28.34c8.38,0,14.82.65,19.34,1.93,4.46,1.24,8.32,3.3,11.56,6.17,3.25,2.88,5.71,6.4,7.4,10.56,1.69,4.17,2.53,8.85,2.53,14.06,0,11.11-3.42,19.52-10.26,25.25s-17.03,8.59-30.57,8.59Zm-5.35-49.98h-14.87v33.32h14.87c5.21,0,9.56-.54,13.05-1.64,3.5-1.09,6.16-2.88,8-5.35,1.83-2.48,2.75-5.73,2.75-9.74,0-4.81-1.41-8.73-4.24-11.75-3.17-3.22-9.69-4.83-19.56-4.83Z"/><path d="m220.02,388.29h-20.23v30.86c0,4.41-1.04,7.76-3.12,10.04-2.08,2.28-4.71,3.42-7.88,3.42s-6-1.13-8.03-3.38c-2.03-2.26-3.05-5.57-3.05-9.93v-84.04c0-4.86,1.12-8.33,3.35-10.41,2.23-2.08,5.78-3.12,10.64-3.12h28.34c8.38,0,14.82.65,19.34,1.93,4.46,1.24,8.32,3.3,11.56,6.17,3.25,2.88,5.71,6.4,7.4,10.56,1.69,4.17,2.53,8.85,2.53,14.06,0,11.11-3.42,19.52-10.26,25.25s-17.03,8.59-30.57,8.59Zm-5.35-49.98h-14.87v33.32h14.87c5.21,0,9.56-.54,13.05-1.64,3.5-1.09,6.16-2.88,8-5.35,1.83-2.48,2.75-5.73,2.75-9.74,0-4.81-1.41-8.73-4.24-11.75-3.17-3.22-9.69-4.83-19.56-4.83Z"/><path d="m350.1,339.95h-24.1v79.21c0,4.56-1.02,7.95-3.05,10.15-2.03,2.21-4.66,3.31-7.88,3.31s-5.94-1.12-8-3.35c-2.06-2.23-3.09-5.6-3.09-10.12v-79.21h-24.1c-3.77,0-6.57-.83-8.4-2.49-1.83-1.66-2.75-3.85-2.75-6.58s.95-5.06,2.86-6.69c1.91-1.64,4.67-2.45,8.29-2.45h70.21c3.82,0,6.66.84,8.52,2.53s2.79,3.89,2.79,6.62-.94,4.92-2.83,6.58c-1.88,1.66-4.71,2.49-8.48,2.49Z"/></g></svg>