<svg width="100px" height="100px" viewBox="0 0 100 100" version="1.1" xmlns="http://www.w3.org/2000/svg" xmlns:xlink="http://www.w3.org/1999/xlink">
    <g stroke="none" stroke-width="1" fill="none" fill-rule="evenodd">
        <g fill="#2F3758" fill-rule="nonzero">
            <path d="M99.1421875,0.858398437 C98.3134766,0.0294921875 97.0701172,-0.225390625 95.9826172,0.209765625 L1.84179687,37.865625 C0.764648437,38.2964844 0.043359375,39.3222656 0.001953125,40.4818359 C-0.0392578125,41.6412109 0.607617187,42.715625 1.65136719,43.221875 L38.7740234,61.2259766 L56.7783203,98.3486328 C57.2693359,99.3611328 58.2947266,100 59.4136719,100 C59.4484375,100 59.4833984,100 59.5183594,99.9980469 C60.6775391,99.9568359 61.7037109,99.2355469 62.134375,98.1583984 L99.790625,4.01816406 C100.225781,2.92988281 99.9708984,1.68710937 99.1421875,0.858398437 Z M10.1746094,40.8433594 L84.90625,10.9509766 L40.3693359,55.4875 L10.1746094,40.8433594 Z M59.1568359,89.8255859 L44.5125,59.6304687 L89.0496094,15.0939453 L59.1568359,89.8255859 Z"></path>
        </g>
    </g>
</svg>
