<?xml version="1.0" encoding="UTF-8"?><svg id="Calque_2" xmlns="http://www.w3.org/2000/svg" viewBox="0 0 426.7 512.1"><g id="Layer_1"><path d="m383,118.2l-74.5-74.5C280.4,15.6,242.8,0,202.9,0h-96.2C47.8,0,0,47.8,0,106.7v298.7c0,58.9,47.8,106.7,106.7,106.7h213.3c58.9,0,106.7-47.8,106.7-106.7v-181.6c0-39.9-15.5-77.5-43.7-105.6Zm-30.1,30.1c6.8,6.8,12.6,14.3,17.3,22.4h-92.6c-11.7,0-21.3-9.6-21.3-21.3V56.7c8.1,4.7,15.6,10.5,22.4,17.3l74.5,74.5-.3-.2Zm31.2,257c0,35.2-28.8,64-64,64H106.8c-35.2,0-64-28.8-64-64V106.7c0-35.2,28.8-64,64-64h96.2c3.4,0,7,0,10.5.4v106.2c0,35.2,28.8,64,64,64h106.2c.4,3.4.4,6.8.4,10.5v181.5h0Z"/><path d="m144.64,398.04c0,6.59-1.7,12.52-5.09,17.77-3.4,5.26-8.37,9.37-14.91,12.35-6.54,2.98-14.3,4.46-23.28,4.46-10.76,0-19.63-2.03-26.63-6.1-4.96-2.92-8.99-6.83-12.09-11.71-3.1-4.88-4.65-9.63-4.65-14.24,0-2.68.93-4.97,2.79-6.88,1.86-1.91,4.23-2.86,7.1-2.86,2.33,0,4.3.74,5.91,2.23,1.61,1.49,2.99,3.69,4.13,6.62,1.39,3.47,2.89,6.37,4.5,8.7,1.61,2.33,3.88,4.25,6.81,5.76,2.92,1.51,6.77,2.27,11.53,2.27,6.54,0,11.86-1.53,15.95-4.57,4.09-3.05,6.14-6.85,6.14-11.42,0-3.62-1.1-6.56-3.31-8.81-2.21-2.26-5.06-3.98-8.55-5.17-3.5-1.19-8.17-2.45-14.02-3.79-7.83-1.83-14.39-3.98-19.67-6.43-5.28-2.46-9.47-5.8-12.57-10.04-3.1-4.24-4.65-9.51-4.65-15.8s1.64-11.33,4.91-15.99c3.27-4.66,8.01-8.24,14.21-10.75,6.2-2.5,13.49-3.76,21.87-3.76,6.69,0,12.48.83,17.37,2.49,4.88,1.66,8.94,3.87,12.16,6.62,3.22,2.75,5.58,5.64,7.07,8.66,1.49,3.02,2.23,5.98,2.23,8.85,0,2.63-.93,5-2.79,7.1s-4.18,3.16-6.95,3.16c-2.53,0-4.45-.63-5.76-1.9-1.31-1.26-2.74-3.33-4.28-6.21-1.98-4.11-4.36-7.33-7.14-9.63-2.78-2.31-7.24-3.46-13.39-3.46-5.7,0-10.3,1.25-13.8,3.76-3.5,2.5-5.24,5.52-5.24,9.04,0,2.18.59,4.07,1.78,5.65s2.83,2.95,4.91,4.09c2.08,1.14,4.19,2.03,6.32,2.68,2.13.64,5.65,1.59,10.56,2.83,6.15,1.44,11.71,3.02,16.7,4.76,4.98,1.74,9.22,3.84,12.72,6.32,3.5,2.48,6.22,5.62,8.18,9.41,1.96,3.79,2.94,8.44,2.94,13.95Z"/><path d="m179.52,334.37l24.69,73.11,24.77-73.63c1.29-3.87,2.26-6.56,2.9-8.07.64-1.51,1.71-2.88,3.2-4.09,1.49-1.21,3.52-1.82,6.1-1.82,1.88,0,3.63.47,5.24,1.41,1.61.94,2.88,2.19,3.79,3.76.92,1.56,1.38,3.14,1.38,4.72,0,1.09-.15,2.27-.45,3.53-.3,1.26-.67,2.5-1.12,3.72s-.89,2.47-1.34,3.75l-26.4,71.25c-.94,2.73-1.88,5.32-2.83,7.77-.94,2.45-2.03,4.61-3.27,6.47-1.24,1.86-2.89,3.38-4.95,4.57-2.06,1.19-4.57,1.79-7.55,1.79s-5.49-.58-7.55-1.75c-2.06-1.16-3.72-2.7-4.98-4.61-1.26-1.91-2.37-4.08-3.31-6.51-.94-2.43-1.88-5.01-2.83-7.74l-25.96-70.65c-.45-1.29-.91-2.55-1.38-3.79-.47-1.24-.87-2.58-1.19-4.02-.32-1.44-.48-2.65-.48-3.64,0-2.53,1.02-4.83,3.05-6.92,2.03-2.08,4.59-3.12,7.66-3.12,3.77,0,6.43,1.15,7.99,3.46,1.56,2.3,3.16,5.99,4.8,11.04Z"/><path d="m365.75,386.43v20.9c0,2.78-.27,5-.82,6.66-.54,1.66-1.55,3.16-3.01,4.5s-3.33,2.63-5.62,3.87c-6.59,3.57-12.94,6.17-19.04,7.81-6.1,1.64-12.74,2.45-19.93,2.45-8.38,0-16.02-1.29-22.91-3.87-6.89-2.58-12.77-6.32-17.63-11.23-4.86-4.91-8.59-10.86-11.19-17.85s-3.9-14.8-3.9-23.43,1.26-16.24,3.79-23.28c2.53-7.04,6.25-13.01,11.16-17.92,4.91-4.91,10.88-8.66,17.92-11.27,7.04-2.6,15.02-3.91,23.95-3.91,7.34,0,13.83.98,19.49,2.94,5.65,1.96,10.24,4.43,13.76,7.4,3.52,2.97,6.17,6.12,7.96,9.45,1.79,3.32,2.68,6.27,2.68,8.85,0,2.78-1.03,5.14-3.09,7.1-2.06,1.96-4.52,2.94-7.4,2.94-1.59,0-3.11-.37-4.57-1.12-1.46-.74-2.69-1.79-3.68-3.12-2.73-4.26-5.03-7.49-6.92-9.67-1.88-2.18-4.43-4.02-7.62-5.5-3.2-1.49-7.28-2.23-12.23-2.23s-9.67.88-13.68,2.64c-4.02,1.76-7.45,4.31-10.3,7.66-2.85,3.35-5.03,7.45-6.54,12.31-1.51,4.86-2.27,10.24-2.27,16.14,0,12.79,2.94,22.63,8.81,29.53,5.88,6.89,14.07,10.34,24.58,10.34,5.11,0,9.9-.67,14.39-2.01,4.49-1.34,9.04-3.25,13.65-5.73v-17.7h-17.11c-4.12,0-7.23-.62-9.33-1.86-2.11-1.24-3.16-3.35-3.16-6.32,0-2.43.88-4.44,2.64-6.02,1.76-1.59,4.15-2.38,7.18-2.38h25.06c3.07,0,5.68.27,7.81.82,2.13.55,3.85,1.76,5.17,3.64,1.31,1.88,1.97,4.71,1.97,8.48Z"/></g></svg>