<?xml version="1.0" encoding="UTF-8"?><svg id="Calque_2" xmlns="http://www.w3.org/2000/svg" viewBox="0 0 426.7 512.1"><g id="Layer_1"><path d="m382.9,118.2l-74.5-74.5C280.3,15.6,242.7,0,202.8,0h-96.2C47.7,0,0,47.8,0,106.7v298.7c0,58.9,47.8,106.7,106.7,106.7h213.3c58.9,0,106.7-47.8,106.7-106.7v-181.6c-.1-39.9-15.6-77.5-43.8-105.6Zm-30.1,30.1c6.8,6.8,12.6,14.3,17.3,22.4h-92.6c-11.7,0-21.3-9.6-21.3-21.3V56.7c8.1,4.7,15.6,10.5,22.4,17.3l74.5,74.5-.3-.2Zm31.2,257c0,35.2-28.8,64-64,64H106.6c-35.2,0-64-28.8-64-64V106.7c0-35.2,28.8-64,64-64h96.2c3.4,0,7,0,10.5.4v106.2c0,35.2,28.8,64,64,64h106.2c.4,3.4.4,6.8.4,10.5v181.5h.1Z"/><path d="m122.55,404.99l-12.97-48.12-13.14,48.12c-1.02,3.65-1.83,6.27-2.44,7.86-.6,1.59-1.65,3.01-3.15,4.27-1.5,1.26-3.49,1.89-5.97,1.89-2.01,0-3.66-.38-4.96-1.12-1.29-.75-2.35-1.81-3.15-3.17-.8-1.37-1.46-2.99-1.97-4.87-.51-1.88-.97-3.62-1.37-5.23l-13.36-54.04c-.8-3.14-1.2-5.53-1.2-7.17,0-2.08.73-3.83,2.19-5.25,1.46-1.42,3.27-2.14,5.42-2.14,2.96,0,4.95.95,5.97,2.85,1.02,1.9,1.92,4.65,2.68,8.27l10.51,46.86,11.77-43.85c.88-3.36,1.66-5.91,2.35-7.67s1.83-3.27,3.39-4.54c1.57-1.28,3.71-1.92,6.41-1.92s4.86.67,6.38,2c1.51,1.33,2.56,2.78,3.15,4.35.58,1.57,1.37,4.16,2.35,7.77l11.88,43.85,10.51-46.86c.51-2.44.99-4.36,1.45-5.75.46-1.39,1.24-2.63,2.35-3.72s2.73-1.64,4.85-1.64,3.91.7,5.39,2.11c1.48,1.41,2.22,3.17,2.22,5.28,0,1.5-.4,3.89-1.21,7.17l-13.36,54.04c-.91,3.65-1.67,6.32-2.27,8.02-.6,1.7-1.62,3.19-3.07,4.46-1.44,1.28-3.48,1.92-6.1,1.92-2.48,0-4.47-.62-5.97-1.86-1.5-1.24-2.54-2.64-3.12-4.19-.58-1.55-1.41-4.21-2.46-7.97Z"/><path d="m218.84,349.91h-36.63v19.71h33.72c2.48,0,4.33.56,5.56,1.67,1.22,1.11,1.83,2.58,1.83,4.41s-.6,3.31-1.81,4.46c-1.2,1.15-3.07,1.72-5.58,1.72h-33.72v22.83h37.88c2.55,0,4.48.59,5.78,1.78,1.29,1.19,1.94,2.76,1.94,4.74s-.65,3.44-1.94,4.63c-1.3,1.19-3.22,1.78-5.78,1.78h-44.18c-3.54,0-6.09-.78-7.64-2.35-1.55-1.57-2.33-4.11-2.33-7.61v-60.33c0-2.34.35-4.24,1.04-5.72.69-1.48,1.78-2.55,3.26-3.23,1.48-.67,3.37-1.01,5.67-1.01h42.92c2.59,0,4.52.57,5.78,1.72,1.26,1.15,1.89,2.66,1.89,4.52s-.63,3.42-1.89,4.57c-1.26,1.15-3.19,1.72-5.78,1.72Z"/><path d="m270.08,417.64h-24.53c-3.54,0-6.07-.79-7.58-2.38-1.51-1.59-2.27-4.11-2.27-7.58v-60.33c0-3.54.77-6.09,2.33-7.64s4.06-2.33,7.53-2.33h26.01c3.83,0,7.15.24,9.96.71,2.81.48,5.33,1.39,7.56,2.74,1.9,1.13,3.58,2.57,5.04,4.3,1.46,1.73,2.57,3.65,3.34,5.75.77,2.1,1.15,4.32,1.15,6.65,0,8.03-4.02,13.91-12.04,17.63,10.55,3.36,15.82,9.89,15.82,19.6,0,4.49-1.15,8.53-3.45,12.13-2.3,3.6-5.4,6.25-9.31,7.97-2.45,1.02-5.26,1.74-8.43,2.16-3.18.42-6.88.63-11.11.63Zm-18.12-68.05v20.75h14.89c4.05,0,7.18-.38,9.39-1.15,2.21-.77,3.9-2.23,5.06-4.38.91-1.53,1.37-3.25,1.37-5.15,0-4.05-1.44-6.74-4.33-8.08-2.88-1.33-7.28-2-13.19-2h-13.19Zm16.92,32.41h-16.92v23.43h17.46c10.99,0,16.48-3.96,16.48-11.88,0-4.05-1.42-6.99-4.27-8.81-2.85-1.82-7.1-2.74-12.76-2.74Z"/><path d="m342.66,386.38h-14.89v22.72c0,3.25-.77,5.71-2.3,7.39-1.53,1.68-3.47,2.52-5.8,2.52s-4.42-.83-5.91-2.49-2.24-4.1-2.24-7.31v-61.86c0-3.58.82-6.13,2.46-7.67,1.64-1.53,4.25-2.3,7.83-2.3h20.86c6.17,0,10.91.47,14.23,1.42,3.29.91,6.12,2.43,8.51,4.54,2.39,2.12,4.21,4.71,5.45,7.77,1.24,3.07,1.86,6.51,1.86,10.35,0,8.18-2.52,14.37-7.56,18.59-5.04,4.22-12.54,6.32-22.5,6.32Zm-3.94-36.79h-10.95v24.53h10.95c3.83,0,7.04-.4,9.61-1.21,2.57-.8,4.54-2.12,5.89-3.94,1.35-1.83,2.03-4.22,2.03-7.17,0-3.54-1.04-6.42-3.12-8.65-2.34-2.37-7.14-3.56-14.4-3.56Z"/></g></svg>